<svg xmlns="http://www.w3.org/2000/svg" viewBox="0 0 627.75 627.75"><defs><style>.cls-1{fill:#108498;}.cls-2{fill:#fff;}.cls-3{fill:#2feded;}</style></defs><g id="Capa_2" data-name="Capa 2"><g id="Capa_1-2" data-name="Capa 1"><circle class="cls-1" cx="313.88" cy="313.88" r="313.88"/><path class="cls-2" d="M446.44,115.53H192.9a41.13,41.13,0,0,0-41,41.05V465.9a41.13,41.13,0,0,0,40.55,41v27.7a6.73,6.73,0,0,0,6.7,6.75h0a6.75,6.75,0,0,0,4-1.32l16.79-12.29,16.78,12.29a6.66,6.66,0,0,0,4,1.3h0a6.84,6.84,0,0,0,3-.73,6.7,6.7,0,0,0,3.71-6V507H446.35a16.06,16.06,0,0,0,16-16V424.38l.09-292.89A16,16,0,0,0,446.44,115.53ZM234.15,521.38,224.09,514a6.64,6.64,0,0,0-3.93-1.3h0a6.79,6.79,0,0,0-4,1.29L206,521.38v-42.5h28.17Zm13.35-42.47H424.82a6.73,6.73,0,0,0,0-13.45H182.64a6.76,6.76,0,0,0-5.6,11.16,6.69,6.69,0,0,0,4.62,2.32,7.36,7.36,0,0,0,.94,0h9.9V493.5a27.7,27.7,0,0,1-27.1-27.57v-7.26a27.68,27.68,0,0,1,27.6-27.6H449.05V491a2.47,2.47,0,0,1-.71,1.78,2.52,2.52,0,0,1-1.77.76H247.5Zm-54.59-61.29h-.06a40.66,40.66,0,0,0-27.55,10.69V156.58A27.68,27.68,0,0,1,192.91,129H446.44a2.51,2.51,0,0,1,2.51,2.51V417.62Z"/><path class="cls-2" d="M424.89,441.62H184.25a6.26,6.26,0,0,0,0,12.48H424.89a6.26,6.26,0,0,0,0-12.48Z"/><path class="cls-3" d="M299.25,184a79,79,0,0,1,52.09,18.28,107.82,107.82,0,0,1,31-4.28c20.81,0,39.61,8.56,38.28,23.08-2.3,21.78-43.89,32-73.9,35a157.46,157.46,0,0,1-30.7,0c-20.77,32-50.82,51.86-59.05,57.08,5,.68,14.84,3.24,30.69,7.61a121.81,121.81,0,0,0,24.08,3.6c20.13,0,35.95-3.6,54.1-20.78.68-.65,2.34-2,3.24-1s-1,2.95-2.62,4.6c-21.78,21.78-36.3,32.42-57.76,32.42a86.29,86.29,0,0,1-31.67-6.49c-11.9-4.27-25.41-9.72-31.34-10.89-11.06,7.94-24.67,16.18-44.44,16.5-13.55.36-20.13-2.62-19.81-7.58.33-10.89,28.69-19.13,49.17-19.81a148.93,148.93,0,0,1,19.13.36c15.49-16.5,24.08-42.92,36.62-60.06-19.12-4-35.65-15.5-35.65-32.42S268.23,184,299.25,184ZM214.78,316.89c-8.91.36-19.44,5.29-18.79,12.22.32,3.63,3.95,5.94,10.56,5.61a61.78,61.78,0,0,0,34-14.52A81.45,81.45,0,0,0,214.78,317ZM288,248.83c19.8-29.73,42.13-39.94,56.43-44.89-9.24-6.26-23.76-12.55-46.87-12.55-28,0-43.56,13-43.56,27.71s17.5,26.62,34,29.92Zm59,2.95c18.16-2.3,58.35-13.84,60.39-33.65,1-12.54-10.57-17.82-22.69-17.82a48.21,48.21,0,0,0-27,9.1,26.78,26.78,0,0,1,5,10.25c2,6.9,1,12.18.33,12.18s0-3-5-11.54a34.28,34.28,0,0,0-5.29-7.26c-10.89,8.24-22.69,22.43-35,39.94a128.51,128.51,0,0,0,29.2-1Z"/></g></g></svg>