<svg xmlns="http://www.w3.org/2000/svg" viewBox="0 0 121.68 119.8"><defs><style>.cls-1{fill:#136f84;}.cls-2{fill:#fff;}.cls-3{fill:#27cfd5;}</style></defs><g id="Capa_2" data-name="Capa 2"><g id="Capa_1-2" data-name="Capa 1"><rect class="cls-1" width="121.68" height="119.8" rx="13.14"/><path class="cls-2" d="M61.1,16.66c-23.22,0-42.83,19.61-42.83,42.83s19.61,42.82,42.83,42.82,42.82-19.61,42.82-42.82S84.31,16.66,61.1,16.66Zm0,83.2c-21.89,0-40.38-18.49-40.38-40.37S39.21,19.11,61.1,19.11s40.37,18.49,40.37,40.38S83,99.86,61.1,99.86Z"/><path class="cls-2" d="M55,27.88a1.17,1.17,0,0,0-.65-.19l-.28,0A32.63,32.63,0,0,0,29,60.34a32.5,32.5,0,0,0,32.15,31,32.5,32.5,0,0,0,32.15-31c.65-14.95-10.39-29.27-25.16-32.61h0a1.23,1.23,0,0,0-1.46.92,1.22,1.22,0,0,0,.15.93,1.25,1.25,0,0,0,.77.54C81.19,33.2,91.41,46.42,90.8,60.23a29.72,29.72,0,0,1-59.4,0A30.14,30.14,0,0,1,54.64,30.11a1.23,1.23,0,0,0,.77-.54,1.27,1.27,0,0,0,.16-.93A1.21,1.21,0,0,0,55,27.88Z"/><path class="cls-2" d="M26.55,45.27l-.69-6V23.71a1.18,1.18,0,1,0-2.35,0V38.25H20V23.71a1.17,1.17,0,1,0-2.34,0V38.25H14.12V23.71a1.17,1.17,0,1,0-2.34,0v15.7l-.68,5.81a7.86,7.86,0,0,0,3.57,8.06l.47.29L12.75,90.25a5.81,5.81,0,1,0,11.6.39c0-.1,0-.2,0-.3L22.45,53.6l.48-.29a8,8,0,0,0,1.92-1.66A7.83,7.83,0,0,0,26.55,45.27Zm-3.5,4.88a5.55,5.55,0,0,1-2.35,1.64,5.32,5.32,0,0,1-1.87.34,5.51,5.51,0,0,1-5.43-6.5l.59-5h9.65l.59,5A5.57,5.57,0,0,1,23.05,50.15ZM18.54,94.1A3.42,3.42,0,0,1,16,93a3.46,3.46,0,0,1-.93-2.6l2.34-36,.93.06a8.42,8.42,0,0,0,.87,0l.93-.05,1.85,36v.19A3.46,3.46,0,0,1,18.54,94.1Z"/><path class="cls-1" d="M23.05,50.15a5.55,5.55,0,0,1-2.35,1.64,5.32,5.32,0,0,1-1.87.34,5.51,5.51,0,0,1-5.43-6.5l.59-5h9.65l.59,5A5.57,5.57,0,0,1,23.05,50.15Z"/><path class="cls-1" d="M18.54,94.1A3.42,3.42,0,0,1,16,93a3.46,3.46,0,0,1-.93-2.6l2.34-36,.93.06a8.42,8.42,0,0,0,.87,0l.93-.05,1.85,36v.19A3.46,3.46,0,0,1,18.54,94.1Z"/><path class="cls-2" d="M102.75,96.44a5.33,5.33,0,0,0,5.33-5.33V23.71a1.18,1.18,0,0,0-.78-1.11,1.32,1.32,0,0,0-.39-.06A1.19,1.19,0,0,0,106,23c-1,1.15-1.86,2.29-2.7,3.4a43.26,43.26,0,0,0-8.71,26v4.48a5.53,5.53,0,0,0,5.27,5.53l1,0-3.4,28a5.34,5.34,0,0,0,5.29,6ZM100.13,60a3.19,3.19,0,0,1-3.19-3.19V52.34a41.14,41.14,0,0,1,7.09-23l1.7-2.48V60ZM99.79,90.7l3.44-28.34h2.5V91.11a3,3,0,0,1-3,3,3,3,0,0,1-3-3.4Z"/><path class="cls-1" d="M100.13,60a3.19,3.19,0,0,1-3.19-3.19V52.34a41.14,41.14,0,0,1,7.09-23l1.7-2.48V60Z"/><path class="cls-1" d="M99.79,90.7l3.44-28.34h2.5V91.11a3,3,0,0,1-3,3,3,3,0,0,1-3-3.4Z"/><path class="cls-2" d="M56.35,70.18A3.93,3.93,0,0,1,53.53,69a3.83,3.83,0,0,1,0-5.49,3.83,3.83,0,0,1,2.82-1.16,3.78,3.78,0,0,1,2.8,1.16,3.78,3.78,0,0,1,0,5.49A3.88,3.88,0,0,1,56.35,70.18Zm-2.57,10.1L65.52,62.71h2.85L56.63,80.28Zm4.21-14a1.75,1.75,0,0,0-1.64-1.76,1.7,1.7,0,0,0-1.64,1.76,1.64,1.64,0,1,0,3.28,0ZM68.63,74a3.65,3.65,0,0,1,1.16,2.75,3.72,3.72,0,0,1-1.16,2.77,4.1,4.1,0,0,1-5.65,0,3.76,3.76,0,0,1-1.16-2.77A3.65,3.65,0,0,1,63,74a4.07,4.07,0,0,1,5.65,0Zm-1.16,2.75A1.73,1.73,0,0,0,65.8,75a1.66,1.66,0,0,0-1.64,1.74,1.68,1.68,0,0,0,1.64,1.76A1.72,1.72,0,0,0,67.47,76.71Z"/><path class="cls-3" d="M57.93,44l-2.12,1.82A6.08,6.08,0,0,0,51,43.67a6.19,6.19,0,1,0,4.82,10.19L58,55.69A9,9,0,0,1,51,58.86a9.24,9.24,0,0,1-6.58-2.55,9.11,9.11,0,0,1,0-12.89A9.14,9.14,0,0,1,51,40.84,8.78,8.78,0,0,1,57.93,44Z"/><path class="cls-3" d="M64.84,50.89c2.12-.2,2.87-.48,2.87-1.45,0-.78-.7-1.37-2.1-1.37a4.2,4.2,0,0,0-3.37,1.64l-1.85-1.57a5.94,5.94,0,0,1,5.17-2.57c3.13,0,5.08,1.5,5.08,4.07v5.57c0,.88.32,1,1,1h.07v2.32a2.8,2.8,0,0,1-1.4.28,2.16,2.16,0,0,1-1.6-.6,2.27,2.27,0,0,1-.45-.83A5.31,5.31,0,0,1,64,58.91c-2.78,0-4.65-1.52-4.65-3.82C59.39,52.51,61.11,51.21,64.84,50.89Zm-.35,5.47c2,0,3.22-.9,3.22-2.5v-1.4a1.46,1.46,0,0,1-.62.38,8.3,8.3,0,0,1-2.15.37c-1.75.2-2.63.75-2.63,1.63S63.11,56.36,64.49,56.36Z"/><path class="cls-3" d="M73.29,41.14h3v13.3c0,1.22.4,1.75,1.5,1.75a3.39,3.39,0,0,0,.9-.1v2.67a5.43,5.43,0,0,1-1.43.15c-2.65,0-4-1.35-4-4.07Z"/></g></g></svg>