<?xml version="1.0" encoding="utf-8"?>
<svg version="1.1" id="Capa_1" xmlns="http://www.w3.org/2000/svg" xmlns:xlink="http://www.w3.org/1999/xlink" x="0px" y="0px"
	 viewBox="-606 762.1 352 298.5" style="enable-background:new -606 762.1 352 298.5;" xml:space="preserve">
<style type="text/css">
	.st0{fill:#007F99;}
	.st1{fill:#3EB5C8;stroke:#3EB5C8;stroke-width:0.828;stroke-miterlimit:10;}
	.st2{fill:#FFFFFF;}
</style>
<g>
	<g>
		<path class="st0" d="M-292.3,772.9c-0.3-0.9,1.1-2.1,1.9-1.4C-289.9,772.4-291.5,773.3-292.3,772.9L-292.3,772.9L-292.3,772.9z
			 M-287.9,773.6c2.3-0.3,4.6-0.4,6.9-0.5c-1.4,1.1-2.7,2.3-4.2,3.1c-3,1-6.6,0-9.1,2.2c-3,2.9-4.1,7-5,10.9
			c-0.7,3.9-1.5,8.2,0.6,11.7c1.2,2.8,4.4,4,7.2,4.4c3.1,0.3,6.7,0.2,9-2.2c3-3,5.3-7,5.5-11.3c0.1-5.5-4.4-9.9-3.9-15.5
			c2.1,0.2,4.2,0.5,6.1,1.5c1-0.7,2.1-1.4,3.2-2c0.5,1.6-1.4,2.5-2.2,3.7c2,4.4,3.8,9.6,1.6,14.3c2.2-1.7,6-2,7.9,0.4
			c-2.8,0.9-5.8,1.1-8.6,2c-1.1,1.1-1.7,2.6-2.7,3.8c-2.4,3.4-6.2,5.4-9.8,7.4c-4.6,2.5-10.5,2.3-15.1-0.3c-2.6-1.6-3.7-4.7-4.5-7.5
			c-2.4,1.7-5.5,1.5-8.3,1.7c-0.8,0.2-1.4-0.2-1.7-1c3-1.8,6.5-2.4,9.9-2.7c0.4-5.1,1.3-10.4,3.7-15c1.2-2.3,3.1-4.1,5.3-5.4
			C-293.6,775.6-291,774-287.9,773.6L-287.9,773.6L-287.9,773.6z M-492.7,762.5c2.2-1,4.5,0.1,5.8,1.9c4.3,5.2,9.2,9.8,13.7,14.7
			c5.1,6.1,10.3,12.2,16.3,17.5c7.2,6.3,14.3,12.8,22.3,18c4.8,3.1,10.3,4.7,15.8,5.8c5.6,1.1,11.3,1.1,16.9,2.4
			c1.2,1.5,0.2,3.4-1.1,4.4c-3.1,2-6.8,3.1-10.5,2.5c-4.5,0-9-1.2-13.4-1.6c0.7,0.3,1.5,0.6,2.2,0.9c-3,2-6.4,3.1-9.7,4.6
			c-4.2,1.8-8.6,3.1-13.1,4.3c-0.3-0.7-0.7-1.3-1-2c2.4-1.6,4.4-3.8,7.1-5c4.6-1.1,9-2.9,13.8-3.3c-6.4-1-12.6-3.6-17.8-7.5
			c-9-6.7-17.3-14.2-25.2-22.1c-3-3.1-5.6-6.6-8.4-9.9c-4.6-5.8-9.9-11-14.7-16.6c-5.1,5.5-9.5,11.7-14.8,17.1
			c-4.7,4.6-9.5,9.1-14.2,13.7c-4.1,4-7.6,8.6-12.1,12.2c-9,7.5-17.5,15.7-25.9,23.9c-4.1,4-8.6,7.6-13.1,11.2c-2.5,2-5.7,2.7-8.5,4
			c-0.4-0.6-0.7-1.3-1.1-1.9c8.4-5.8,15.6-13.1,22.9-20.2c5.6-5.3,11.2-10.6,17.1-15.5c4.7-3.8,8.4-8.6,12.7-12.8
			c4.1-4,8.3-7.9,12.4-11.9c6.1-6,11.1-13,16.8-19.3C-498.7,768.8-496.9,764.3-492.7,762.5L-492.7,762.5L-492.7,762.5z
			 M-309.4,777.7c3.3-0.7,6.4,1.1,8.5,3.5c-1,0.6-2,1.2-2.9,1.7C-305.7,781.2-308.2,780-309.4,777.7L-309.4,777.7L-309.4,777.7z
			 M-275.2,805.9c1.1-0.8,2.3-1.6,3.5-2.2c1.7,1,2.6,2.9,3.2,4.7C-271,808.5-273.3,807.4-275.2,805.9L-275.2,805.9L-275.2,805.9z
			 M-289.8,811.8c1.3-0.8,2.7-1.6,4-2.4c2,2.2,3.4,4.9,4.2,7.8c-1.5-0.4-3.1-0.7-4.5-1.4C-287.6,814.8-288.6,813.2-289.8,811.8
			L-289.8,811.8L-289.8,811.8z M-529.4,814c2.9-1.6,6.2-2.6,9.2-4c0.4,0.5,0.9,1,1.3,1.6c-2.7,3.2-4.7,7-5.5,11.1
			c-1.3,7.7-0.3,15.6,1.2,23.1c2.4,12.4,0.9,25-0.8,37.4c-2.2,18-8.5,35.2-14.7,52.1c-1.9,4.6-4.1,9.5-8.8,11.9
			c3.9,0.1,8.1,0.3,11.5,2.5c3.5,2.1,5.3,6.7,9.8,7.3c8.6,1.2,17.1-1.7,25.4-3.6c3.1-0.7,6.7-2.5,9.7-0.5c2.9,2,4.5,5.8,8.1,6.7
			c6.3,1.9,13.1,0.8,19.5,2.4c2.7,0.7,4.8,2.7,7.4,3.8c1.7,0.5,3.4,0.6,5.2,0.6c6.6-0.3,13.1-1.8,19.6-2.4c4,0.3,7.8,1.5,11.8,1.4
			c9.1,0,18.1-2,27.2-2.8c6.1-0.1,12.3-0.4,18.4,0.8c4.4,0.8,8.7,1.8,13,2.6c11,1.8,22.2,0.6,33.3,1.3c3.7,0.2,6.5,3,10,4
			c7.4,2.1,15.1,1.5,22.6,2.5c2.6,0.4,4.9,1.8,7.4,2.5c3.9,0.9,7.9,0.1,11.8,0.7c5,0.8,10.1,1.4,15.2,1c2.2-0.2,4.4,0,6.6,0.2
			c-0.8,4.8-5.8,6.7-9.7,8.2c-6.9,0.9-14,0.7-20.9-0.5c-5.1-0.8-10.6,0.5-15.3-2c-3.9-2-8.5-1.7-12.8-2c-4.9-0.3-9.8-0.7-14.5-2.1
			c-3-0.8-5.5-3-8.5-3.7c-11.6-1.3-23.5,0.6-35-1.7c-5.1-0.8-10-2.3-15.2-2.8c-3.8-0.4-7.7-0.4-11.6-0.3c-12.7,0-25.3,4.3-38,2
			c-2.1-0.3-4.3-0.6-6.4-0.4c-5.5,0.6-11.1,1.6-16.6,2c-3.1,0.2-6.5-0.1-9.2-1.7c-2.3-1.3-4.6-2.9-7.3-3.2c-6-0.9-12.2-0.2-18-2.2
			c-3.3-1.1-5.4-4.1-7.8-6.5c-0.9-1-2.4-0.6-3.6-0.4c-7.9,2-15.8,4.2-24,4.9c-3.6,0.2-7.3-0.1-10.6-1.8c-2.8-1.5-4.2-4.6-6.8-6.3
			c-3.3-2.4-7.7-2.2-11.6-2.2c-7.9,0.1-15.5,2.5-23.1,4.3c-8.4,1.8-16.1,6.1-24.2,8.9c-0.4-0.6-0.8-1.2-1.1-1.8
			c3.8-2.7,7-6.3,11.5-7.8c6.6-2.4,12.8-5.8,19.7-7.5c6-1.4,11.8-3.1,17.9-4.2c4.6-7.6,7.3-16.2,10.4-24.5c3.6-9.8,6.5-19.8,8.5-30
			c2-11.4,3.6-22.9,3.4-34.4c-0.2-7.9-2.3-15.7-1.9-23.7C-536.5,827.6-534.7,819.6-529.4,814L-529.4,814L-529.4,814z M-467.2,817
			c2.8-1.8,6.1-2.7,9.1-4.1c0.4,0.6,0.8,1.2,1.2,1.8c-2.8,3-5,6.5-6.2,10.4c-1.2,4.2-0.7,8.6-0.4,12.9c1.2,12,1.8,24,2.6,36
			c0.2,5.4,0.3,10.8,0.5,16.2c0.1,15.5-2.1,30.8-5.2,45.9c-0.9,3.9-0.9,8-2.3,11.8c-2,2.9-5.3,4.7-8.6,5.4c-1.3,0.5-2.8-0.7-2.7-2.1
			c0-2,0.4-3.9,0.7-5.9c2.2-12,4.8-24,5.7-36.1c1.5-16.2,0-32.5-0.5-48.7c-0.2-8.5-1.4-17-1.4-25.5
			C-474.7,828.4-471.7,821.9-467.2,817L-467.2,817L-467.2,817z M-506.3,838.4c3-3.1,7.8-2.1,11.6-1.6c3,0.7,7.1,0.9,8.3,4.3
			c1.2,3.4,0.9,7.1,1,10.6c0.1,3.7-0.5,7.8,1.9,10.9c-2.5,1-4.8,2.2-7.2,3.5c-3.2,0.5-5.9-1.4-8.6-2.8c-1.2-0.7-2.8-1.7-2.5-3.3
			c0.3-1.1,0.7-2.3,1.5-3.2c2.4-0.9,5.1-0.8,7.6-0.5c-0.2-3.7,0.2-7.4-0.6-11c-0.8-2.3-3.6-2.1-5.5-2.6c0.1,3.5,0.2,7-0.1,10.5
			c-2.9,1.1-5.4,2.8-8,4.4c-1-3.7-0.5-7.6-0.9-11.4C-507,843.7-508.5,840.5-506.3,838.4L-506.3,838.4L-506.3,838.4z M-553.6,841.5
			c2-1,4.3-0.5,6.4-0.4c-8.1,6.3-18,9.7-27.2,13.9c-0.4-0.7-0.7-1.3-1-2c2.7-1.9,5-4.5,8.2-5.6
			C-562.5,845.7-558.1,843.5-553.6,841.5L-553.6,841.5L-553.6,841.5z M-382.7,852.9c2.6-1.4,5.5-2.3,8.3-3.4
			c0.7,0.5,1.3,1.1,2.2,1.3c3.6,1,7,2.6,10.4,4c-1.6,1.1-3.1,2.1-4.8,3.1c3.1,2,3.2,6.1,2.3,9.3c-1.5,5-5.5,8.6-9.1,12.2
			c-1.8,5.7-2.7,11.7-4.3,17.5c2.7,2.4,5.6,4.7,8.6,6.8c2.7,1.9,5.9,3.1,8.3,5.4c1.4,1.5,0.3,3.9-1.2,4.9c-2.5,1.1-5.5,1.2-8,0
			c-3.8-1.8-7.2-4.3-10.5-6.8c-1.3,4.8-2.7,9.7-4.2,14.5c-0.3,1.1-1,1.9-1.7,2.8c2.2,0.6,3.7,2.3,4.9,4.2c2.1,3.3,4.1,6.9,4.9,10.8
			c-0.9,2.7-3.5,4.2-6.2,4.6c-1.6,0.3-3.1-0.9-3.6-2.3c-1.1-2.9-1.9-5.9-3.1-8.8c-2,2.4-13.4,15-16.5,10.6c-3.1-4.6,9.5-13,10-16.3
			c2-4.7,3.1-9.7,4.6-14.6c1-3.6,2.3-7.2,3.1-10.9c-3.3,1.3-6.3,3.4-9.6,4.7c-1.8,0.7-3.6,0.4-5.4,0.1c-1-1.7-1-4,0.8-5.3
			c5.3-3.8,11.3-6.5,17-9.7c1-2.4,1.3-4.9,2-7.4c-2.7,0-5.7-0.9-7-3.5c-2-3.6-1.8-8-1.5-11.9C-391.3,862.5-387.8,856.5-382.7,852.9
			L-382.7,852.9L-382.7,852.9z M-379.7,858.5c-2.2,4.5-2.7,9.6-1.8,14.5c0.2,1.8,1.3,3.3,2.9,4.2c2-2.3,3.9-4.8,4.6-7.9
			c0.7-2.9-0.1-5.8-0.3-8.7C-376.1,859.9-377.9,859.2-379.7,858.5L-379.7,858.5L-379.7,858.5z M-308.4,852.5c3.1-1.6,6.7-1,9.9-0.3
			c3.5,0.9,5.3,4.7,5.4,8.1c1.8,2.6,0.5,5.7,0.1,8.5c-0.7,3.6,3.8,6.5,2.2,10.1c-0.7,2-3,2.3-4.8,2.7c-1.8,0.5-3.4-0.6-4.7-1.8
			c-3.5,2.6-7.3,4.9-11.2,6.8c-1.2,4-2.9,8.1-2.6,12.4c1.9,0.6,3.9,1.1,5.9,1.7c1.3,0.3,6.5,2.9,7.1,3.9c2.9,4.4,0.9,7.7-6.7,5.8
			c-2-0.5-12.6-3.3-14.8-4.5c-2.3-1.2-7,3.5-8.8,6.6c-1,1.7-1.3,3.8-1,5.7c0.5,1.9,2.5,2.8,4.3,3.1c2.8,0.5,5.1-1.3,7.6-2.2
			c2-0.7,4-1.7,6-2.4c-1.4,7.4-3.5,14.8-5.8,22c1.4,0.2,8.2,12,7,13.2c-1.5,1.7-4,2.4-6.3,2.1c-2.3-1-2.8-3.8-4.3-5.6
			c-3-3.8-2.4-2.3-3.2-3.1c-1.8,1-7.8,5.8-9.9,5.9c-4.3,0.1-8.6-2.5-4.8-5.9c2.5-2.2,12.2-1.7,14.1-8.2c1.7-5.7,0.8-5.5,2.4-11.2
			c-3.5,1.8-7.5,3.5-11.5,2.4c-2.9-0.7-5.9-2.9-6.2-6.1c-0.5-3.3,0.4-6.7,2.5-9.3c3.5-4.9,8.2-8.9,13.4-11.9
			c-2.3-2.4-6.9-11.2-5.8-8c-4.2-11.9,0.1-9.2,3.2-10.9c0.7,1.4,7.5,8.5,8.3,9.9c0.4-1.5,0.8-3.1,1.2-4.6c-2.6-1.1-5.3-2.6-6.3-5.3
			c-2.4-6-1.4-13,1.8-18.5c1.5-2.8,4.5-4.3,7.2-5.8C-314.5,855.9-311.4,854.3-308.4,852.5L-308.4,852.5L-308.4,852.5z M-315.1,862.4
			c-2.1,4.3-2.7,9.5-1.1,14c0.7,2,2.5,3,4.4,3.7c0.5-0.1,0.9-0.3,1.4-0.4c0.8,0.1,1.8,0.8,2.5,0c2.3-2.1,4.1-4.8,4.7-7.9
			c0-3.5-0.7-6.9-1.1-10.4c0.3-0.3,0.8-0.8,1.1-1.1C-306.4,857.2-313.2,857.9-315.1,862.4L-315.1,862.4L-315.1,862.4z M-275.9,892.7
			c5.1-2.7,10.9-3.5,16.4-4.9c0.3,0.6,0.6,1.3,1,1.9c-2.9,2.1-5.7,4.5-8.7,6.4c-2.4,0.8-5,1.1-7.4,1.8c-1.2,3.2-2.6,6.5-2,10
			c0.2,1.3,1.8,1.9,3,1.8c2.8-0.1,4.4-3,5.5-5.3c0.7-2.8-0.1-6.5,2.5-8.5c2.4-0.9,5.1-1.4,7.6-0.7c2.9,1.3,2.5,5.3,1,7.6
			c-3.3,6.1-10,8.9-15.8,12.1c-1.1,1.5-1,3.7-1.5,5.5c3.8,0.7,7.6,0.2,11.4,0.8c-3,4.5-7.9,7.5-13.2,8.2c-1.2,2.7-1.6,5.6-2.6,8.4
			c2.1-0.5,4.4-0.4,6.1,1.1c1.7,1.4,4.2,2.3,4.8,4.6c-1.4,2.7-4.3,4.5-7.2,5.1c-2.8,0.6-4.8-2-7-3.3c-1.6,1.3-3.6,2.1-5.6,1.3
			c-2.1,1-4.1,2.5-6.4,3.1c-1.3,0.4-2.3-0.7-3.4-1.2c0.2-3.2,2.1-6,4.4-8.1c2-1.3,4.4-1.8,6.5-3c0.9-2.9-0.6-10.4,2-8.8
			c-22.5-13.1-12.2-18.5-7.2-13.6c2.3,2.2,5.7,2.8,8.8,3.8c0.4-0.5,0.8-1,1.3-1.6c-2.3-0.5-4.6-1.9-5.2-4.3c-0.8-4.6,0.8-9.1,2-13.5
			C-282.5,896.3-279.2,894.3-275.9,892.7L-275.9,892.7L-275.9,892.7z M-510.6,914.1c3.6-2.7,8-5.2,12.7-4.2c3.8,0.8,6.2,4.1,8.4,7
			c1.7,2.2,1.3,5.1,0.8,7.6c-0.8,3.9-1.9,7.7-3.1,11.5c-0.9,3.4-3.9,5.8-6.7,7.7c-1.5,0.1-2.9-0.3-4.3-0.6c0.2-6.4,3.9-12.1,4-18.5
			c-0.8-3.2-3.8-5.6-6.7-7c-2.4,9.7-5.1,19.4-7.6,29.1c-4.4,2.1-8.8,4.1-13.2,6.2c2.3-7.5,4.4-15,6.1-22.7c0.9-3.4,1.4-7,3-10.2
			C-515.6,917.4-512.8,915.9-510.6,914.1L-510.6,914.1z"/>
	</g>
	<g>
		<g>
			<path class="st1" d="M-533,997.6c-6-3.5-13.3-5-20.2-4.2c-12.6,1.3-23.8,10.7-27.5,22.7c-2.7,8.3-2,17.7,2,25.4
				c3.7,7.3,10.2,13.2,17.9,16c7,2.6,15,2.8,22.1,0.3c7.3-2.5,13.6-7.6,17.5-14.2c4.7-7.7,6-17.2,3.7-25.9
				C-519.8,1009.4-525.5,1001.9-533,997.6z"/>
			<path class="st2" d="M-537.7,1030.3c-0.8,0.4-1.5,0.9-2.3,1.4c2.3,2.4,3.7,5.5,5.6,8.2c-2.5,0-5,0-7.4,0c0.4-1.3,0.8-3.2-0.6-3.9
				c-2-0.6-4.2,0.2-6,1.2c0.3,0.9,0.8,1.7,0.6,2.6c-1.5,0.7-3.4,0.4-5.1,0.3c-3.2-2.5-6.2-5.2-9-8.2c6.3,0.3,12.6,1,19,0.6
				c2.1-0.5,4.9-1.7,4.7-4.3c0-4,0.2-7.9,0.6-11.8c-6.1-0.2-12-1.6-18-2.4c-2.2-0.3-4.5-1.3-6.7-0.3c0.1,0.4,0.2,0.9,0.4,1.3
				c-0.4,1.6-0.6,3.2-0.8,4.8c-0.3,3.7-1.2,7.3-1.3,11.1c-0.5,0.3-0.9,0.7-1.4,1c2.3,2.2,4.5,4.5,7,6.5c1,0.8,1.7,1.8,2.2,2.9
				c2.1,1.1,4.6,0.7,6.9,0.6c4.8-0.3,9.7-0.1,14.5-0.3c1.5,0,3.1-0.5,4.1-1.8c-0.8-1.6-2-2.9-2.9-4.5
				C-535.1,1033.6-536,1031.6-537.7,1030.3z M-560,1015c6.7,0.8,13.3,2.4,20.1,2.8c-0.4,2.5-0.8,5.1-0.8,7.6
				c-0.1,1.7,0.1,3.5-0.4,5.1c-6.9,0.5-13.9-0.5-20.8-0.6C-561.2,1025-560.6,1020-560,1015z M-546.7,1039.8c0.9-0.6,1.7-1.4,2.2-2.3
				c0.3,0.1,0.6,0.2,0.9,0.3c0.1,0.8,0.2,1.5,0.2,2.3C-544.5,1040-545.6,1040.1-546.7,1039.8z"/>
		</g>
		<g>
			<path class="st1" d="M-370,997.7c-6.4-3.8-14-5.2-21.3-4.1c-13.2,1.8-24.6,12.5-27.4,25.5c-2.1,9.3-0.1,19.5,5.7,27.2
				c4.9,6.7,12.3,11.4,20.5,12.9c7,1.3,14.5,0.3,20.9-3c7.2-3.7,12.9-10.1,15.8-17.7c2.9-7.4,2.9-15.9,0.2-23.4
				C-358.2,1007.8-363.4,1001.5-370,997.7z"/>
			<path class="st2" d="M-377,1047.7c-3.7-0.1-7.7-0.9-10.6-3.4c-2.8-3.2-2.7-7.7-2.7-11.7c0.1-1.6-0.3-3.7,1.3-4.7
				c4-3.8,8.7-7,11.8-11.7c1.3-1.9,1.6-4.2,2.2-6.4c0.3-1.8,0.8-3.8,0.1-5.5c-1-1.4-2.7-2.2-4.4-2.5c-2.3,0.2-4.2,1.7-5.7,3.3
				c1.2-0.5,2.3-1.3,3.5-1.6c1.8,0.2,4.2,1.2,4.3,3.3c0.1,2.8-0.7,5.5-1.4,8.1c-1.2,3.1-3.7,5.6-6.1,7.9c-2.5-0.4-5-0.9-7.5-0.3
				c-1.4,0.4-2.2-1.1-3.2-1.7c-2.9-1.8-4.1-5.2-5.1-8.3c-0.8-2.8,0.8-5.5,2.3-7.7c1.7-1.1,3.9-0.8,5.5,0.3c0.7-0.5,1.4-0.9,2.1-1.4
				c-1.3-1.8-3.7-1.5-5.6-0.8c-4.4,1.1-7.4,5.8-7.1,10.2c0.6,2.7,1.7,5.4,3.4,7.6c2.6,2.5,5.9,4.4,8.2,7.3c-0.6,1.5-1.5,3-1.3,4.7
				c0,4.4-0.3,9.5,2.7,13.1c2.8,2.7,6.9,3.4,10.6,3.6c-0.2,0.9-0.7,1.8-0.4,2.7c0.5,1.1,1.8,1.3,2.9,1.3c2.1-0.3,3.9-1.6,5.3-3.2
				c0.2-1.1-0.2-2.2-0.3-3.3C-373.7,1046.7-375.3,1047.4-377,1047.7z M-392.4,1023.1c2.2,0.2,4.4,0.4,6.6,0.8
				c-1.1,0.9-2.2,1.7-3.2,2.5C-390.1,1025.3-391.2,1024.2-392.4,1023.1z"/>
		</g>
		<g>
			<path class="st1" d="M-274,1015c-2.5-6.9-7.4-13-13.7-16.9c-6.5-4.1-14.4-5.7-22-4.7c-12.8,1.6-23.9,11.4-27.3,23.8
				c-2.5,8.5-1.5,17.9,2.8,25.7c3.7,6.7,9.8,12.2,16.9,15c8.2,3.3,17.8,3.1,25.8-0.6c6.9-3.1,12.6-8.6,16-15.3
				C-271.3,1033.8-270.8,1023.7-274,1015z"/>
			<path class="st2" d="M-286.6,1034.7c-1.3,0.1-2.5,0.8-3.8,1c-2.7-0.8-5.5-2.3-8.4-1.5c-2.1,0.8-1.3,3.4-2.4,5
				c-0.3,0.8-1.4,1.8-0.7,2.7c1.9,1.6,4.7,2.2,7,1.3c2-0.8,4.1,0.1,6.1,0.2c2.1-0.3,2.9-2.6,4.6-3.4c0.7-0.4,1.4-0.7,2.1-1.1
				C-283,1036.9-284.7,1035.5-286.6,1034.7z"/>
			<path class="st2" d="M-295.5,1028.6c1.4,0.6,2.8,0.2,4-0.6c0.4-2.6-1.5-4.5-2.6-6.6C-294.9,1023.7-297.3,1026.2-295.5,1028.6z"/>
			<path class="st2" d="M-311.6,1016.3c5.5-1.2,11.3-2.2,17-1.5c-0.2,1.2-0.3,2.4-0.4,3.6c0.9-0.4,2.3-0.6,2.7-1.8
				c0.3-1.2,0.3-2.4,0.4-3.6c-1.5-0.4-3-0.7-4.6-0.4c-5.3,0.5-10.7,0.8-15.8,2.7c-1.2-1.6-2.6-3.6-4.9-3.5c-1.6-0.1-2.7,1.1-3.8,2
				c1.7,1,3.8,1.5,5.2,3c-1.8,1.3-4,2.2-5.6,3.8c2.3-0.5,4.2-2,6.4-2.8c1.2,3.9,0.9,8,1,12c0.1,2.9-0.3,5.9-0.4,8.8
				c-1.9,0.2-3.7,1-4.9,2.4c4-0.5,8.5-0.9,11.6-3.7c-1.3,0.2-2.6,0.5-3.9,0.8C-310.9,1030.8-311.4,1023.6-311.6,1016.3z"/>
		</g>
		<g>
			<path class="st1" d="M-452.3,997.1c-6.5-3.6-14.3-4.7-21.7-3.4c-12.6,2.1-23.4,12.2-26.3,24.7c-2,8-0.9,16.8,3.1,24.1
				c4.3,7.9,12,13.9,20.7,16.1c7.6,2,15.8,1.2,22.8-2.2c7.6-3.6,13.7-10.2,16.6-18c2.8-7.1,2.9-15.2,0.5-22.4
				C-439.1,1008-444.9,1001.1-452.3,997.1z"/>
			<path class="st2" d="M-457.5,1020.4c-2.4-0.1-4.5,1.1-6.8,1.5c-1.2,0.3-2.1,1.2-3,2c2.4,0.3,4.5-0.7,6.7-1.3
				C-459.3,1022.2-458.4,1021.2-457.5,1020.4z"/>
			<path class="st2" d="M-477.9,1033c2-0.4,3.9-1.3,5.9-1.1c1.2,0.2,2.1-0.8,3-1.3c-0.9-0.6-1.7-1.3-2.7-1.7
				C-473.7,1030.3-476.4,1030.8-477.9,1033z"/>
			<path class="st2" d="M-473.4,1021c-2.2,0.6-4.8,0.8-6.4,2.7c2.9,0,5.8-0.7,8.3-2.2C-472,1021.4-472.9,1021.1-473.4,1021z"/>
			<path class="st2" d="M-460.4,1029.9c-1-0.4-1.9-0.9-2.9-1.1c-1,0.2-1.9,1-2.8,1.6c1.3,0.5,2.5,1.5,3.8,1.7
				c1.8-0.9,4.3-0.6,5.5-2.4C-457.4,1028.1-459.3,1029.5-460.4,1029.9z"/>
			<path class="st2" d="M-451.8,1026.1c-0.3-4.8,0.8-9.7,0.3-14.5c-5.6-1.4-11.3,0.5-16.4,2.9c-4-3.7-9.8-3.1-14.8-2.9
				c-3.4,0.2-5.3,4.2-4.2,7.2c1.1,3.3,1.7,6.7,2.6,10c1.1,4.4,1.2,9,3.1,13.2c0.4,0.9,1.4,1.7,2.4,1.4c3.7-1.1,7.3-2.7,10.5-4.9
				c1.9,2,4.3,4.1,7.3,3.9c3,0.4,5.4-1.7,8.2-2.5c1.6-0.4,1.9-2.3,1.7-3.7C-451.4,1032.8-451.6,1029.5-451.8,1026.1z M-454.9,1039.3
				c-2.5,0.6-5.5,0.7-7.5-1c-1.5-1.1-2.7-2.9-4.6-3.2c-2.1,0.1-2.8,2.4-4.1,3.7c-1.9,0.9-3.9,1.8-6,1.9c-2.5-4.3-2.5-9.5-3.7-14.2
				c-0.8-2.8-1.1-5.7-2.1-8.5c-0.5-1.4-0.8-2.8-0.9-4.3c4.6-0.1,10.1-0.6,13.4,3.3c4.9-2.3,10.3-4.4,15.8-3.2
				c-0.2,6.1-0.8,12.2-0.2,18.3C-455.1,1034.6-454.1,1037.1-454.9,1039.3z"/>
		</g>
	</g>
</g>
</svg>
