<svg xmlns="http://www.w3.org/2000/svg" viewBox="0 0 627.75 627.75"><defs><style>.cls-1{fill:#108498;}.cls-2{fill:#2feded;}.cls-3{fill:#fff;}</style></defs><g id="Capa_2" data-name="Capa 2"><g id="Capa_1-2" data-name="Capa 1"><circle class="cls-1" cx="313.88" cy="313.88" r="313.88"/><path class="cls-2" d="M230.78,306.3l-19.9,19.83a28.35,28.35,0,1,0,11.39,11.66l20-19.94a8.15,8.15,0,0,0-11.51-11.55ZM197.17,363a12,12,0,1,1,12-12,12.05,12.05,0,0,1-12,12Z"/><path class="cls-3" d="M197.17,232.28A118.64,118.64,0,0,0,78.54,350.91c0,31.23,12.46,60.9,35.1,83.53s52.3,35.1,83.53,35.1c64.3,0,118.63-54.33,118.63-118.64,0-31.23-12.46-60.9-35.09-83.53S228.41,232.28,197.17,232.28Zm103.05,111H277.87a7.66,7.66,0,0,0,0,15.31h22.35l0,.54a102.42,102.42,0,0,1-24.42,58.82l-.35.41-15.76-15.76a7.65,7.65,0,0,0-10.82,10.82l15.76,15.76-.41.35a103.14,103.14,0,0,1-134,0l-.41-.35,15.77-15.77a7.65,7.65,0,0,0-10.82-10.82l-15.77,15.77-.35-.42A102.4,102.4,0,0,1,94.17,359.1l0-.54h22.35a7.66,7.66,0,0,0,7.65-7.65,7.65,7.65,0,0,0-7.65-7.65H94.12l0-.54a102.46,102.46,0,0,1,24.41-58.82l.35-.41,15.77,15.77a7.76,7.76,0,0,0,10.82,0,7.67,7.67,0,0,0,0-10.82l-15.77-15.77.41-.35A102.47,102.47,0,0,1,189,247.9l.54,0v22.35a7.65,7.65,0,0,0,15.3,0V247.86l.54,0a102.44,102.44,0,0,1,58.82,24.42l.41.35-15.76,15.76a7.65,7.65,0,0,0,0,10.82,7.76,7.76,0,0,0,10.82,0l15.76-15.76.35.41a102.41,102.41,0,0,1,24.42,58.81Z"/><path class="cls-3" d="M299.39,469.71l.28.17,3.67,2.14c5.64,3.31,11.48,6.74,17.34,9.89,5.15,2.78,11.95,2.22,17.3-1.43,33.86-19,62.44-37.27,87.41-55.91,35.95-27.14,61.19-52.18,79.42-78.82,17.74-25.81,27.42-53.59,28-80.34v-8.58c-1-14.43-3.67-26.77-8-37.68-10.33-27.18-31.89-49.86-57.66-60.67h0c-17.85-7.78-39-10.09-61.06-6.68a132.23,132.23,0,0,0-77.67,41.55l-.37.41-.37-.41c-29.64-32.76-76.27-48.91-118.82-41.14a102.78,102.78,0,0,0-66.37,45.13A7.54,7.54,0,0,0,145.56,208c3.83,2.09,8.48-.15,10.29-3.46a87.45,87.45,0,0,1,43.31-34c15.31-5.62,32.91-6.69,52.32-3.19A116.27,116.27,0,0,1,320.3,208.1l.35.42c1.56,1.93,3.18,3.92,5.58,4.45a7.64,7.64,0,0,0,8-2.88A121.52,121.52,0,0,1,348,195.32c25.45-23.16,62-34.07,95.33-28.47a87.37,87.37,0,0,1,56.77,36.84c14.6,21,20.53,48.85,16.26,76.34-3.7,23.72-15.34,47.86-34.6,71.74-20.92,25.7-47.42,49-85.94,75.5-18.92,12.94-39.65,25.67-67.21,41.27l-.24.14-.24-.13c-7.23-3.77-14.37-8-21.27-12.06l-1.13-.67a8.23,8.23,0,0,0-4.43-1.32,7,7,0,0,0-3.7,1,7.57,7.57,0,0,0-3.07,9.68C295.39,467.31,297.42,468.53,299.39,469.71Z"/><path class="cls-2" d="M431,184.33c-3.77-.26-7.66-.89-11.41-.11-5.15,1.38-7.43,8.35-4,12.5,1.88,2.7,5.3,3.38,8.38,3.28a53.74,53.74,0,0,1,37.39,16.05c12.34,12.56,18.71,30.26,19,47.72a8.25,8.25,0,0,0,6.78,8.71,8,8,0,0,0,9.29-7.69c.24-27.07-12.37-55.06-35.5-70A69.73,69.73,0,0,0,431,184.33Z"/></g></g></svg>