<svg xmlns="http://www.w3.org/2000/svg" viewBox="0 0 491.15 165.15"><defs><style>.cls-1{fill:#108498;}.cls-2{fill:#fff;}.cls-3{fill:#2feded;opacity:0.65;}</style></defs><g id="Capa_2" data-name="Capa 2"><g id="Capa_1-2" data-name="Capa 1"><rect class="cls-1" width="491.15" height="165.15" rx="15.91"/><path class="cls-2" d="M247.3,130.05l-9.9-9.88,9.9-9.88a1.48,1.48,0,0,0,.43-1.05,1.45,1.45,0,0,0-.43-1l-9.9-9.88,9.9-9.88a1.51,1.51,0,0,0,0-2.11L235,74.07a1.5,1.5,0,0,0-2.1,0L212.12,94.89,171.05,53.81,191.85,33a1.48,1.48,0,0,0,0-2.11L179.6,18.7a1.47,1.47,0,0,0-2.09,0l-9.88,9.83-9.89-9.83a1.47,1.47,0,0,0-2.09,0l-9.88,9.83-9.88-9.83a1.48,1.48,0,0,0-2.1,0l-12.2,12.21a1.49,1.49,0,0,0,0,2.1l9.83,9.87-9.83,9.89a1.47,1.47,0,0,0,0,2.09l9.83,9.88-9.83,9.88a1.48,1.48,0,0,0,0,2.1L133.79,89a1.49,1.49,0,0,0,1.05.44h0a1.49,1.49,0,0,0,1-.44L156.7,68.16l41.07,41.08L177,130.05a1.48,1.48,0,0,0,0,2.1l12.25,12.26a1.52,1.52,0,0,0,2.1,0l9.88-9.9,9.88,9.9a1.48,1.48,0,0,0,1.05.44,1.49,1.49,0,0,0,1-.44l9.88-9.9,9.88,9.91a1.48,1.48,0,0,0,1,.43h0a1.47,1.47,0,0,0,1.05-.43l12.27-12.27a1.49,1.49,0,0,0,.44-1.05A1.48,1.48,0,0,0,247.3,130.05ZM186.07,32,134.84,83.18l-7.51-7.51,51.23-51.23ZM134.84,61.32l-7.51-7.51L156.7,24.44,164.21,32Zm0-21.86L127.33,32l7.51-7.51L142.35,32ZM241.49,87.38,190.26,138.6l-7.51-7.5L234,79.87ZM167.63,57.23,208.7,98.31l-7.51,7.51L160.12,64.74Zm73.86,52-29.37,29.37-7.51-7.51L234,101.73Zm0,21.86L234,138.61l-7.51-7.51,7.51-7.51Z"/><polygon class="cls-1" points="223.8 142.35 214.52 20.77 296.57 20.77 286.92 142.35 223.8 142.35"/><path class="cls-2" d="M239,124.71a2.5,2.5,0,0,1-2.5-2.35l-.46-8a2.5,2.5,0,1,1,5-.29l.46,7.95a2.49,2.49,0,0,1-2.34,2.64Z"/><path class="cls-3" d="M271.58,70.91a30.8,30.8,0,0,1-17.43-5.39c-14.91-10-30.4-.38-31.05,0a2.5,2.5,0,0,1-2.7-4.21c.77-.49,18.86-11.81,36.54,0,14.89,10,30.06.39,30.7,0a2.5,2.5,0,0,1,2.73,4.19A37.31,37.31,0,0,1,271.58,70.91Z"/><path class="cls-2" d="M237.65,104.2a2.51,2.51,0,0,1-2.5-2.36l-1.3-23.65a2.5,2.5,0,0,1,5-.27l1.3,23.65a2.51,2.51,0,0,1-2.36,2.63Z"/><path class="cls-2" d="M286.92,144.85H223.8a2.5,2.5,0,0,1-2.49-2.31L212,21a2.53,2.53,0,0,1,.66-1.89,2.5,2.5,0,0,1,1.83-.8h82a2.52,2.52,0,0,1,2.49,2.7l-9.65,121.58A2.5,2.5,0,0,1,286.92,144.85Zm-60.8-5h58.49l9.25-116.58H217.22Z"/><path class="cls-1" d="M283.59,37.52c-2.22-2.3,0-6.52,3.12-6.06,2.43,0,3.67,2.51,4.91,4.23,2.75,4,3.64,8.89,4.32,13.62,3.59,1.35,7.25,3.24,9.08,6.8,3.59,6.7,4.16,14.5,7.43,21.35,2.66,7.16,8.44,12.47,11.74,19.29,4.73,8.85,7.48,19.5,4.23,29.3-2.59,7.21-8.27,13.77-15.8,16-8,2.35-16.22-1.18-24.36,0-6.37.8-13.26,1.8-19.25-1.2-10-5.08-15.28-17.15-13.55-28a56.77,56.77,0,0,1,12.07-26.68c5.84-7.83,7.7-17.57,10.65-26.65,1.49-5,5.6-8.48,10.4-10.18A25.29,25.29,0,0,0,283.59,37.52Z"/><path class="cls-2" d="M338.19,36.35a30.55,30.55,0,0,0-29.63-4.52c-5.26,2-10.28,7.39-9.71,13.93l0,.2a10.48,10.48,0,0,0,.61,2.13c-.43-.21-.86-.4-1.29-.58-.71-4.52-1.76-9.18-4.55-13.28-.17-.24-.35-.5-.52-.76-1.18-1.75-3-4.37-6.22-4.5a6.21,6.21,0,0,0-5.22,10.19,21.87,21.87,0,0,1,4,8.63,17.94,17.94,0,0,0-9.93,10.94c-.66,2-1.27,4.1-1.85,6.1-2.13,7.24-4.14,14.07-8.37,19.76A59,59,0,0,0,253,112.44c-2,12.37,4.29,25.25,14.9,30.64,6.46,3.23,13.68,2.33,20,1.52l.69-.08a40.19,40.19,0,0,1,10.23.3,65.29,65.29,0,0,0,7.45.56,24.86,24.86,0,0,0,7-.93c7.8-2.31,14.32-8.87,17.46-17.61,3-9.17,1.48-20.26-4.38-31.22a61.84,61.84,0,0,0-5.58-8.84c-2.41-3.36-4.68-6.54-6-10.19l-.09-.21a56.72,56.72,0,0,1-3.26-9.68A55.64,55.64,0,0,0,307.24,55a.35.35,0,0,0-.05-.08,13.38,13.38,0,0,0,2.9.64,24.86,24.86,0,0,0,3.22.2,28.94,28.94,0,0,0,25.57-16.34A2.5,2.5,0,0,0,338.19,36.35ZM310.14,78.44c1.6,4.23,4.15,7.8,6.62,11.25a56.13,56.13,0,0,1,5.17,8.15.31.31,0,0,1,.05.1c5.23,9.75,6.67,19.46,4.09,27.27-2.55,7.08-8,12.61-14.15,14.44-4,1.16-8.12.7-12.51.2a68.37,68.37,0,0,0-7.5-.56,27.94,27.94,0,0,0-4,.27l-.65.08c-5.93.75-12.07,1.52-17.16-1-8.71-4.43-13.85-15.11-12.21-25.42a54.23,54.23,0,0,1,11.6-25.55c4.83-6.48,7.06-14.07,9.21-21.41.58-2,1.18-4,1.83-6,1.16-3.85,4.38-7,8.84-8.54A2.49,2.49,0,0,0,291,48.92a27.6,27.6,0,0,0-5.49-13l-.16-.18c-.39-.41-.09-1.06,0-1.18s.41-.76,1-.67l.32,0c.71,0,1.4,1,2.31,2.31l.57.83c2.45,3.6,3.28,8.19,3.92,12.57a2.5,2.5,0,0,0,1.59,2c2.8,1.05,6.21,2.64,7.75,5.64A50.84,50.84,0,0,1,306.62,68,62.08,62.08,0,0,0,310.14,78.44Zm.52-27.87c-2.89-.3-6.25-2.27-6.83-5.35-.29-4,3.11-7.45,6.5-8.71h0a25.59,25.59,0,0,1,23,2.52C328.66,46.88,319.43,51.67,310.66,50.57Z"/><path class="cls-2" d="M304.1,130.38a2.5,2.5,0,0,1-.91-4.83,10.8,10.8,0,0,0,6.88-7.14c1.74-5.82-.66-13.9-6.56-22.2a2.5,2.5,0,1,1,4.08-2.9c6.9,9.7,9.48,19.12,7.27,26.52A15.76,15.76,0,0,1,305,130.21,2.41,2.41,0,0,1,304.1,130.38Z"/></g></g></svg>