<svg xmlns="http://www.w3.org/2000/svg" viewBox="0 0 583.28 106.12"><defs><style>.cls-1{fill:none;}.cls-2{fill:#0092b7;}.cls-3{fill:#07879a;}.cls-4{fill:#fff;}</style></defs><g id="Capa_2" data-name="Capa 2"><g id="Capa_1-2" data-name="Capa 1"><path class="cls-1" d="M18.45,81.2l-.52-.14a28.26,28.26,0,0,1-6-2.64c.28.21.55.38.82.55,1.13.62,1.27.62.31.07a21,21,0,0,0,7.09,2.53,6.36,6.36,0,0,0-.79-.2A4.25,4.25,0,0,1,18.45,81.2Z"/><path class="cls-1" d="M105.73,20.88l.14.24a5.35,5.35,0,0,0,.24,1.23l.07-.2c0-.24-.1-.27-.1,0a3.41,3.41,0,0,0-.28-1.43C105.77,20.75,105.7,20.75,105.73,20.88Z"/><path class="cls-1" d="M112.75,93c-.14-.41-.27-.85-.41-1.27a1.72,1.72,0,0,0,0,.18C112.51,92.32,112.65,92.7,112.75,93Z"/><path class="cls-1" d="M7,73.87l-.1-.14L6.7,73.5,6.29,73c.14.21.28.41.41.58s.14.17.21.28L7,74s0,0,0,0l.07,0L7.05,74h0v0s0,0,0,0a.13.13,0,0,1,0-.1s0,0,0,0,0,0,0,0,.07-.07.11-.1h0v0l0,0S7.05,73.87,7,73.87Z"/><path class="cls-1" d="M11.63,48.37h0v0h0s.07,0,0,0Z"/><path class="cls-1" d="M7.15,57.92a3.79,3.79,0,0,0-1.27-.34,3.66,3.66,0,0,0-.68,0c-.21,0-.38,0-.58,0,.17,0,.3,0,.48.07s.37,0,.58.06a5,5,0,0,1,1.2.35,4.14,4.14,0,0,1,1.06.65,4.61,4.61,0,0,1,.72.89,4.71,4.71,0,0,0-.55-1A3.65,3.65,0,0,0,7.15,57.92Z"/><path class="cls-1" d="M111.83,90.44h0c.17.44.34.89.51,1.37a6.65,6.65,0,0,1-.17-1.27c0,.21-.17.21-.45-.41v0c0,.1.07.24.11.34Z"/><path class="cls-1" d="M5.71,72.13c.21.3.41.58.62.85,0-.07-.1-.14-.14-.2A5.2,5.2,0,0,1,5.71,72.13Z"/><path class="cls-1" d="M55.24,85.44h0a2,2,0,0,0-.41.28c-.24.17-.48.3-.72.48a8.08,8.08,0,0,1,1.51-.66c-.34.11-.55.07-.1-.27a0,0,0,0,0,0,0,3.48,3.48,0,0,0-.31.2Z"/><path class="cls-1" d="M10.3,17.9c2.39-5.75,7.12-10.47,12.94-12.08A27.79,27.79,0,0,1,28.06,5a26.73,26.73,0,0,0-5.2.51,17.38,17.38,0,0,0-5.72,2.09,21.21,21.21,0,0,0-8.55,9.34A24.12,24.12,0,0,0,7.05,21a26,26,0,0,0-.89,4.31,36.41,36.41,0,0,0-.31,4.45,39.55,39.55,0,0,0,.24,4.48,10.57,10.57,0,0,0,.14,1.13l.1.79.1.65c0,.07,0,.14,0,.17l.14-.1.28-.21c.17-.13.34-.27.54-.41l.17-.13a1.66,1.66,0,0,1,.24-.18l.48-.34.17-.1C7.39,29.06,7.66,24.13,10.3,17.9Z"/><path class="cls-1" d="M24.71,58.6c-.79.55-1.54,1.1-2.26,1.65l-.31.24-.13.1-.11.07-.1.07-.07.07a.25.25,0,0,0-.14.13,2.38,2.38,0,0,0-.51.62,2.19,2.19,0,0,0-.31.79,1.37,1.37,0,0,0,.11.75l.06.14a2.25,2.25,0,0,0,1.24,1.26,2.27,2.27,0,0,0,1.91,0,1.91,1.91,0,0,0,.41-.24.93.93,0,0,0,.18-.13l0,0,.07-.07.07-.07,0,0,.41-.58.45-.65c.58-.89,1.13-1.82,1.64-2.74.92-1.61,1.78-3.22,2.64-4.86l-.14.1C27.93,56.35,26.28,57.48,24.71,58.6Z"/><path class="cls-1" d="M53,86.91c.38-.24.72-.48,1.06-.71l-.21.1A6.42,6.42,0,0,1,53,86.91Z"/><path class="cls-1" d="M112.17,89.76a3.12,3.12,0,0,0,0,.75C112.2,90.34,112.14,89.93,112.17,89.76Z"/><path class="cls-1" d="M105.05,60.21V62a25.32,25.32,0,0,0-.68,4h0a5,5,0,0,0,.06,1.89,11.69,11.69,0,0,0,.69,1.78c0-.41-.07-.82-.1-1.2a10.88,10.88,0,0,0-.38-1.13s-.1.1-.07.44c0,.14,0,.31,0,.45a2.43,2.43,0,0,1,0-.45,5.74,5.74,0,0,1,.14-1.71v0a55.45,55.45,0,0,0,.78-6.74C105.36,59.43,105.19,59.39,105.05,60.21Z"/><path class="cls-1" d="M53,86.91s-.07,0-.14.07S53,87,53,86.91Z"/><path class="cls-1" d="M79.65,65.93c-.34.45-1,1.4-1,1.4l-.72.62c-.24.21-.48.41-.72.65-.48.45-.92.89-1.37,1.37s-.92.92-1.37,1.4-.89,1-1.33,1.44c.34-.17.72-.38,1.06-.58,1-1,1.06-1.27.24-.65-.07.07-.14.1-.21.17s.14-.1.21-.17a35.45,35.45,0,0,0,6.09-6.09v-.07C80.33,65.45,80.2,65.38,79.65,65.93Z"/><path class="cls-1" d="M55.59,85.54a8.32,8.32,0,0,0,.92-.3A8.8,8.8,0,0,0,55.59,85.54Z"/><path class="cls-1" d="M7.77,73.39c-.18.14-.42.31-.65.52l0,0,0,0C7.32,73.77,7.63,73.5,7.77,73.39Z"/><path class="cls-1" d="M87.83,16.4a3.58,3.58,0,0,1,.34-.17,5.12,5.12,0,0,1,1.24-.31,15.29,15.29,0,0,0,2.08-.41c0-.1-.1-.17-.13-.28a21.24,21.24,0,0,0-4.8-6,17.49,17.49,0,0,0-3.73-2.43,17.82,17.82,0,0,0-4.31-1.51,25.75,25.75,0,0,0-8-.34A20.08,20.08,0,0,1,81.64,8.8,21.85,21.85,0,0,1,87.83,16.4Z"/><path class="cls-1" d="M5.64,72s0,0,0,.07S5.61,72,5.57,72,5.61,72,5.64,72Z"/><path class="cls-2" d="M80.61,66.79a2.24,2.24,0,0,0,0-.52,2.75,2.75,0,0,0-.41.52c-.41.54-1,1.3-1.5,2.08s-1.17,1.58-1.61,2.23c-.93,1.27-1.3,1.92.1.44,1-1.16,1.95-2.19,2.77-3.21.24-.31.48-.59.69-.89Z"/><path class="cls-2" d="M55.14,85.37c-.24.14-.51.28-.75.45-.52.31-1,.58-1.47.89-.14.07-.24.14-.38.2s-.48.31-.69.45l.89-.41c.83-.45,1.61-1,2.47-1.44l.31-.2.37-.31C55.65,85.1,55.41,85.24,55.14,85.37Z"/><path class="cls-2" d="M55.21,85.48c-.45.27-.86.54-1.16.75l-.14.1.2-.1c.24-.17.48-.34.72-.48A.89.89,0,0,1,55.21,85.48Z"/><path class="cls-2" d="M75.34,2.23c.2,0,.41.1.58.13a3.83,3.83,0,0,1-.51-.13Z"/><path class="cls-2" d="M73.8,1.92c.44.07.89.17,1.33.27l-.44-.1A6.37,6.37,0,0,0,73.8,1.92Z"/><path class="cls-2" d="M56.51,85.24s.07,0,.1,0S56.54,85.24,56.51,85.24Z"/><path class="cls-2" d="M74.41,71.58a.76.76,0,0,0-.2.17A.76.76,0,0,1,74.41,71.58Z"/><path class="cls-2" d="M75.34,2.23c-.07,0-.14,0-.21,0A.39.39,0,0,1,75.34,2.23Z"/><path class="cls-3" d="M91.8,14.82a19.87,19.87,0,0,0-1.37-2.43A26.28,26.28,0,0,0,88.65,10a22.37,22.37,0,0,0-5.54-4.72A26.85,26.85,0,0,0,76,2.36l.48.14c.48.14.58.21.38.17-.38,0-2-.37-4.18-.51-.54,0-1.16-.07-1.78-.07s-1.3,0-1.95,0-1.37.07-2.09.14l-1.09.1-1.13.21a23.79,23.79,0,0,0-4.35,1.27,36.92,36.92,0,0,0-3.83,1.78,21.91,21.91,0,0,0-4.83,3.45c-.17.17-.38.38-.58.55l-.14.14-.07.07,0,0h0l-.07,0-.2.11a.48.48,0,0,1-.24.1c0,.07,0,0-.07-.07l0-.14-.1-.2,0-.07h0l-.07-.1-.21-.28c-.27-.34-.58-.71-.85-1.06a22.75,22.75,0,0,0-2-2A23.53,23.53,0,0,0,44.7,4.38c-.38-.27-.82-.54-1.2-.78s-.78-.48-1.23-.72l-.62-.35L41,2.23l-.68-.31c-.24-.1-.45-.17-.69-.28L39,1.37l-.68-.24-.69-.2L36.86.75A27.88,27.88,0,0,0,25.63.41L24.3.65C23.85.72,23.41.86,23,1s-.89.24-1.3.34-.89.28-1.33.41a24.86,24.86,0,0,0-4.9,2.43l-.72.52c-.24.17-.47.34-.71.54-.45.38-.93.76-1.37,1.2a23.45,23.45,0,0,0-2.5,2.74,26.12,26.12,0,0,0-3.8,6.78A33.44,33.44,0,0,0,4.1,26a46.17,46.17,0,0,0,.38,10c.07.38.1.79.17,1.2l.21,1.2.2,1.2.1.58,0,.14v.07s0,.06,0,0l.24-.21,1.85-1.54c.31-.27.65-.51,1-.75l.38-.27a.78.78,0,0,1,.24-.17,26.94,26.94,0,0,1,4-2.33,25.56,25.56,0,0,1,8.83-2.33,30.06,30.06,0,0,1,4.55,0,25.49,25.49,0,0,1,4.48.86A26.11,26.11,0,0,1,45.21,44,25.71,25.71,0,0,1,49,52.27a29.68,29.68,0,0,1,1,9.18c0,.37,0,.71-.07,1.09a10.3,10.3,0,0,1-.13,1.1l-.07.54-.1.55c-.07.34-.14.72-.18,1.06s-.17.69-.24,1a2.39,2.39,0,0,1-.13.51l-.17.52c-.11.34-.21.68-.31,1s-.24.65-.38,1A19.53,19.53,0,0,1,44.87,75c-.31.38-.68.75-1,1.1s-.69.68-1,1l-.13.1-.24.24c-.18.17-.35.31-.52.45-.37.27-.75.54-1.09.82-.72.55-1.41,1.09-2.16,1.61l-2.05,1.43c-.65.45-1.3.89-1.92,1.34l.41.41.62.41c.41.28.85.55,1.26.82l2.5,1.58c.82.51,1.61,1,2.43,1.5l1.2.72.62.34.3.18a2,2,0,0,1,.24.13c.52.28,1,.52,1.54.79a7.52,7.52,0,0,0,.79.34l.48.21c.21.1.41.17.58.24a5.12,5.12,0,0,0,1.24.31l.61,0a4.29,4.29,0,0,0,.62,0,7.34,7.34,0,0,0,2.39-.62,7.12,7.12,0,0,1-2.63.55,5.9,5.9,0,0,1-2.54-.48c-.2-.07-.41-.17-.58-.24l-.37-.17c-.24-.14-.52-.24-.76-.38s-.51-.24-.75-.38l-.38-.2-.41-.21c-1.5-.85-3-1.78-4.48-2.74-.79-.47-1.58-1-2.4-1.5-.41-.28-.82-.51-1.23-.79-.21-.14-.41-.27-.65-.41L35,83.08c.82-.58,2-1.37,3.25-2.29.51-.38.93-.65,1.27-.86s.48-.34.58-.41.14,0-.17.34-.89.82-1.51,1.37S37,82.4,36.31,83c.11.1.21.24.31.34s.41.24.62.34c.41.24.82.45,1.23.69.79.44,1.47.82,2,1.13a13.75,13.75,0,0,1,2.26,1.74c.41.34.82.69,1.23,1a2.91,2.91,0,0,1,.31.24l.27.18a1.11,1.11,0,0,0,.41.2,15.77,15.77,0,0,0,1.75.86l.51.2a3.82,3.82,0,0,0,.65.24,4.64,4.64,0,0,0,1.33.28A6.62,6.62,0,0,0,51.85,90a4.58,4.58,0,0,0,.66-.27c.2-.1.37-.17.54-.27.35-.21.65-.41,1-.62a1.34,1.34,0,0,1,1-.38c.24,0,.41.11.61-.06.35-.24.69-.48,1-.72s.68-.55,1-.79c.65-.55,1.27-1,1.78-1.54a22.13,22.13,0,0,1,3-2.43c.75-.48,1.47-.89,2.16-1.34s1.33-.89,2-1.3A27,27,0,0,0,69,78.42c.48-.44,1-.92,1.41-1.4a108.58,108.58,0,0,0,10-11.43v-.07a36.61,36.61,0,0,1-6.1,6.09c.83-.61.76-.37-.24.65a9,9,0,0,1-1.06.58c.48-.47.89-1,1.34-1.43s.92-1,1.37-1.41.89-.92,1.37-1.37c.24-.2.48-.41.72-.65l.71-.61,1-1.41c.55-.51.68-.47.85-.47,0-.11,0-.21,0-.35a3.6,3.6,0,0,1-.45.41c-.2.21-.44.41-.65.59-.82.75-1.54,1.43-1.54,1.43a81.49,81.49,0,0,1-7.9,7.5c-.69.55-1.34,1.13-2.06,1.68s-1.37,1.06-2.09,1.61-1.4,1-2.08,1.54-1.41,1-2.13,1.47a4.09,4.09,0,0,1-1.19,1.09c-.52.21-1,.45-1.48.69-.85.55-1.71,1.06-2.53,1.57-.27.21-.58.41-.86.62l0,0c-.44.35-.24.38.1.28a7.21,7.21,0,0,1,.93-.31c-.24.07-.65.24-.93.31a14.52,14.52,0,0,0-1.5.65L52.92,87h0a.64.64,0,0,1-.14.06,7.75,7.75,0,0,1-.89.48,3.28,3.28,0,0,1-1.06.31,1.5,1.5,0,0,1-.72-.07,4.36,4.36,0,0,0,1.64-.41,4.49,4.49,0,0,0,.69-.44c.61-.41,1.19-.82,1.81-1.17C64,79.55,73.21,71.68,80,62c-.07-.75-.14-1.5-.21-2.29-.1-1.2-.2-2.43-.27-3.63-.07-.58-.11-1.2-.17-1.78l-.07-.85a8.29,8.29,0,0,1-.1-1.1c0-.72,0-1.3-.07-1.78a4.82,4.82,0,0,0-.17-1s0,0,0-.07l-.07-.1,0,0-.07-.1-.1-.21-.48-.78c-.31-.55-.62-1.06-1-1.61-2.84-4.73-5.48-8.83-7.77-12.84-1.16-2-2.36-4-3.59-6-.62-1-1.24-2-1.89-3.05l-1-1.61a5.1,5.1,0,0,1-.58-1.3,9,9,0,0,1-.28-1.33,9.49,9.49,0,0,1,.07-2.4l0-.27,0-.14,0-.21a3,3,0,0,1,.27-.78,6.2,6.2,0,0,1,.75-1.3,6.61,6.61,0,0,1,2.26-1.78,6.8,6.8,0,0,1,2.6-.66,8.58,8.58,0,0,1,1.34,0,6.4,6.4,0,0,1,1.33.31,6.47,6.47,0,0,1,2.47,1.43c.17.18.34.38.51.55l.24.31.07.07,0,0,.07.11.52.75c.34.51.65,1,1,1.54l1.33,2.16c.38.41.79.82,1.17,1.23.68.75,1.37,1.54,2,2.29.3.38.65.79,1,1.17l.45.51.24.31c1.37,1.74,1.81,4.28,2.91,6s2.67,2.43,3.46,4c.06.13.13.27.2.44a1.72,1.72,0,0,1,.07.21.53.53,0,0,1,.07.2l0,.11s0,.06.07.06a1.56,1.56,0,0,0,.45.11h.41l.27,0c.21,0,.38,0,.58.07,0-.34.11-.65.14-1l-.65-.24a2,2,0,0,1-.51-.24l-.52-.28a10.22,10.22,0,0,1-5-7.19,9,9,0,0,1-.3-3.11,28.53,28.53,0,0,1,.48-2.94,12.4,12.4,0,0,1,.41-1.41c.07-.24.17-.44.24-.68a6.86,6.86,0,0,1,.3-.69c.14-.24.24-.44.38-.68s.31-.41.45-.62a6,6,0,0,1,1-1.06,8.39,8.39,0,0,1,.86-.55A20.76,20.76,0,0,0,81.5,8.8,20.29,20.29,0,0,0,70.34,4.93a23.79,23.79,0,0,1,8,.34A18.58,18.58,0,0,1,82.7,6.78a19,19,0,0,1,3.73,2.43,21.37,21.37,0,0,1,4.79,6,2.44,2.44,0,0,0,.14.28c.2-.07.37-.1.58-.17C92,15.2,91.87,15,91.8,14.82Zm-68.56-9C17.42,7.43,12.69,12.15,10.3,17.9,7.66,24.13,7.39,29,8.42,35.46l-.18.11-.47.34c-.07.07-.18.1-.24.17l-.18.14a5.87,5.87,0,0,0-.54.41l-.28.2-.13.11s0-.11,0-.17l-.1-.65-.1-.79A11.24,11.24,0,0,1,6,34.2c-.14-1.51-.24-3-.24-4.49a31.49,31.49,0,0,1,.31-4.45A29.41,29.41,0,0,1,7,21a24.34,24.34,0,0,1,1.54-4.07,21,21,0,0,1,8.56-9.35,18.81,18.81,0,0,1,5.71-2.09A31,31,0,0,1,28,4.93,39.43,39.43,0,0,0,23.24,5.82Z"/><path class="cls-2" d="M55.24,85.44Z"/><path class="cls-2" d="M51.65,87.6A5.15,5.15,0,0,0,52.88,87S53,87,53,87h0a6.83,6.83,0,0,0,.89-.62C53.22,86.67,52.51,87.15,51.65,87.6Z"/><path class="cls-2" d="M53.87,86.33l.14-.1a8.5,8.5,0,0,1,1.17-.75h0c-.86.44-1.65,1-2.47,1.43a4.42,4.42,0,0,1-.89.41,6.62,6.62,0,0,1-1,.48,3,3,0,0,0,1.06-.3c.31-.14.59-.31.89-.48a5,5,0,0,1-1.23.58C52.51,87.15,53.22,86.67,53.87,86.33Z"/><path class="cls-2" d="M50.21,87.7a2.32,2.32,0,0,0,.72.07,6.14,6.14,0,0,0,1-.48A4.32,4.32,0,0,1,50.21,87.7Z"/><path class="cls-2" d="M25.67,81.54v-.48l0-1.37c0,.45,0,.93,0,1.37v.62h.07l.58-.11-.62.07a0,0,0,0,1,0,0Z"/><path class="cls-2" d="M25.46,76.68a2,2,0,0,0-.13-.41,5.08,5.08,0,0,1,.17.51A.11.11,0,0,1,25.46,76.68Z"/><path class="cls-2" d="M25.5,76.78c0,.14,0,.24.07.38A1.07,1.07,0,0,1,25.5,76.78Z"/><path class="cls-2" d="M23.1,75.28a1.8,1.8,0,0,0-.89.47,2,2,0,0,1,.82-.44,2.12,2.12,0,0,1,1.2,0A1.8,1.8,0,0,0,23.1,75.28Z"/><path class="cls-2" d="M22,76a1.71,1.71,0,0,1,.21-.24A1.71,1.71,0,0,0,22,76Z"/><path class="cls-2" d="M25.15,76a2,2,0,0,0-.92-.69,1.82,1.82,0,0,1,1,.89c0-.13-.11-.24-.11-.2Z"/><path class="cls-2" d="M25.33,76.27a.67.67,0,0,0-.18-.24,1.25,1.25,0,0,1,.18.24Z"/><path class="cls-2" d="M25.5,77v0Z"/><path class="cls-2" d="M25.29,76.23l.1.21C25.33,76.37,25.33,76.3,25.29,76.23Z"/><path class="cls-2" d="M25.36,76.44s0,0,0,.07A.15.15,0,0,1,25.36,76.44Z"/><path class="cls-2" d="M25.39,76.51s0,.07,0,.1A.11.11,0,0,1,25.39,76.51Z"/><path class="cls-2" d="M25.43,76.61c0,.07,0,.1,0,.17A.34.34,0,0,1,25.43,76.61Z"/><path class="cls-2" d="M25.46,76.78c0,.07,0,.14,0,.21S25.46,76.85,25.46,76.78Z"/><path class="cls-2" d="M24.71,75.79l0,0S24.68,75.79,24.71,75.79Z"/><path class="cls-2" d="M24.64,75.75a.62.62,0,0,0-.24-.13A1.17,1.17,0,0,0,24.64,75.75Z"/><path class="cls-2" d="M24.4,75.62Z"/><path class="cls-2" d="M24.71,75.79a1.44,1.44,0,0,1,.51.72,1.2,1.2,0,0,0-.13-.31A4.73,4.73,0,0,0,24.71,75.79Z"/><path class="cls-2" d="M33.3,46l-.07.07,0,0Z"/><path class="cls-2" d="M24.71,63.94h0c-.07.11.07-.06,0-.06v0l0,0Z"/><path class="cls-2" d="M39.19,61.38s0-.07-.07-.07S39.16,61.38,39.19,61.38Z"/><path class="cls-2" d="M39.22,61.45l.14.1c-.07,0-.1-.1-.17-.14S39.22,61.41,39.22,61.45Z"/><path class="cls-2" d="M39.12,61.31l-.1-.14Z"/><path class="cls-2" d="M32.86,49.53c-.07.11-.11.21-.17.31l.06.14Z"/><path class="cls-2" d="M39,61.17s0-.07-.07-.1S39,61.14,39,61.17Z"/><path class="cls-2" d="M6.05,43.17l-.3.24-.28.24.21.2c.24-.31.48-.65.68-1Z"/><path class="cls-2" d="M39,61.07c0-.07-.07-.1-.1-.17A.63.63,0,0,0,39,61.07Z"/><path class="cls-2" d="M38.85,60.9s0-.07,0-.1A.1.1,0,0,1,38.85,60.9Z"/><path class="cls-2" d="M38.81,60.8l-.1-.31C38.74,60.62,38.78,60.69,38.81,60.8Z"/><path class="cls-2" d="M11.6,48.37Z"/><path class="cls-2" d="M7,60.28a.64.64,0,0,0,.14.21c.06.1.13.24.2.37v-1.5l-.14.24-.06.1,0,.07s0,.07-.07.1-.07.07-.07.1a.23.23,0,0,1-.13.14C6.88,60.15,6.91,60.21,7,60.28Z"/><path class="cls-2" d="M6.77,42.58l-.07-.06-.27.37.24-.2Z"/><path class="cls-2" d="M24.54,35.67v-.14l-.34,0-.24,0,.17,0Z"/><path class="cls-3" d="M34.67,70.69c-.07.07-.24.14-.51.34-.07,0-.11.1-.17.14a3.89,3.89,0,0,1,.85-.58A.38.38,0,0,0,34.67,70.69Z"/><path class="cls-3" d="M33.27,72.5a1.24,1.24,0,0,0,.65.69,5.43,5.43,0,0,0-.48-.48Z"/><path class="cls-3" d="M33.44,71.78a1.84,1.84,0,0,0-.21.31l-.1.17,0,0,0,0,.07.07.1.1A.91.91,0,0,1,33.44,71.78Z"/><path class="cls-3" d="M34,71.17a4.33,4.33,0,0,0-.55.61.36.36,0,0,0,.1-.13A1.85,1.85,0,0,1,34,71.17Z"/><path class="cls-3" d="M33.92,73.19s.07.07.07.1c.37.38.75.79,1.13,1.2s.75.79,1.13,1.2l.13.13c-.82-.89-1.64-1.78-2.46-2.63Z"/><path class="cls-3" d="M37.27,76.68l-.17-.17-.34-.34c-.82-.89-1-1-.31-.31l.41.44.31.31.1.07a.15.15,0,0,1,.07.1h0Z"/><path class="cls-3" d="M36.55,76l-.1-.1,0,0Z"/><path class="cls-3" d="M36.21,70.45l-.14-.14.11.1Z"/><path class="cls-3" d="M35.42,70.35s.11,0,.14,0h0A.13.13,0,0,1,35.42,70.35Z"/><path class="cls-3" d="M35.94,70.24Z"/><path class="cls-3" d="M35.9,70.24l-.2.07a2.68,2.68,0,0,0,.27-.07Z"/><path class="cls-3" d="M35.6,70.31h0l.1,0A.14.14,0,0,1,35.6,70.31Z"/><path class="cls-3" d="M34.88,70.55a0,0,0,0,0,0,0,.44.44,0,0,1,.21-.07A.32.32,0,0,0,34.88,70.55Z"/><path class="cls-3" d="M36,70.31l0,0Z"/><path class="cls-3" d="M36.21,70.45l0,0S36.25,70.45,36.21,70.45Z"/><path class="cls-3" d="M36.28,70.48c.07.07.21.17.34.31C36.45,70.62,36.35,70.55,36.28,70.48Z"/><path class="cls-3" d="M23.89,75.45a1.51,1.51,0,0,0-.79,0A1.76,1.76,0,0,0,22,76.4a4.24,4.24,0,0,0-.17.72,6.51,6.51,0,0,0-.07.76c-.07,1,0,2,0,3V82s0,0-.07,0l-.13,0c-.11,0-.21,0-.31,0a2.29,2.29,0,0,0-.55-.07c-.62-.11-1.2-.24-1.68-.31A19.24,19.24,0,0,1,16.91,81c-.79-.24-1.55-.48-2.16-.72l-1.13-.45c-.1,0,.14.11.92.45a28.88,28.88,0,0,0,3.36,1.13c.27.07.55.13.79.17a7.09,7.09,0,0,0,.78.14c.28,0,.52.1.79.13l.38.07.44,0c.21,0,.38,0,.55.07h.14V80.72c0-.52,0-1,0-1.51a11.34,11.34,0,0,1,.07-1.54c0-.27.07-.51.1-.79a1.62,1.62,0,0,1,.24-.68,1.81,1.81,0,0,1,2.23-.55s-.07,0-.11,0A.55.55,0,0,0,23.89,75.45Z"/><path class="cls-3" d="M25.84,81.71l-.21,0s0,0,0,0V79.07a18,18,0,0,0-.17-1.88,4.47,4.47,0,0,0-.14-.61c.1.41.17.85.24,1.3a24.37,24.37,0,0,1,.1,2.7v1.16s0,0,0,0h.07l.1,0c.48,0,1-.14,1.4-.2a27.08,27.08,0,0,0,3-.76,23.31,23.31,0,0,1-4,.93C26.08,81.68,25.94,81.71,25.84,81.71Z"/><path class="cls-3" d="M36.83,71a.63.63,0,0,0,.17.14.7.7,0,0,1-.17-.14Z"/><path class="cls-3" d="M44.67,62H42.24a15.26,15.26,0,0,1-2.09-.21l-.28-.07-.13,0h0l-.07,0a1.59,1.59,0,0,1-.3-.18h0a1.22,1.22,0,0,0,.72.28c.37.07.47.1.3.07s-.2,0-.41-.07a1.2,1.2,0,0,1-.65-.28,1.76,1.76,0,0,1-.58-.78,2,2,0,0,1-.07-1.2,1.81,1.81,0,0,1,.79-1.1,1.78,1.78,0,0,1,.68-.24,7.72,7.72,0,0,1,.83-.06c1.09-.07,2.29,0,3.49,0H45a3.27,3.27,0,0,0-.07-.62c0-.31-.06-.62-.1-.89-.1-.58-.2-1.2-.34-1.75a29.45,29.45,0,0,0-1-3.18,24.32,24.32,0,0,0-1.33-3c-.14-.24-.28-.48-.41-.75s-.31-.48-.45-.75l-.24-.38L41,46.62a1.26,1.26,0,0,0-.24-.3,7.23,7.23,0,0,0-.48-.59l-.23-.3,0,0h0l-.07.07-.14.14c-.55.51-1.13,1-1.68,1.57s-.85.79-1.33,1.2l-.69.58-.34.28c-.07.06-.07,0-.07.06h-.1s.93.31-.07,0c-1.33-.13-.48-1.37-.44-1.37l5.34-5.4c.2-.24-2-1.61-3.8-2.81-.24-.14-.45-.31-.69-.45L35.42,39a7.23,7.23,0,0,0-.82-.44l-1.67-.83c-.59-.24-1.17-.48-1.75-.68l-.89-.31c-.51-.17-1.06-.27-1.58-.41L27.14,36l-1.54-.2-1.13-.14-.41-.07-.17,0-.65-.07-.41-.07a1.8,1.8,0,0,0-.38,0v.34l-1.06.14-1.51.2-.37.07-.38.07-.79.17-.37.07-.35.1-.71.21-.35.1-.24.07-.44.13a18.62,18.62,0,0,0-1.78.69,14.92,14.92,0,0,0-1.71.82l-.86.44-1.33.83c-.41.3-.86.61-1.27.92l-1.2,1-1.06.89-.1.1-.24.21c-.24.31-.48.65-.69,1s-.65.89-1,1.33a26.83,26.83,0,0,0-1.71,2.67l-.21.34-.1.24-.2.41a6.06,6.06,0,0,0-.38.86,14.52,14.52,0,0,0-.62,1.71c-.1.27-.17.58-.27.86s-.17.58-.24.85L.71,54l-.1.44a6.38,6.38,0,0,1-.1.69l-.14.65c0,.2,0,.44-.07.65,0,.44-.1.85-.13,1.27L.06,59a4.4,4.4,0,0,0,0,1.13.57.57,0,0,0,.24,0c.55,0,1.06-.1,1.61-.13l1.57-.11c.28,0,.52,0,.79-.07l.38,0H5a5.08,5.08,0,0,1,.69,0,1.68,1.68,0,0,1,.89.35l.1.1A.61.61,0,0,1,6.81,60s0-.07.07-.1,0-.07.06-.1l0-.07.07-.1.13-.24v1.5c-.06-.1-.13-.27-.2-.37a.85.85,0,0,0-.14-.21c-.07-.07-.1-.14-.17-.2s-.14.1-.21.17a2.54,2.54,0,0,1-1,.34,7,7,0,0,1-.82,0c-.28,0-.93,0-1.48,0s-1.06,0-1.54,0c-.24,0-.48,0-.71,0l-.38,0a.87.87,0,0,0-.31.07c.14.71.24,1.43.38,2.15l.2,1,.11.51A1.69,1.69,0,0,0,1,65a4.16,4.16,0,0,1,.17.65,4.48,4.48,0,0,1,.17.58c.14.42.28.79.42,1.17A24.39,24.39,0,0,0,3.9,71.58a21.56,21.56,0,0,1-1.2-2.19c-.34-.72-.65-1.44-.92-2.19-.14-.38-.28-.76-.38-1.13a3.43,3.43,0,0,1-.17-.58c-.07-.21-.11-.45-.17-.65a7.08,7.08,0,0,1-.21-1c-.07-.31-.14-.65-.2-1C.54,62.2.41,61.51.27,60.8a1.15,1.15,0,0,1,.24-.07.57.57,0,0,0,.27,0c.21,0,.41,0,.62,0,.41,0,.85,0,1.33,0s1,0,1.51,0h.48a1.43,1.43,0,0,0,.41,0c.58-.06.72-.1.75-.06s-.17.13-.51.24A7.17,7.17,0,0,1,3.42,61H2.67L2,61c-.24,0-.45,0-.69,0a1.46,1.46,0,0,0-.34,0c-.07,0-.07,0-.1.07l-.11.07c.11.54.21,1.06.28,1.5s.13.72.2,1.17c0,.2.07.41.11.65a1.35,1.35,0,0,0,.06.34l0,.27a7.58,7.58,0,0,0,.17.93,3.62,3.62,0,0,0,.24.78,21.23,21.23,0,0,0,3,5.69l.31.44a.63.63,0,0,0,.1.17l.11.17a2,2,0,0,0,.37.65,9.15,9.15,0,0,1,.58.72,2.15,2.15,0,0,1,.28.35c0,.06.1.1.13.17l.14,0c.34-.38.65-.75,1-1.09.14-.18.31-.31.45-.48l.2-.24.11-.11.07-.06c.37-.41.71-.83,1.06-1.2l1-1.06.3-.31.07-.07s0-.07.07,0a1.51,1.51,0,0,1,.17.1c.1.07.21.1.31.17l.07,0,.1.07.24.14c.14.1.31.17.45.27a1.88,1.88,0,0,0,.27.17c.07.07.17.11.24.18s-.07.2-.1.27l-.11.27,0,.07,0,.1-.1.21a9,9,0,0,1-1.37,1.92c-.34.37-.72.78-1.13,1.16-.24.24-.44.48-.68.69l-.34.37-.11.1S9,77,9.07,77l.2.17c.28.21.55.45.82.62l.38.24.34.21a25.56,25.56,0,0,0,2.88,1.57A24.5,24.5,0,0,0,20,81.68h-.07a21,21,0,0,1-7.08-2.54c1,.55.85.52-.31-.06-.27-.18-.55-.38-.82-.55a29.58,29.58,0,0,0,6,2.63l.51.14c.31.07.65.14.86.17a3.45,3.45,0,0,1,.78.21l.72.1.41,0,.21,0h.14v0h-.07a.23.23,0,0,1-.14,0c-.1,0-.17,0-.31,0l-.65-.1a10,10,0,0,1-1.4-.31c-.92-.24-1.71-.48-1.71-.48a20.84,20.84,0,0,1-4.28-1.81,18.8,18.8,0,0,1-2-1.2,4.85,4.85,0,0,1-.48-.35l-.45-.3-.41-.35s-.07,0,0,0l0,0,.11-.11.2-.17c.51-.48,1.1-1,1.61-1.54a10,10,0,0,0,1.37-1.74,5.14,5.14,0,0,0,.48-1c.07-.17.14-.38.2-.55l0-.14,0-.06v0l0,0-.24-.14c-.65-.38-1.3-.79-2-1.16-.11,0-.21-.11-.28-.14l-.13-.07s0,0-.07,0l-.07.06a4,4,0,0,1-.55.52c-.34.27-.68.58-1,.89-.58.58-1.19,1.16-1.78,1.71a7.93,7.93,0,0,1-.58.58v0h0l-.1.1s0,0-.07,0,0,0,0,0,0,.07,0,.11,0,0,0,0v0h0s0,0,.06-.06l0,0c.24-.17.44-.34.65-.51-.14.1-.45.38-.65.51l0,0-.06,0s0,0,0,0a1.7,1.7,0,0,1-.1-.14l-.21-.27c-.13-.17-.27-.38-.41-.58a9.14,9.14,0,0,1-.61-.86v0h0s0,0,0-.07a.15.15,0,0,0,0-.07,6.14,6.14,0,0,1-.41-.68,8.92,8.92,0,0,1-.69-1.48c.35.72.76,1.44,1.17,2.13s.85,1.26,1.33,1.88a7.56,7.56,0,0,1-.68-.89s-.07-.1-.11-.14.11.14.14.21l.41.51.21.24.1.14s.07-.07.1-.1l0,0c.1-.1.17-.2.27-.31l-.27.28-.11.1-.1-.14-.2-.24L6,72.91a2.27,2.27,0,0,1-.34-.51c-.14-.17-.24-.38-.38-.55A22,22,0,0,1,4,69.52c-.2-.37-.37-.78-.51-1.09A11.8,11.8,0,0,1,2.46,65c0-.17-.07-.31-.1-.48a1.68,1.68,0,0,1-.07-.44v.17c0-.14,0-.24,0-.34a10.17,10.17,0,0,1-.2-1.44l0-.14v0h.38c.21,0,.38,0,.58,0l1.17.1a6.26,6.26,0,0,0,2.63-.3,3.07,3.07,0,0,0,1.17-.79,4.34,4.34,0,0,0,.75-1.13l.1-.17-.1-.21-.21-.41c-.1-.13-.17-.31-.27-.44a2.55,2.55,0,0,0-.34-.41,1.82,1.82,0,0,0-.38-.35,3.94,3.94,0,0,0-1.88-.75c-.17,0-.34,0-.51-.07s-.35,0-.48,0H3.9c-.48,0-1,0-1.44.07H2.25V57.3l0-.34c0-.2.07-.44.1-.65.07-.41.17-.85.28-1.26,0-.18.13-.48.2-.72s.17-.52.24-.76c.17-.51.38-1,.58-1.47s.45-1,.69-1.44c.13-.24.24-.48.37-.68l.35-.62a13.79,13.79,0,0,1,1.4-2h0l0,0,0,0,.1.1.17.21.38.37.72.76.41.41.51.51a14.54,14.54,0,0,0,1.1,1l.24.21h.58a.85.85,0,0,0,.31,0,4,4,0,0,0,.65-.14A2.71,2.71,0,0,0,13,50.05a2.67,2.67,0,0,0,.65-1.34,2.3,2.3,0,0,0,0-.68,1,1,0,0,0,0-.34l0-.28,0-.24-.17-.2a38.93,38.93,0,0,0-2.8-3l-.11-.1s.07-.07.11-.1l.24-.17a1.88,1.88,0,0,1,.48-.34c.3-.24.65-.45.95-.65l.52-.31.34-.17.34-.18c.24-.1.48-.23.72-.34l.72-.31.75-.27.76-.27.75-.24.62-.17A8.2,8.2,0,0,1,19,40.09a2.87,2.87,0,0,1,.58-.07l.27,0H20v.14c0,.68,0,1.37,0,2.05v.28l0,.41.1.82a7.81,7.81,0,0,0,.14.82c.07.28.1.55.17.79l.17.86.89,0a5.31,5.31,0,0,0,.69,0c.3,0,.61,0,1-.07.65-.07,1.3-.17,1.95-.28l.06,0a.1.1,0,0,0,0-.07l.07-.14a1.11,1.11,0,0,1,.13-.27c.07-.2.18-.38.24-.58A5,5,0,0,0,26,43.37a5.93,5.93,0,0,0,.1-.72c0-.1,0-.24,0-.34l0-.2a4,4,0,0,0,0-.69V40.09h.06l.14,0,.28,0,.51.11c.34.07.68.17,1,.24l.51.17.75.24c.48.17,1,.37,1.47.58s1,.44,1.41.68l.68.38.17.1.11.07a1.05,1.05,0,0,1,.2.14c.28.17.51.34.75.51s.24.17.35.28l.17.13,0,0,0,0v0l-.11.06c-.27.28-.58.55-.85.83l-.21.2-.2.21c-.24.24-.48.51-.72.75l.07-.07-.11.1,0,0a3.16,3.16,0,0,0-1,1.88,4.41,4.41,0,0,0,0,.89c-1.57,1.13-3.12,2.23-4.66,3.36-2.08,1.47-4.14,3-6.16,4.55l-.75.58-.72.58-.41.35c-.14.13-.31.27-.44.41a5.12,5.12,0,0,0-.72,1,5.39,5.39,0,0,0-.79,2.32,4.76,4.76,0,0,0,.48,2.5l0-.1A5,5,0,0,0,20.7,67a5.81,5.81,0,0,0,2,.28,4.59,4.59,0,0,0,2-.59,3.81,3.81,0,0,0,.86-.61l.37-.38a1,1,0,0,0,.17-.2l.07-.07,0,0,.06-.07v0l.45-.72.41-.72c.55-1,1.06-1.88,1.54-2.87,1-1.92,1.88-3.87,2.81-5.82.37-.79.75-1.58,1.13-2.36.65-1.85.27-1.85,1-2.33l1.3.34a1.63,1.63,0,0,0,.38,0l.17,0,.24,0,.1,0,.11-.06a1.41,1.41,0,0,0,.17-.14l.48-.41.41-.38c.27-.24.55-.51.82-.79.51-.51,1-1.06,1.54-1.61l0,0h0l0,0,0,0,0,0s0,0,0,0l.34.45a22.57,22.57,0,0,1,3.74,7.9c.1.48.2,1,.3,1.48,0,.13,0,.27.07.37v.11h-.24a27.85,27.85,0,0,0-3.69.17,4.56,4.56,0,0,0-.48.07,2.69,2.69,0,0,0-.55.17,2.07,2.07,0,0,0-.86.75A2.31,2.31,0,0,0,38,60.8a2.13,2.13,0,0,0,.72.85.15.15,0,0,0,.1.07l.07,0a.34.34,0,0,0,.1,0l.14,0s0,0,.07,0h.07l.51.1a14.68,14.68,0,0,0,2.09.14c.68,0,1.37,0,2-.07h.38v.1l0,.24c0,.34-.11.69-.14,1a22.48,22.48,0,0,1-1,3.8,21.15,21.15,0,0,1-3.11,5.89c-.18.24-.38.48-.55.72,0,0,0,0,0,0l0,0-.07-.07-.14-.14a2.29,2.29,0,0,1-.27-.27c-.38-.35-.68-.69-1-1-.58-.58-1-1-1.37-1.3l-.1-.11a4.2,4.2,0,0,0,.58.52c.54.51,1.09,1.06,1.61,1.57l.78.79,0,0a0,0,0,0,0,0,0l0-.07.1-.1.17-.21.34-.44a24.86,24.86,0,0,0,2.47-4.21,23.67,23.67,0,0,0,1.71-5.82c.07-.28.07-.58.14-.89l0-.14v-.07h-.07ZM5.23,57.58a5.31,5.31,0,0,1,.69,0A4.28,4.28,0,0,1,7.18,58a2.68,2.68,0,0,1,1,.76,2.91,2.91,0,0,1,.55,1A3.28,3.28,0,0,0,8,58.78a3.56,3.56,0,0,0-1.06-.65,4.59,4.59,0,0,0-1.2-.35,4.34,4.34,0,0,0-.58-.07l-.48-.06A1.68,1.68,0,0,1,5.23,57.58Zm6.37-9.21,0,0h0l0,0ZM27.21,59.91c-.55.92-1.06,1.84-1.64,2.73l-.45.65-.41.59v0s-.1.14-.07.07h0v-.07l0,0-.07.06s0,.07-.07.07l0,0a.93.93,0,0,1-.18.13,1.11,1.11,0,0,1-.41.24,2.43,2.43,0,0,1-1.91,0,2.16,2.16,0,0,1-1.24-1.26L20.64,63a1.71,1.71,0,0,1-.11-.75,1.8,1.8,0,0,1,.31-.79,3,3,0,0,1,.52-.62l.13-.13.07-.07.1-.07.11-.07.13-.1.31-.24,2.26-1.64c1.57-1.13,3.22-2.26,5-3.46a1.21,1.21,0,0,1,.14-.1A33.66,33.66,0,0,1,27.21,59.91Z"/><path class="cls-2" d="M6,72.57c-.1-.17-.21-.31-.31-.48-.2-.34-.44-.68-.68-1.09a8.44,8.44,0,0,0,.58,1l.1.13a0,0,0,0,0,0,0c.17.24.3.44.48.65A.52.52,0,0,1,6,72.57Z"/><path class="cls-2" d="M5.68,72.13Z"/><path class="cls-2" d="M5.68,72.09a4.41,4.41,0,0,0,.31.48c.06.07.1.17.17.24a1.7,1.7,0,0,1,.1.14c.2.24.44.55.68.89-.48-.62-.89-1.2-1.33-1.89a16.85,16.85,0,0,1-1.16-2.12,8,8,0,0,0,.68,1.47c.14.21.27.45.41.69-.2-.31-.41-.65-.58-1A11,11,0,0,1,5.68,72.09Z"/><path class="cls-2" d="M119.8,63.77v0Z"/><path class="cls-2" d="M138.39,77.74c.72,0,1.47,0,2.19.07h1.2v1.06c0,1.51,0,3,0,4.55,0-.44.07-.89.07-1.33,0-1.75,0-2-.07-.41,0-.89,0-1.78.07-2.64V77.71s-.07,0-.07,0h-1.4c-1.71,0-3.39,0-5.13,0a4.21,4.21,0,0,0,1.13.1C137.09,77.77,138.39,77.74,138.39,77.74Z"/><path class="cls-3" d="M142.33,29.44v0H142c-2.57,0-5.17,0-7.77,0h-4l0,0a1.52,1.52,0,0,0-.2.38,2.32,2.32,0,0,0-.24.82,2.18,2.18,0,0,0,.41,1.58l0,.07H132c.72,0,1.44,0,2.12,0,1.41,0,2.77,0,4.11,0h4.28v7.87a6,6,0,0,1,0,.86V41s0,0,0,0h-4.31c-2.57,0-5.14,0-7.74,0s-5.2,0-7.8,0H122l0,0a.3.3,0,0,1-.07.1c0,.07-.07.11-.07.18a1.77,1.77,0,0,0-.13,1.3.84.84,0,0,0,.13.27l0,.07h0s-.07,0,.37,0h1.92c5.1,0,10.13,0,14.82.07l1.75,0h1.85s0,0,0,0v2.22a8.33,8.33,0,0,1,0,.86c0,.54,0,1.13,0,1.67,0,1.2-.07,2.37-.1,3.53v.82s-.1,0-.14,0h-1.5c-.52,0-1,0-1.54-.07-1.41,0-2.95-.1-4.52-.17-.79,0-1.61,0-2.43,0h-2.23l-.07,0-.06.07s-.07.07-.11.07a1,1,0,0,0-.17.2,1.31,1.31,0,0,0-.24.45,1.77,1.77,0,0,0-.07,1,1.48,1.48,0,0,0,.52.82.55.55,0,0,0,.17.11c.07,0,.1,0,.17,0s.38,0,.58,0c1.54.07,3,.07,4.21.07,5,0,7.22,0,1.3-.13,1.1,0,2.12,0,3.12.06.51,0,1,0,1.47,0,.31,0,.62,0,.92,0h.31v.72c0,1.88-.07,3.6-.1,5.24a10.86,10.86,0,0,1,0,1.16v1.1h-.34c-.78,0-1.54,0-2.26,0-1.37,0-2.67,0-3.9-.07l-6.67-.1c-2.09,0-4.08,0-6.2-.07h0c-.75,0-1.54,0-2.43,0a2.66,2.66,0,0,0-.24.38,0,0,0,0,1,0,0,1.86,1.86,0,0,0-.18.34v0a0,0,0,0,1,0,0c0,.1-.07.21-.1.34s0,.07,0,.11,0,.24-.06.34V65c0,.1,0,.24,0,.34v.07c0,.14.07.24.1.38s0,.07,0,.1a1.35,1.35,0,0,0,.17.34l0,0a3.08,3.08,0,0,1,.52,0h.1a1.5,1.5,0,0,1,.44,0c.65,0,1.3,0,2,.07,4.24.1,6.19,0,6.19,0s7.77,0,11.64.07h1v1c0,1,0,1.91,0,2.91s0,1.91,0,2.91v.95h-1c-1.47,0-2.91,0-4.38,0-2.15,0-4.38,0-6.57-.07a2.92,2.92,0,0,0,0,3.63c2.32,0,4.72,0,7,0h-.1l-3.49-.1h1.95c1.47,0,3,0,4.45,0h2.26s.07,0,.07,0v.17c0,.82,0,1.64,0,2.43,0,1.5,0,3,.07,4.48v1.17h-1.61c-.72,0-1.4,0-2.09,0s-1.54,0-2.26,0c-1.19,0-2.29,0-3.42,0l-5.61-.1c-1.34,0-2.81,0-4.45,0h-.79c-.07,0-.14,0-.17,0a1.14,1.14,0,0,0-.17.3s0,.14-.07.24a2.29,2.29,0,0,1-.07.28,2.61,2.61,0,0,0,.14,1.13l.07.13.06.14c0,.07.07.1.07.14s.07.1.11.14h.41c.1,0,.17,0,.27,0a7.35,7.35,0,0,0,1.16.07c3,0,5.65-.14,8.53-.1,1.3,0,3.35.17,4.65.13.76,0,1.82,0,2.91,0,.69,0,1.37,0,2.06,0h.51s0,0,0,0v.61a9.75,9.75,0,0,0,0,1.1c0,1.78.1,2.57.1.27V88.32h-8.52c-2.77,0-5.44,0-8.56,0,2.77,0,5.61-.07,8.59-.07h8.49v2.64c0,1.06,0,2.22,0,3.42,0,.72,0,1.44,0,2.16v1.06a0,0,0,0,1,0,0h-.51c-.52,0-1,0-1.51,0l-7.94-.1H130s0,.07-.07.07l0,0,0,.07a2.08,2.08,0,0,0-.17.48,1.74,1.74,0,0,0,0,1c0,.06.06.17.1.24s0,.06.07.1l0,0h0s.07.1.14.07h.51l.72,0,2.84.11,5.92.2,3.08.11c.52,0,1,0,1.58.06H145v0c.1-6.54.2-12.91.27-19.17.1-6.43.21-12.73.31-19s.17-12.46.27-18.65c0-3.12.07-6.2.11-9.31,0-1.54,0-3.08,0-4.63C144.86,29.37,143.59,29.41,142.33,29.44Z"/><path class="cls-4" d="M80.51,65.49l.06-.07h-.06Z"/><path class="cls-4" d="M80.57,65.42l-.06.07v.06c0-.06.1-.1.13-.17S80.57,65.42,80.57,65.42Z"/><path class="cls-4" d="M104.23,27.45Z"/><path class="cls-2" d="M110.73,39.68l-1.64,2.84c.31-.45.62-.93.92-1.37C110.36,40.5,110.49,40.15,110.73,39.68Z"/><path class="cls-2" d="M107.14,45.53c-.1.14-.17.31-.24.41.2-.31.37-.62.55-.92A5.23,5.23,0,0,1,107.14,45.53Z"/><path class="cls-2" d="M105.53,49a4.39,4.39,0,0,1,.48-1.51,4.94,4.94,0,0,0-.52,1.41,1.84,1.84,0,0,0,0,.41c0,.14,0,.24,0,.37s0,.52-.07.83c0-.24.07-.48.1-.76S105.49,49.26,105.53,49Z"/><path class="cls-2" d="M106.9,46h0c-.28.48-.62,1-.89,1.54a11,11,0,0,1,1-1.41C106.73,46.38,106.59,46.49,106.9,46Z"/><path class="cls-2" d="M107,46.11c.24-.24.54-.68.68-.82C107.45,45.53,107.24,45.8,107,46.11Z"/><path class="cls-3" d="M106.25,67.09c.07,0,0-.17.1-.68v0l0-.18c.45-6.12.42-10.06.69-15.5,0-.52,0-1.06,0-1.58a3.68,3.68,0,0,1,.35-1.26c.2-.45.44-.89.71-1.41.14-.24.28-.51.42-.75L109,45c1-1.95,2-3.94,3-6,.58-1.13,1.13-2.19,1.64-3.25-.72,1.4-1.47,2.81-2.32,4.35-.59,1-1.13,2.19-1.75,3.52l-1,2.09c-.35.75-.82,1.54-1.13,2.26-.07.24-.21.27-.31.41a1.14,1.14,0,0,0-.31.75c0,.65,0,1.3,0,1.92s0,1.23,0,1.85c0,1.23,0,2.43-.1,3.66s-.65,2.91-.62,4c0,1.4,0,4,.07,5.55l0,.13A1.14,1.14,0,0,0,106.25,67.09Z"/><path class="cls-3" d="M121.21,16.81c0,.14,0,.14-.14.44,0,0,0,0,0,.07Z"/><path class="cls-3" d="M118,25.67c.62-1.4.65-1.57.11-.34.58-1.23,1.09-2.46,1.6-3.69h0c-.65,1.64-1.37,3.32-2.09,5l0,0A3.61,3.61,0,0,1,118,25.67Z"/><path class="cls-3" d="M117.58,26.56l0,0s0,.1-.06.14S117.54,26.63,117.58,26.56Z"/><path class="cls-3" d="M120.9,17.94s0,0,0,.07c.07-.24.11-.45.17-.69,0,0,0,0,0-.07s-.07.28-.14.52A.29.29,0,0,1,120.9,17.94Z"/><path class="cls-3" d="M119.7,21.64l.21-.52c.27-.72.51-1.4.75-2.12.1-.34.2-.65.31-1,0,0,0,0,0-.07-.07.27-.17.58-.24.89s-.2.61-.2.61c-.28.72-.55,1.44-.82,2.2h0Z"/><path class="cls-3" d="M121.28,16v0Z"/><path class="cls-3" d="M121.24,15.54a1.36,1.36,0,0,1,0,.38v-.07A.85.85,0,0,0,121.24,15.54Z"/><path class="cls-3" d="M121.21,15.47v.07s0,0,0-.07S121.24,15.47,121.21,15.47Z"/><path class="cls-3" d="M121.28,16a8.12,8.12,0,0,1-.07.85v-.07A3.06,3.06,0,0,0,121.28,16Z"/><path class="cls-3" d="M121.21,15.41s0,0,0,.06,0,0,0-.06Z"/><path class="cls-3" d="M120.93,15.13s0,0,.07,0,.1.1.14.13A.37.37,0,0,0,120.93,15.13Z"/><path class="cls-3" d="M121.21,15.41a.1.1,0,0,0,0-.07A.11.11,0,0,0,121.21,15.41Z"/><path class="cls-2" d="M104.13,65.93Z"/><path class="cls-2" d="M104.54,67.78c0,.14,0,.27,0,.44A2,2,0,0,0,104.54,67.78Z"/><path class="cls-2" d="M112.31,91.81s0,.1.07.14a.27.27,0,0,0-.07-.14,13.65,13.65,0,0,0-.48-1.37C112,91,112.17,91.43,112.31,91.81Z"/><path class="cls-3" d="M102,40.46c.75,0,1.16-.65,1.57-1.23l.31-.55.14-.24.07-.13.27-.55c.75-1.47,1.54-2.95,2.33-4.42.27-.55.58-1.09.85-1.64-1.4,2.26-2.8,4.52-4.17,6.61C102.89,39,102.41,39.74,102,40.46Z"/><path class="cls-2" d="M102.28,35.84c-.17.21-.35.48-.55.72C101.93,36.32,102.11,36.08,102.28,35.84Z"/><path class="cls-2" d="M113.16,94.51c-.1-.44-.24-1-.41-1.47-.1-.34-.24-.72-.37-1.06A19.42,19.42,0,0,0,113.16,94.51Z"/><path class="cls-3" d="M120,14.86a4.22,4.22,0,0,0-1.09-.17,7.49,7.49,0,0,0-.82,0,3.94,3.94,0,0,0-1.82.69h0a2.24,2.24,0,0,0-.51.47.56.56,0,0,0-.1.14l-.11.14-.17.27c-.24.38-.48.76-.75,1.13-1,1.54-2,3.15-3.18,4.93s-2.47,3.8-4,6.13c-1.44,2.12-3.08,4.52-5.13,7.22,1.13-1.47,1.47-1.92,1.33-1.61s-.34.58-.72,1.2c-.2.31-.41.65-.68,1l-.41.61a1.64,1.64,0,0,1-.24.41c0,.07-.1.14-.14.21h-1c-.31,0-.65,0-1,0s-.65,0-1,0c-1.34-.07-2.78-.17-4.25-.27-1.26-.07-2.53-.17-3.73-.28L89.92,37l-.27,0h-.42a1.89,1.89,0,0,1-.44-.1s0,0-.07-.07l0-.1a.44.44,0,0,1-.07-.21c0-.07,0-.14-.07-.2l-.21-.45c-.78-1.57-2.43-2.39-3.45-4s-1.58-4.28-2.91-6l-.24-.31L81.29,25c-.3-.38-.65-.75-1-1.16-.65-.79-1.33-1.54-2-2.3-.38-.41-.76-.82-1.17-1.23s-.61-.65-.92-1c-.69-.68-1.41-1.37-2.09-2A9.93,9.93,0,0,0,70,14.76c-4.32-.93-6.13,4-5.45,5.51l.42.92c.47,1,1,1.95,1.57,3,.27.51.58,1,.89,1.54l.41.75.21.38.24.38.47.75.45.72.86,1.43c.27.48.58.93.85,1.41l.41.68.21.35a.29.29,0,0,1,.1.17l.07.1c1.2,1.92,2.36,3.8,3.52,5.68s2.4,3.73,3.7,5.72c.65,1,1.34,2,2,3,.17.27.34.51.55.79a4.71,4.71,0,0,0,.41.58,2.07,2.07,0,0,1,.2.58,4.33,4.33,0,0,1,.14.75c.07.55.07,1.17.14,1.85,0,.35.1.72.14,1l.13.89c.17,1.19.31,2.39.41,3.62v.18c.14,1.16.24,2.32.38,3.49l.21,1.85c0,.13,0,.23,0,.37.07.48.1.93.14,1.37a11.73,11.73,0,0,1,0,3.25,6,6,0,0,1-.21.69l-.17.44-.17.45c-.21.58-.41,1.16-.58,1.74-.76,2.33-1.48,4.62-2.19,7-.35,1.17-.69,2.33-1.07,3.49-1,3.5-2,7-3,10.51l-.13.45-.07.2-.07.31c-.17.58-.31,1.17-.48,1.78l-.21.93-.1.44-.14.48c-.06.31-.17.65-.24,1l-.17.92-.2.93-.1.48-.07.44-.07.45a1.5,1.5,0,0,0,0,.41l0,.72v.61a.92.92,0,0,0,0,.28l0,.23c0,.18.07.28.1.42s0,.17.07.24,0,.06,0,.1a2.69,2.69,0,0,0,.62.89.9.9,0,0,0,.38.31,1,1,0,0,0,.27.13c.1,0,.34.14.45.17a.79.79,0,0,0,.27,0h.27a2.5,2.5,0,0,0,.59-.1l.65-.24.06,0s.07,0,.11-.07l.17-.1,0,0,.38-.28c.2-.2.44-.48.68-.72,1-1.13,2-2.56,3.15-4,.48-.65,1-1.26,1.47-1.88l.38-.48.34-.48.21-.27.41-.55c.27-.37.55-.75.79-1.13.51-.75,1.06-1.5,1.57-2.29s.93-1.34,1.37-2c1.61-2.43,3.22-5,4.72-7.6h0l.21-.38.07-.1,0,0h0s0,0,0-.07l0-.07v0s0,0,0-.11a.81.81,0,0,0,.1-.27,1.91,1.91,0,0,1,.11-.41s0-.07,0-.1,0,0,0-.07h0l.07,0,.21.14.58.58,0,0,0,0,0,.07,0,0,.1.17.27.45c.14.24.28.48.45.72,0,.06.07.1.1.17s.17.27.24.41.1.17.17.27c.24.34.45.72.69,1.06.58,1,1.2,2.06,1.81,3.08.45.76.89,1.51,1.37,2.26s1,1.68,1.58,2.54c1.06,1.64,2.12,3.25,3.18,4.62a34,34,0,0,0,2.87,3.39,11.84,11.84,0,0,0,1.85,1.54l.58.37,0,0a0,0,0,0,1,0,0,0,0,0,0,1,0,0l0,0,0,0s.07,0,.1.06a7.92,7.92,0,0,0,.72.35l.44.17c.31.1.62.2.93.27a4.62,4.62,0,0,0,1.37.14,2.7,2.7,0,0,0,.89-.24,2.08,2.08,0,0,0,.41-.31,2.68,2.68,0,0,0,.27-.34,3.9,3.9,0,0,0,.48-1.3,8.64,8.64,0,0,0,.17-1.41c0-.51,0-1,0-1.6a7.77,7.77,0,0,1,0,.85c0,.27,0,.51,0,.79a7.58,7.58,0,0,1-.2,1.33,3.83,3.83,0,0,1-.48,1.24,2.1,2.1,0,0,1-.69.61,2.29,2.29,0,0,1-.85.21,5.31,5.31,0,0,1-1.3-.17,6.75,6.75,0,0,1-.72-.24l-.51-.21c-.21-.1-.45-.2-.65-.31,0,0-.07,0-.11-.07h0a0,0,0,0,1,0,0s0,0,0,0l0,0a13.52,13.52,0,0,1-2.29-1.68c-.24-.2-.41-.41-.55-.54a3.37,3.37,0,0,1-.38-.45c-.17-.24-.24-.34-.2-.37s.17,0,.37.17.21.13.35.2.27.17.41.28c.58.37,1.26.75,1.88,1.06.38.17.75.34,1.09.51,0,0,0,0,0,0s0,0,0,0h0s.07,0,.11.07.2.1.3.13a5.43,5.43,0,0,1,1,.59,6.34,6.34,0,0,0,.62.34,2.09,2.09,0,0,0,1,.24,1.46,1.46,0,0,0,.51-.17,1,1,0,0,0,.31-.35,2.4,2.4,0,0,0,.34-.65,4.69,4.69,0,0,0,.14-.65,11.18,11.18,0,0,0,.06-1.47,22.74,22.74,0,0,0-.51-3.8c-.2-.72-.07-.82.1-.82s.35.07.24-.31a28.19,28.19,0,0,0-1.19-3.73c-.48-1.23-1-2.39-1.44-3.42a41,41,0,0,1-2.09-5.14c-.51-1.71-1-3.25-1.4-4.75-.31-.93-.62-1.89-1-2.85-.27-.58-.54-1.19-.85-1.81-.58-1.23-1.17-2.53-1.75-3.83-.14-.35-.31-.65-.44-1a7.88,7.88,0,0,1-.38-.92,3.78,3.78,0,0,1-.24-1.75v-.06c.1-2.33.21-4.63.31-6.89,0,0,0,0-.07.07a64.63,64.63,0,0,1-.79,6.75v0a4.9,4.9,0,0,0-.13,1.71c0-.34,0-.48.06-.44a10.88,10.88,0,0,1,.38,1.13c0,.37.07.82.1,1.2a13.48,13.48,0,0,1-.68-1.78,3.91,3.91,0,0,1-.07-1.89h0a29.52,29.52,0,0,1,.69-4V60.52c.17-.85.3-.79.47-1,0-.58.07-1.19.11-1.78-.17.62-.45,1.89-.69,3s-.41,2.08-.41,2.08c-.14,1.17-.24,2.33-.37,3.32h0a4.92,4.92,0,0,0,.13,2.47c.1.41.28.75.38,1.13s.27.75.38,1.13c.51,1.47,1,2.94,1.54,4.38,1,2.87,2,5.72,2.94,8.52.14.24.27.41.41.65a2.3,2.3,0,0,1,.31.82,8.65,8.65,0,0,0,.24,1.44c.27.89.58,1.78.85,2.64.14.34.24.65.38,1v0c.27.61.38.61.45.41v-.76a6.39,6.39,0,0,1,0,.76,9.43,9.43,0,0,0,.17,1.26c.13.41.27.82.41,1.27a13.08,13.08,0,0,1,.41,1.47c-.38-1.09-.62-1.88-.79-2.53,0,0,0-.1-.07-.14-.13-.38-.31-.85-.48-1.37h0a3.19,3.19,0,0,0-.13-.34,3.91,3.91,0,0,0-.24-.51c.61,2,1.16,3.93,1.61,5.85.13.51.27,1,.37,1.44,0,.07,0,.13,0,.2a5.71,5.71,0,0,1,.27,2.3.62.62,0,0,1-.24.41.48.48,0,0,1-.48.07l-.2-.11h0l-.14-.07a.78.78,0,0,1-.21-.17,3.83,3.83,0,0,1-.51-.54,6.1,6.1,0,0,1-.89-.72l.24.34c-.17-.17-.27-.34-.41-.48a29.63,29.63,0,0,1-3.08-3.63c-1.82-2.46-3.43-4.93-4.9-7.39-.44-.76-.89-1.51-1.33-2.26l-1.34-2.33c-.44-.79-.85-1.54-1.26-2.33l-.38-.68-.38-.72c-.24-.48-.51-1-.72-1.47-.47-1-.92-2.13-1.4-3-.1-.2-.24-.41-.34-.58s-.24-.34-.34-.48l-.31-.41L95,73l-.07-.1,0,0s0,0,0,0a2.31,2.31,0,0,0-.85.72,4.5,4.5,0,0,0-.31.55l-.31.58-.07.11-.27.48h0l-.34.68-.72,1.4-.89,1.82-.45.92a2,2,0,0,1-.24.45l-.2.37-.21.41-.51,1-.75,1.37L88,84.86c-.82,1.4-1.64,2.81-2.5,4.24-1.09,1.82-2.22,3.6-3.35,5.38l-.41.65c-.1.17-.21.31-.31.48l-.65.92c-.41.62-.86,1.23-1.3,1.85-.34.45-.69.93-1,1.37a2.45,2.45,0,0,1-.58.62c-.07,0-.14,0-.17-.11a1.18,1.18,0,0,1-.07-.2,2.27,2.27,0,0,1,0-.45,28.52,28.52,0,0,1,.51-3.56c.1-.58.24-1.16.38-1.74.17-.76.34-1.51.48-2.3.37-1.74.78-3.49,1.23-5.23.75-3.12,1.57-6.2,2.43-9.21.44-1.51.89-3,1.33-4.52l.72-2.22.38-1.1.1-.27.1-.28a4.69,4.69,0,0,0,.18-.61,9.05,9.05,0,0,0,.17-2.47c0-.41,0-.79-.07-1.16l0-.58a3.46,3.46,0,0,0-.06-.59c-.11-1-.21-1.91-.28-2.87,0-.17,0-.34,0-.52a11.11,11.11,0,0,1-.07-1.16c0-.41,0-.79-.07-1.2v0c-.07-1.13-.14-2.23-.21-3.36l0-.24-.07-.89-.1-1.16c-.07-.68,0-1.4,0-2.22A6.45,6.45,0,0,0,84,47.51c-.38-.68-.76-1.37-1.1-2-.72-1.3-1.4-2.63-2.09-3.93-1.37-2.64-2.7-5.24-4-7.84-.34-.65-.65-1.3-1-1.95l-.45-.93-.17-.34-.72-1.33c-.44-.89-.92-1.75-1.27-2.61l-.1-.3c0-.07,0-.11,0-.17a.14.14,0,0,1,.1-.14c.14,0,.24,0,.38.1l.34.21a9.58,9.58,0,0,1,1.16,1.06,20.13,20.13,0,0,1,1.85,2.15,1.07,1.07,0,0,1,.17.24l.69.79.51.62c.31.34.58.68.89,1.06l2.77,3.39c.89,1.13,1.82,2.29,2.64,3.45l.17.21,0,0a0,0,0,0,1,0,0l.07.1.13.21.62.85.31.41.14.21.06.1a.13.13,0,0,0,.11,0l1,.13.51.07h1.85c.31,0,.65,0,1,0,1.16,0,2.46-.11,3.83-.17s2.84-.14,4.39-.24c.37,0,.78,0,1.16-.07.2,0,.38,0,.58,0a3.18,3.18,0,0,0,.48,0,3.23,3.23,0,0,0,.62,0h.13c.48-.71.93-1.43,1.41-2.15,1.37-2.09,2.77-4.35,4.17-6.61s2.5-4.76,3.7-6.91c1.47-2.67,2.84-5.1,4-7,.21-.35.38-.66.55-.93a2.76,2.76,0,0,0,.24-.44.64.64,0,0,1,.1-.14c0-.07.11-.1.14-.17a3.45,3.45,0,0,1,.93-.69c.1,0,.2-.1.3-.13a4.54,4.54,0,0,1,1.37-.24,5.17,5.17,0,0,1,.72,0c.52.07.86.17,1.06.21s.28.06.24,0C120.83,15.2,120.45,15,120,14.86ZM102.41,86.47l.21.31a1,1,0,0,1,.17.27,9.08,9.08,0,0,1,.62,1.06c.37.72.68,1.51,1.06,2.33a16.87,16.87,0,0,1-1.41-2.16c-.24-.41-.44-.82-.61-1.19s-.38-.86-.55-1.27A5.11,5.11,0,0,1,102.41,86.47Z"/><path class="cls-2" d="M103.89,18a2,2,0,0,1,.34.41c0-.07-.1-.14-.14-.21A1.88,1.88,0,0,0,103.89,18Z"/><path class="cls-2" d="M104.57,18.86s0,0,0,.07l-.1-.14S104.54,18.83,104.57,18.86Z"/><path class="cls-2" d="M104.78,19.14a2.52,2.52,0,0,0,.24.37C105,19.38,104.84,19.27,104.78,19.14Z"/><path class="cls-2" d="M104.6,18.93h0c0,.07.11.14.14.21a.64.64,0,0,0-.14-.21C104.67,19,104.67,19,104.6,18.93Z"/><path class="cls-2" d="M104.64,18.93l-.07-.14S104.6,18.86,104.64,18.93Z"/><path class="cls-2" d="M104,17.94l.44.44.28.28c.1.1.17.2.27.31s0,.1.1.24a6.77,6.77,0,0,1,.69,1,.48.48,0,0,1,.1.31c0,.14,0,.24.1.31s.14.24.21.37.14.31.2.42.24.34.11,0a8.11,8.11,0,0,0-1.2-2.29,10.32,10.32,0,0,0-1.44-1.58,2.22,2.22,0,0,0-.44-.37C103.61,17.56,103.78,17.77,104,17.94Z"/><path class="cls-2" d="M102,16.43c-.21-.13-.24-.13,0,0h0a.64.64,0,0,1,.21.14Z"/><path class="cls-2" d="M101.22,16.06l.17.06A.26.26,0,0,1,101.22,16.06Z"/><path class="cls-2" d="M101,16l-.24-.11a.64.64,0,0,1-.14-.06,3.17,3.17,0,0,1,.62.24A.56.56,0,0,1,101,16Z"/><path class="cls-2" d="M101.35,16.16a4.65,4.65,0,0,1,.55.27A2.81,2.81,0,0,0,101.35,16.16Z"/><path class="cls-2" d="M100.33,15.75h0c.06,0,.13,0,.2.07S100.43,15.78,100.33,15.75Z"/><path class="cls-2" d="M100.6,15.82h0Z"/><path class="cls-2" d="M106.38,24.92v0Z"/><path class="cls-2" d="M105.22,30a6.84,6.84,0,0,0,1.23-2.91,14.38,14.38,0,0,1-.48,1.4c-.1.21-.2.45-.3.69s-.28.48-.45.72c0,0-.07.06-.07.1a1.59,1.59,0,0,1-.07.2C105.08,30.12,105.15,30.06,105.22,30Z"/><path class="cls-2" d="M92.11,34l-.27-.1c-.14,0-.24-.11-.38-.14h0A6,6,0,0,0,92.11,34Z"/><path class="cls-2" d="M86.22,27.32c.11.44.24.92.38,1.37A8.73,8.73,0,0,0,88,31.15a5.9,5.9,0,0,0,.48.55s.06.07.1.07A9.7,9.7,0,0,1,86.19,27C86.19,27.08,86.22,27.22,86.22,27.32Z"/><path class="cls-2" d="M105.05,30.19a1.59,1.59,0,0,1,.07-.2s-.07,0-.07.07a2.64,2.64,0,0,1-.1.27C105,30.26,105,30.23,105.05,30.19Z"/><path class="cls-2" d="M104.19,27.45h0s0,0,0,0S104.19,27.42,104.19,27.45Z"/><path class="cls-3" d="M106.38,24.92l0-.07v0h0c.07-.31.17-.55.24-.82a3.08,3.08,0,0,0,0-.52,1,1,0,0,0-.07-.34,10.17,10.17,0,0,0-.82-2.46h0a3.41,3.41,0,0,1,.28,1.43c0-.2.07-.2.1,0l-.07.2a8.9,8.9,0,0,1-.24-1.23l-.14-.24c0-.14,0-.14,0-.17s-.07-.17-.1-.27c0,.1.06.3.1.48l.07.34a5.85,5.85,0,0,1-.07,3.35s0,.07,0,.1h0a.15.15,0,0,1,0,.18c0,.06-.1.1-.13.17s0,0,0,.07-.1.3-.14.44,0,.1,0,.17h0c0,.1.07.1.14.07s.1-.1.17-.14a.61.61,0,0,1-.17.14.78.78,0,0,0-.17.21.87.87,0,0,0-.07.24.45.45,0,0,0,0-.18s0,0,0,0,0-.17.06-.27v-.07a6.79,6.79,0,0,1-.51.92l-.1.21c-.07.24-.21.48-.45.51l-.1.1v0h0a0,0,0,0,0,0,0,1.81,1.81,0,0,1-.24.24l-.35.31a3.78,3.78,0,0,1-.61.44,3.37,3.37,0,0,1-.34.21,1.41,1.41,0,0,1-.35.17A9.69,9.69,0,0,1,98.58,30a8.14,8.14,0,0,1-3.53-.55s0,0-.06,0-.07,0-.11,0l-.2-.11L94,29c-.21-.14-.41-.24-.62-.38A6.51,6.51,0,0,1,91,24.75a19.83,19.83,0,0,1-.35-2,6.3,6.3,0,0,1,.21-2.09l0-.1a4.79,4.79,0,0,1,.38-1.1,5.48,5.48,0,0,1,.68-1.09,7.49,7.49,0,0,1,.69-.69c.14-.1.24-.2.38-.3a10.7,10.7,0,0,1,1-.69A11,11,0,0,1,95.4,16a5.55,5.55,0,0,1,1.16-.34c.24,0,.51-.11.75-.14h.17c.21,0,.38,0,.59,0a6.48,6.48,0,0,1,1.26.11,2.63,2.63,0,0,1,.58.13l.35.11.2.06a2.82,2.82,0,0,1-.31-.1c-.13,0-.27-.1-.41-.13l-.41-.11-.44-.1c-.17,0-.31,0-.48-.07-.34,0-.72-.07-1.17-.07a13.21,13.21,0,0,0-1.57.07c.82,0,.51,0-.17.1s-1.78.41-2.6.59c-.14,0-.28,0-.41.06s-.35.11-.55.14a8.17,8.17,0,0,0-1.58.72,7,7,0,0,0-1.57,1.3,7.4,7.4,0,0,0-.79,1.1l.07-.14a12.8,12.8,0,0,0-1.68,3.7A6.13,6.13,0,0,0,86.15,25c0,.35,0,.65.07,1a5.14,5.14,0,0,0,.11,1.06,9.38,9.38,0,0,0,2.43,4.79c.13.14.3.28.44.42a5.67,5.67,0,0,0,1.16.85c.21.14.45.28.69.41s.38.17.55.28.24.1.37.13l.28.11s0,0,.07,0l.65.24s0,0,0,0c.24.06.45.13.68.2l.14,0,.41.11.45.07c.31,0,.58.1.89.13a6.63,6.63,0,0,0,.89,0,16.87,16.87,0,0,0,1.74-.07l.86-.14a6.39,6.39,0,0,0,.85-.17,6,6,0,0,0,1.1-.48,5.8,5.8,0,0,0,.92-.65c.28-.24.55-.51.79-.75a7.65,7.65,0,0,0,.55-.62.61.61,0,0,1,.14-.14c.17-.13.34-.3.54-.44l.11-.1.41-.31c.2-.17.44-.38.61-.55l.11-.27s0,0,0,0a.76.76,0,0,1,0-.37,4.69,4.69,0,0,1,.2-.82.83.83,0,0,0,.07-.24.21.21,0,0,1,.07-.14c.17-.14.48-.17.51-.38a1.59,1.59,0,0,0,.21-.68,5.93,5.93,0,0,0,.1-.72c0-.24.27-.07.27-.21a1.75,1.75,0,0,0,0-.44,2,2,0,0,0-.07-.45,2.31,2.31,0,0,1,0-.68C106.42,24.89,106.38,24.89,106.38,24.92Zm-4.24,4.21c.14-.37.51-.31.86-.27A.8.8,0,0,1,102.14,29.13Z"/><path class="cls-3" d="M85.61,68.29s-.11.69-.11-.48l0-.92-.1-.69,0-.68s.28-.21,3.36-.55a11,11,0,0,1,2.87-.37s12,.23,12.87.65c0,0-7.49-.62-8-.45,0,0,7.15.51,7.7.89,0,0-7-.58-7.57-.1,0,0,6.4.55,7.19,1a8.9,8.9,0,0,0-1.54-.14l.58.14-.92,0-.55-.11a9.17,9.17,0,0,1,1.54.48s.65-.2-1.95-.13A39.1,39.1,0,0,0,85.61,68.29Z"/><path class="cls-3" d="M85.33,65.25s3.73-.52,7.33-.79c0,0,7.84.1,8.69.24A22.18,22.18,0,0,1,105,65"/><path class="cls-3" d="M96.73,64.53c-.65-.11-5.41-.07-5.41-.07a39.8,39.8,0,0,0-6,.79"/><path class="cls-3" d="M96.87,65.45s5.61.31,6.84.48"/><path class="cls-3" d="M95.26,66.75s6.47.45,7,.58"/><path class="cls-3" d="M79.21,42.35s.3.75-.31-.48l-.52-1L78,40.15l-.34-.75s0-.27,1.16-1.33a2.53,2.53,0,0,1,1.07-1s5.37-2.36,6-2.12c0,0-3.63,1-3.74,1.3,0,0,3.43-1,3.87-.76,0,0-3.35.93-3.39,1.55,0,0,3.12-.83,3.7-.52,0,0-.65.07-.75.21l.34,0-.41.17h-.31s.82,0,1,.21c0,0,.17-.34-.92.27C85.2,37.42,81.88,37.52,79.21,42.35Z"/><path class="cls-3" d="M77.46,39.13s1.37-1.37,2.77-2.5c0,0,3.53-1.61,3.94-1.64A5.61,5.61,0,0,1,86,34.54"/><path class="cls-3" d="M82.05,35.84A20.61,20.61,0,0,0,79.65,37a9.07,9.07,0,0,0-2.19,2.19"/><path class="cls-3" d="M82.63,36.83a33.24,33.24,0,0,1,3.25-1"/><path class="cls-3" d="M82.63,38.58A27.89,27.89,0,0,1,86,37.69"/><path class="cls-3" d="M110.66,41.35s-.27.69.28-.44l.48-.89.37-.65.31-.65s0-.24-1.2-1.3a2.52,2.52,0,0,0-1.09-1s-5.38-2.39-6-2.19c0,0,3.6,1.06,3.7,1.34,0,0-3.39-1.1-3.84-.86,0,0,3.33,1,3.39,1.58,0,0-3.08-.89-3.62-.62,0,0,.65.07.75.21h-.31l.41.17h.27a2.62,2.62,0,0,0-.92.13s-.2-.34.92.31C104.64,36.56,107.89,36.8,110.66,41.35Z"/><path class="cls-3" d="M112.27,38.48a28.74,28.74,0,0,0-2.84-2.4s-3.49-1.61-3.94-1.68a6.53,6.53,0,0,0-1.74-.48"/><path class="cls-3" d="M107.65,35.23a19.91,19.91,0,0,1,2.4,1.12,10.17,10.17,0,0,1,2.26,2.09"/><path class="cls-3" d="M107.1,36.12a29.32,29.32,0,0,0-3.25-1"/><path class="cls-3" d="M107.17,37.76s-3-1-3.35-1"/><path class="cls-3" d="M162.15,90.68V37.51l24.17,38,24.16-38V90.68h-3.8V50.26L186.32,82,166,50.26V90.68Z"/><path class="cls-3" d="M227.84,90.91,212.92,53.09h3.88l12.9,33,13.13-33h3.95L229,97.32a18.28,18.28,0,0,1-3.8,6.42,8.76,8.76,0,0,1-6.27,2.38,9.49,9.49,0,0,1-3.43-.59V102.1a9.56,9.56,0,0,0,3.43.52,5.45,5.45,0,0,0,4-1.64,13.54,13.54,0,0,0,2.61-4.48Z"/><path class="cls-3" d="M292,43.47l-2.31,2.76a22.56,22.56,0,0,0-14.32-4.77,22.05,22.05,0,0,0-16.41,6.71,22.44,22.44,0,0,0-6.57,16.56,23.17,23.17,0,0,0,6.49,16.71,22.33,22.33,0,0,0,16.49,6.63,22.73,22.73,0,0,0,15.73-5.74V66.59H274V63h21V83.75a26.9,26.9,0,0,1-19.61,7.9,26.36,26.36,0,0,1-26.85-26.92A27,27,0,0,1,292,43.47Z"/><path class="cls-3" d="M298.07,90.68V37.28l36.47,44.38v-43h3.88V92.1L302,47.72v43Z"/><path class="cls-3" d="M343.27,38.7h3.88V73.08c0,9.55,5.59,14.92,14.61,14.92s14.62-5.37,14.62-14.92V38.7h3.88V73.46c0,5.74-1.72,10.21-5.07,13.42s-7.83,4.7-13.43,4.7-10.07-1.57-13.42-4.7-5.07-7.68-5.07-13.42Z"/><path class="cls-3" d="M384.44,90.68v-52h9.32V59h25V38.7H428v52h-9.24V67.41h-25V90.68Z"/><path class="cls-3" d="M431.52,71.89c0-6,1.86-10.74,5.51-14.4s8.43-5.44,14.18-5.44a17.5,17.5,0,0,1,13.35,5.44A18.72,18.72,0,0,1,469.78,71c0,1.12-.08,2.17-.15,3.14H440.39c.3,6,4.7,9.84,11.34,9.84a13.85,13.85,0,0,0,10.14-4.32l5.37,5.22a20.86,20.86,0,0,1-15.81,6.71c-5.89,0-10.74-1.79-14.4-5.3s-5.51-8.2-5.51-14.09Zm29.16-4a7.28,7.28,0,0,0-2.84-5.74,9.6,9.6,0,0,0-6.63-2.46A11.6,11.6,0,0,0,444,62a8.23,8.23,0,0,0-3.36,5.82Z"/><path class="cls-3" d="M486.94,67.79c6.34-.6,8.58-1.42,8.58-4.33,0-2.31-2.09-4.1-6.27-4.1a12.52,12.52,0,0,0-10.07,4.92l-5.52-4.7c3.66-5.14,8.81-7.68,15.44-7.68,9.33,0,15.14,4.48,15.14,12.16V80.69c0,2.61,1,2.91,3.14,2.91h.22v6.94a8.59,8.59,0,0,1-4.18.82,5.68,5.68,0,0,1-6.11-4.26c-2.61,3.06-6.86,4.63-12.76,4.63-8.28,0-13.87-4.55-13.87-11.41C470.68,72.63,475.83,68.76,486.94,67.79Zm-1,16.33c6,0,9.62-2.68,9.62-7.46V72.49a4.41,4.41,0,0,1-1.87,1.11c-1.71.6-2.83.75-6.41,1.12-5.22.6-7.83,2.24-7.83,4.85C479.41,82.48,481.79,84.12,485.9,84.12Z"/><path class="cls-3" d="M510.37,38.7h9V78.38c0,3.65,1.19,5.22,4.47,5.22a9.69,9.69,0,0,0,2.69-.3v8a16,16,0,0,1-4.25.45c-7.91,0-11.86-4-11.86-12.16Z"/><path class="cls-3" d="M529.54,61.22h-4.7V53.09h4.7V38.7h9V53.09h8.28v8.13h-8.28V78c0,4.11,1.41,5.6,4.7,5.6a14.22,14.22,0,0,0,3.13-.3v8a20.61,20.61,0,0,1-4.63.45c-8.13,0-12.15-4.25-12.15-12.76Z"/><path class="cls-3" d="M549.72,90.68v-52h8.88V58.31c1.71-3.58,5.81-6,11-6,8.65,0,13.72,5.74,13.72,15.06V90.68h-8.87v-22c0-5.14-2.76-8.35-7.54-8.35s-8.27,3.58-8.27,8.72V90.68Z"/></g></g></svg>