<svg xmlns="http://www.w3.org/2000/svg" viewBox="0 0 512 512"><defs><style>.cls-1{fill:none;}.cls-2{fill:#117d96;}.cls-3{fill:#12abc4;}.cls-4{fill:#fff;}.cls-5{fill:#f2f2f2;}</style></defs><g id="Capa_2" data-name="Capa 2"><g id="Capa_3" data-name="Capa 3"><rect class="cls-1" width="512" height="512"/><path class="cls-2" d="M375.49,166.58c0-.26-.09-.52-.14-.78-.22-1.14-.45-2.26-.7-3.39-.16-.72-.32-1.44-.49-2.16-.07-.28-.16-.55-.23-.83-.17-.64-.35-1.28-.53-1.92s-.36-1.25-.56-1.88c-.29-1-.61-2-.94-2.94,0,0,0-.09,0-.13a90.48,90.48,0,0,0-3.7-9.22c-.47-1-1-2-1.47-3a74.89,74.89,0,0,0-4.8-8.17,83.53,83.53,0,0,0-5.86-7.66l-.59-.67c-.53-.61-1.06-1.22-1.61-1.81q-2.31-2.51-4.84-4.84c-1-1-2.09-1.89-3.18-2.8a78.58,78.58,0,0,0-9.25-6.58c-1.94-1.21-4-2.31-6-3.35a84.84,84.84,0,0,0-17.33-6.71c-.87-.23-1.74-.44-2.63-.65l-.41-.08c-3.45-.83-7-1.49-10.52-2s-7.13-.84-10.73-1h0c-1.25-.08-2.5-.13-3.75-.18l-1.22,0c-.85,0-1.7,0-2.55,0H280.2c-1.17,0-2.34,0-3.51.07l-1.08,0c-1.45.06-2.9.15-4.34.27l-.83.07c-1.2.11-2.41.23-3.61.38l-1.19.15c-1.45.19-2.89.4-4.32.65l-.86.11A86.37,86.37,0,0,0,241.68,101q-1.77.75-3.51,1.56c-2.31,1.08-4.56,2.26-6.75,3.52a84.3,84.3,0,0,0-12.56,8.54c-2.32,1.9-4.53,3.91-6.64,6-1.48,1.43-2.91,2.91-4.29,4.42s-2.71,3-4,4.62c-.64.79-1.27,1.58-1.88,2.38q-1.84,2.4-3.51,4.88c-.56.83-1.11,1.66-1.64,2.49a103.33,103.33,0,0,0-15.3-18.79,91.59,91.59,0,0,0-9-7.86,83.71,83.71,0,0,0-10.2-6.68,88.45,88.45,0,0,0-21.29-8.84c-2.53-.67-5.12-1.24-7.75-1.69l-.85-.11c-1.44-.25-2.88-.46-4.33-.65L127,94.59c-1.2-.15-2.41-.27-3.62-.38l-.81-.07q-2.17-.18-4.35-.27l-1.07,0c-1.18,0-2.35-.06-3.52-.07h-1.19c-.85,0-1.7,0-2.55,0l-1.22,0c-1.25.05-2.5.1-3.75.18-1.8.09-3.6.22-5.39.39A113.44,113.44,0,0,0,83.67,97l-.41.08a84.64,84.64,0,0,0-20,7.36c-2,1-4.07,2.14-6,3.35A78.42,78.42,0,0,0,41.92,120c-.65.66-1.28,1.33-1.9,2s-1.07,1.2-1.61,1.81l-.59.67c-1.06,1.23-2.07,2.49-3,3.76a77.06,77.06,0,0,0-7.61,12.07q-1.53,3-2.82,6.06T22,152.55s0,.09,0,.13c-.33,1-.64,2-.94,2.94-.2.63-.38,1.25-.56,1.88s-.36,1.28-.53,1.92c-.07.28-.16.55-.23.83-.14.59-.27,1.17-.4,1.76l-.09.4c-.25,1.13-.48,2.25-.69,3.39-.05.26-.11.52-.15.78-.52,2.82-.91,5.67-1.2,8.52,0,.35-.07.69-.1,1-.07.83-.15,1.67-.2,2.51-.08,1.15-.14,2.31-.19,3.47,0,.47,0,.94,0,1.41,0,1.19-.05,2.38,0,3.57,0,.19,0,.39,0,.58,0,1.12,0,2.23.09,3.35a105.08,105.08,0,0,1,32.9-21.54q2.31-1,4.67-1.8a103.47,103.47,0,0,1,14.62-4.05c1.67-.33,3.35-.63,5-.88,3.39-.51,6.84-.85,10.33-1,1.75-.08,3.51-.13,5.28-.13A105.23,105.23,0,0,1,194.65,266.94q0,3.84-.27,7.61a104.6,104.6,0,0,1-15.69,48.19c-.63,1-1.28,2-1.95,3q-2,3-4.18,5.78c-.73.94-1.47,1.87-2.23,2.78A106.6,106.6,0,0,1,157.85,347a105.47,105.47,0,0,1-20.73,13.89q10.44,6.77,21.29,13l-.14.08c4.33,2.39,8.62,4.84,13,7.22,3.25,1.79,6.54,3.53,9.88,5.18q1.66.82,3.36,1.62a45.09,45.09,0,0,0,5.76,2.52c.67.28,1.33.57,2,.83.38.09.76.16,1.14.23l.37.05.74.09.44,0,.67,0h2.66l.67,0,.44,0,.75-.09.36-.05c.38-.07.76-.14,1.14-.23.67-.26,1.33-.55,2-.83a45.21,45.21,0,0,0,5.77-2.52l3.36-1.62c6.68-3.3,13.12-7,19.59-10.6l3.24-1.8-.13-.08a406.1,406.1,0,0,0,62-43.19q6.54-5.6,12.71-11.47c.1-.27.19-.55.29-.82l.06-.16.06-.17a7.21,7.21,0,0,0,.34-1.16c.05-.25.05-.37.06-.37h0l-.11-.5-.06-.51c-.6-5-1.14-10-1.63-14.94s-1-9.91-1.41-14.77c-.14-1.48-.27-3-.41-4.48s-.29-3-.43-4.54-.32-3.33-.49-5c-.13-1.36-.27-2.71-.41-4.06l0-.34v0a12.24,12.24,0,0,0-.75-1.38c-.33-.54-.71-1.13-1-1.6s-.57-.89-.87-1.37-.61-1-.92-1.51C289,239.71,274.7,216.56,260.5,193.37a24.11,24.11,0,0,1-2.49-4.91,26.55,26.55,0,0,1-1.67-9.54,27.08,27.08,0,0,1,.65-5.59q.17-.71.36-1.38a25.65,25.65,0,0,1,2-5.08,24.28,24.28,0,0,1,9-9.5,24.79,24.79,0,0,1,2.35-1.21A27.89,27.89,0,0,1,282,153.77a26.05,26.05,0,0,1,8.3,1.32,23.41,23.41,0,0,1,6,3c.36.26.71.52,1.06.8a21.47,21.47,0,0,1,3.73,3.77l.41.52.35.57,3.32,5.38q1.67,2.7,3.32,5.4c2.21,3.59,4.4,7.18,6.57,10.71.27-.56.56-1.12.86-1.67.61-1.1,1.26-2.18,2-3.22.35-.52.72-1,1.09-1.54.75-1,1.56-2,2.4-2.92a38.78,38.78,0,0,1,5.59-5.12,37.38,37.38,0,0,1,6.55-4,34.13,34.13,0,0,1,3.59-1.46c.53-.2,1.06-.39,1.59-.56A37.46,37.46,0,0,1,350.48,163a40.05,40.05,0,0,1,23.18,7.33c.94.67,1.84,1.37,2.71,2.11C376.12,170.45,375.85,168.51,375.49,166.58Z"/><path class="cls-3" d="M161.9,278.25a10.5,10.5,0,0,1,0-21h13.62a89.13,89.13,0,0,0-18.16-44.77l-11,11.27a10.41,10.41,0,0,1-14.8,0,10.75,10.75,0,0,1,0-15l11.15-11.39a85.35,85.35,0,0,0-43.74-18.58V195a10.7,10.7,0,0,1-3.56,8,10.27,10.27,0,0,1-8.15,2.55A10.65,10.65,0,0,1,78,194.84v-16a87.34,87.34,0,0,0-44.58,18.61L44.7,208.84a10.58,10.58,0,0,1-14.9,15l-11.33-11.4A88.52,88.52,0,0,0,0,257.26H16.14a10.5,10.5,0,1,1,0,21H0a86,86,0,0,0,18.62,44L30,311.06a10.54,10.54,0,1,1,14.71,15.1L33.64,337.07a90.16,90.16,0,0,0,110.49,0L132.86,326a10.42,10.42,0,0,1-3.06-8.57,10.53,10.53,0,0,1,4.92-7.78,10.79,10.79,0,0,1,13.19,1.6l11.24,11.08a86.09,86.09,0,0,0,18.57-44Z"/><path class="cls-2" d="M511.85,192.22a7.68,7.68,0,0,0-7.51-6.16H464.52a7.7,7.7,0,0,0,0,15.4h32.16V222H444.61a7.7,7.7,0,0,0,0,15.4h52.07v20.53H464.52a7.7,7.7,0,0,0,0,15.4h32.16v20.54H444.61a7.7,7.7,0,0,0,0,15.4h52.07v20.54H464.52a7.7,7.7,0,0,0,0,15.4h32.16v20.53H444.61a7.7,7.7,0,0,0,0,15.4h52.07v20.54H464.52a7.7,7.7,0,0,0,0,15.4h39.82a7.66,7.66,0,0,0,7-4.62H512V192.22Z"/><path class="cls-4" d="M118.87,227.41l-17.94,18a25.49,25.49,0,0,0-35.49,11.5,25.92,25.92,0,0,0,10.38,33.28,25.49,25.49,0,0,0,35.09-9.84A25.85,25.85,0,0,0,111.2,256l15.59-15.64a7.41,7.41,0,0,0,0-10.45,7.32,7.32,0,0,0-10.4,0ZM88.56,278.64a10.88,10.88,0,1,1,10.83-10.88A10.85,10.85,0,0,1,88.56,278.64Z"/><path class="cls-3" d="M319.48,412.89c7.55-20.91,14.92-42.36,22-63.09q2.7-7.86,5.38-15.63l1.88-5.46,4.16,4a13.43,13.43,0,0,1,3.35,5.19c4.38,12.66,8.89,25.5,13.25,37.93l.23.65q5.75,16.33,11.44,32.68c1,2.85,2.24,5.81,4.38,7.48l.11.08A11.31,11.31,0,0,0,396,418.82a11,11,0,0,0,7.77-6.56l.08-.22c1.74-3.66.44-8.19-.68-11.28-5.6-15.59-11.15-31.3-16.51-46.48q-5.38-15.28-10.81-30.57c-2-4.8-1.53-9.82-1.14-14.26.06-.75.12-1.44.17-2.12.73-5.89,1.23-11.75,1.7-17.41.44-5.19.89-10.57,1.51-15.88a38.94,38.94,0,0,0,.32-4.25c.13-3.66.28-7.8,2.77-11.54,6.34-10.42,12.78-20.95,19.23-31.49,8.58-14,17.42-28.49,26.07-42.74,1.4-2.14,1.65-5.14.8-9.23-.88-2.45-3.27-4.16-6.43-4.6-3.53-.49-6.85.76-8.46,3.17-6.81,10.52-13.31,21.57-19.6,32.26-6.09,10.35-12.35,21-18.95,31.27l-1.1,1.7h-2c-13-.07-26.46-.14-39.83.16l-2.06,0-1.12-1.74c-8.89-13.85-17.6-28.11-26-41.89l-.18-.28c-4.45-7.29-9-14.81-13.62-22.18-2.25-2.73-7.12-2.85-10.4-1.38a7.78,7.78,0,0,0-4.21,5.16,9.44,9.44,0,0,0,1.1,7.83l.07.1c14.35,23.43,28.69,46.65,42.14,68.44.51.88,1,1.66,1.51,2.44,2,3,4.15,6.46,4.39,10.79.62,6,1.19,12.13,1.74,18.07.89,9.64,1.81,19.53,3,29.22a19.15,19.15,0,0,1-1.17,10.48c-3.63,10.56-7.51,21.31-11.27,31.71-4.53,12.53-9.18,25.43-13.51,38.28-.44,1.44-1,3-1.57,4.49-1.88,5.07-3.65,9.83-1.57,14l.15.35c1.5,4,5.76,6.52,10.85,6.52C313,419.16,317.75,417.5,319.48,412.89Z"/><path class="cls-3" d="M371.45,212a23.19,23.19,0,0,0-.06-18.74l-.08-.18a20.54,20.54,0,0,0-11.12-11.45,23.82,23.82,0,0,0-9.69-2.1,21,21,0,0,0-7.62,1.39c-10.68,3.6-17.43,15.76-14.55,26.06l.09.4c1,6.42,5.43,12.27,11.77,15.66,6.18,3.31,13,3.7,18.68,1.09l.22-.08A21.38,21.38,0,0,0,371.45,212Z"/><path class="cls-5" d="M78.42,143.34a7,7,0,0,1-4.3-12.56c9.8-7.64,36.08-23.8,68.53-8.88a7,7,0,0,1-5.83,12.76c-24.56-11.29-44.45-.34-54.11,7.2A6.94,6.94,0,0,1,78.42,143.34Z"/></g></g></svg>