<svg xmlns="http://www.w3.org/2000/svg" xmlns:xlink="http://www.w3.org/1999/xlink" viewBox="0 0 121.68 119.8"><defs><style>.cls-1,.cls-5{fill:none;}.cls-2{fill:#136f84;}.cls-3{fill:#fff;}.cls-4{clip-path:url(#clip-path);}.cls-5{stroke:#fff;stroke-linecap:round;stroke-linejoin:round;stroke-width:2.5px;}.cls-6{clip-path:url(#clip-path-2);}.cls-7{fill:#27cfd5;}</style><clipPath id="clip-path"><rect class="cls-1" x="18.32" y="17.83" width="73.02" height="83.83"/></clipPath><clipPath id="clip-path-2"><rect class="cls-1" x="16.26" y="17.83" width="73.02" height="83.83"/></clipPath></defs><g id="Capa_2" data-name="Capa 2"><g id="Capa_1-2" data-name="Capa 1"><rect class="cls-2" width="121.68" height="119.8" rx="13.14"/><path class="cls-3" d="M83.68,85.57H31a1.5,1.5,0,1,1,0-3H83.68a1.5,1.5,0,0,1,0,3Z"/><path class="cls-3" d="M83.68,64.08H31a1.5,1.5,0,1,1,0-3H83.68a1.5,1.5,0,0,1,0,3Z"/><path class="cls-3" d="M83.68,74.82H31a1.5,1.5,0,1,1,0-3H83.68a1.5,1.5,0,0,1,0,3Z"/><path class="cls-3" d="M83.68,53.33H31a1.5,1.5,0,1,1,0-3H83.68a1.5,1.5,0,0,1,0,3Z"/><path class="cls-3" d="M59,42.58H31a1.5,1.5,0,1,1,0-3H59a1.5,1.5,0,0,1,0,3Z"/><g class="cls-4"><path class="cls-5" d="M22.64,18.7H71.05L90.47,38.49V97.27A3.49,3.49,0,0,1,87,100.79H22.64a3.5,3.5,0,0,1-3.46-3.52v-75A3.5,3.5,0,0,1,22.64,18.7Z"/></g><g class="cls-6"><path class="cls-3" d="M90.31,39.61h-16a4.74,4.74,0,0,1-4.7-4.78V18.56a1.26,1.26,0,0,1,.78-1.16,1.24,1.24,0,0,1,1.36.29L91.2,37.48a1.25,1.25,0,0,1-.89,2.13Zm-18.17-18V34.83a2.24,2.24,0,0,0,2.2,2.28h13Z"/><path class="cls-1" d="M46.52,68.81a1.75,1.75,0,0,1,1.72-1.75"/><path class="cls-1" d="M48.24,67.06h8.81a1.74,1.74,0,0,1,1.72,1.75V90.74a1.74,1.74,0,0,1-1.72,1.75H48.24a1.74,1.74,0,0,1-1.72-1.75"/><path class="cls-1" d="M67.56,56.55h8.81a1.75,1.75,0,0,1,1.72,1.75V90.74a1.75,1.75,0,0,1-1.72,1.75H67.56a1.74,1.74,0,0,1-1.72-1.75V58.3a1.74,1.74,0,0,1,1.72-1.75"/></g><path class="cls-7" d="M90.23,89.81a21.55,21.55,0,1,1,21.55-21.55A21.58,21.58,0,0,1,90.23,89.81Z"/><path class="cls-3" d="M100.42,65.5H93.13V58.21a2.66,2.66,0,0,0-5.31,0V65.5H80.53a2.66,2.66,0,0,0,0,5.32h7.29v7.29a2.66,2.66,0,0,0,5.31,0V70.82h7.29a2.66,2.66,0,0,0,0-5.32Z"/></g></g></svg>