<svg xmlns="http://www.w3.org/2000/svg" viewBox="0 0 491.15 165.15"><defs><style>.cls-1{fill:#108498;}.cls-2{fill:#fff;}.cls-3{fill:#27cfd5;}</style></defs><g id="Capa_2" data-name="Capa 2"><g id="Capa_1-2" data-name="Capa 1"><rect class="cls-1" width="491.15" height="165.15" rx="15.91"/><path class="cls-2" d="M196.74,21.14a11.28,11.28,0,0,1,1.38,6c-.05,2.89.26,5.9-.77,8.66a13,13,0,0,1-22,4.29,13.19,13.19,0,0,1-3.25-8.65c-.06-4,0-8,0-12a3.69,3.69,0,0,1,.73-2.8,3.59,3.59,0,0,1,2.82-.79c4.18,0,8.36,0,12.55,0A10.4,10.4,0,0,1,196.74,21.14Zm-9.13-.36H177c0,3.65,0,7.32,0,11A8.06,8.06,0,0,0,192.35,35c1.16-2.35.7-5,.81-7.55A6.47,6.47,0,0,0,192.07,23,5.55,5.55,0,0,0,187.61,20.78Z"/><path class="cls-2" d="M182.27,142.64c0-2,0-4.09,0-6.13a14.44,14.44,0,0,1,1-4q3.7-11.91,7.45-23.8c.07-.49.5-.72.92-.89q10.84-4.47,21.68-9c1.75,3.39,3.45,6.79,5.22,10.16a15.7,15.7,0,0,0,10.75,8,16.18,16.18,0,0,0,8.39-.61c6.91-2.27,13.8-4.59,20.71-6.87,1,5.15,5.59,9,8.72,9.29a16.17,16.17,0,0,0,8.16-1.46,2.8,2.8,0,0,0,1.41-1.81v-.38a28,28,0,0,0-1.31-4.07c-1.61-4.47-5.16-13.74-6.75-18.22a3.29,3.29,0,0,0-1.55-2.11c-1-.49-2.05-.07-3,.23-10,3.43-19.94,6.82-29.92,10.24-6.91-14.59-13.65-29.27-20.52-43.88a4,4,0,0,1-.49-3.18,3.55,3.55,0,0,1,2.1-1.86l5.52-2.48c4.7,4,11.33,10,16,14a8.66,8.66,0,0,0,5,2.41A7.81,7.81,0,0,0,250,60.44a8.21,8.21,0,0,0-2.76-8.08c-4.76-4.09-11.48-10.14-16.25-14.21a15.81,15.81,0,0,0-11.14-3.78,17.55,17.55,0,0,0-6.57,1.77c-3.89,1.77-7.8,3.49-11.69,5.26a5.26,5.26,0,0,0-3,5.53,12.39,12.39,0,0,1,.16,4.29,5,5,0,0,1-2.82,4c-1.92.7-4-.27-5.42-1.57-1.23-1.06-1.93-2.68-3.43-3.42a5.32,5.32,0,0,0-4.85-.09c-3.83,1.74-7.65,3.49-11.51,5.18-4.56-4.23-11.08-10.41-15.65-14.63a8,8,0,0,0-5.88-2.2A7.69,7.69,0,0,0,142,45a8.29,8.29,0,0,0,2.71,7.26c4.49,4.15,10.92,10.28,15.44,14.4a16,16,0,0,0,13.24,3.93c2.91-.46,5.49-2,8.16-3.11,1.23-.51,2.5-1.37,3.89-1a3.4,3.4,0,0,1,2.16,2.12c2.87,6.21,5.78,12.39,8.65,18.6-3.54,1.48-7.08,3-10.62,4.44a15.89,15.89,0,0,0-7.26,6.05c-1.38,2-2,4.47-2.7,6.79q-4.33,13.94-8.65,27.88c-5.11-.53-10.65,2.08-12.18,4.39a11.8,11.8,0,0,0-1.82,6c-.13,4.46-.06,5-.06,5h29.12A23.08,23.08,0,0,0,182.27,142.64ZM214,41.27c1-.45,2-1,3.1-1.34A10.77,10.77,0,0,1,226.53,41a29.14,29.14,0,0,1,2.95,2.37c4.1,3.52,10.17,9,14.27,12.51a3.73,3.73,0,0,1,1.49,2.58,2.69,2.69,0,0,1-2.82,2.82,3.75,3.75,0,0,1-2.34-1.14c-4.53-3.9-11-9.74-15.58-13.64A5.79,5.79,0,0,0,221.29,45c-1.77-.23-3.37.71-4.93,1.4C215.54,44.66,214.75,43,214,41.27ZM259.25,98c1.75-.61,3.49-1.25,5.22-1.89,1.59,4.23,5,13.31,6.54,17.56-2.9,1.14-6-.94-8.2-6.44C262,104.81,260.06,100.44,259.25,98ZM177.42,63.86a16,16,0,0,1-6.19,1.92,10.73,10.73,0,0,1-7.89-2.92c-4.35-4-10.62-10-15-14a3.86,3.86,0,0,1-1.5-2.69,2.69,2.69,0,0,1,3-2.75,3.91,3.91,0,0,1,2.35,1.3c4.21,3.92,10.41,9.78,14.63,13.7a5.83,5.83,0,0,0,3.45,1.73c1.71.17,3.25-.71,4.76-1.37Zm45,41.89c2.32-.93,4.63-1.9,6.94-2.85a5.51,5.51,0,0,0,3.36,3c1.72.58,3.46-.16,5.07-.7,5.59-1.84,11.16-3.76,16.77-5.54.59,1.75,1.23,3.49,1.88,5.22-5.72,2-11.48,3.81-17.21,5.76-2.43.76-4.86,1.87-7.47,1.68A10.82,10.82,0,0,1,222.43,105.75Zm-29.27-12c6.26-2.58,12.5-5.2,18.76-7.78a3,3,0,0,0,1.89-1.71,2.47,2.47,0,0,0-1.5-3.1,3.23,3.23,0,0,0-2.43.29l-9,3.74q-4.49-9.58-9-19.16a7.92,7.92,0,0,0-3.35-3.7,8,8,0,0,0-6.58-.54c-.82-1.68-1.61-3.38-2.41-5.07,1.69-.77,3.39-1.52,5.08-2.3a17.29,17.29,0,0,0,4.48,4.26,10.11,10.11,0,0,0,7.51,1.42,9,9,0,0,0,6-5,14.37,14.37,0,0,0,.81-9.13c2-.9,4-1.83,6-2.69.75,1.72,1.6,3.38,2.37,5.08A7.9,7.9,0,0,0,208,55.24c0,1.95.95,3.69,1.74,5.41q8.81,18.87,17.59,37.76c-2.39,1-4.77,2-7.16,2.94q-1.54-3-3.08-6a3.65,3.65,0,0,0-1.55-1.84,2.75,2.75,0,0,0-2.31.07l-17.27,7.13C195,98.38,194.08,96.08,193.16,93.79ZM177.29,137c.06,1.87,0,3.75,0,5.63-4.51,0-14.81,0-19.33,0a5.51,5.51,0,0,1,5-5.57C165.83,137,174.45,137.07,177.29,137Zm.9-4.95h-5.92c2.94-9.44,5.84-18.9,8.79-28.35a11.76,11.76,0,0,1,3.22-5.45,13.87,13.87,0,0,1,4.29-2.58c1,2.28,1.83,4.59,2.77,6.86-1.37.66-2.94,1-4,2.17a8.26,8.26,0,0,0-1.73,3.67C183.16,116.28,180.64,124.16,178.19,132.06Z"/><path class="cls-3" d="M285.65,23.93h33.69a3.44,3.44,0,0,0,0-6.88H285.65a3.44,3.44,0,1,0,0,6.88Z"/><rect class="cls-3" x="269.97" y="17.05" width="6.87" height="6.87" rx="2.81"/><path class="cls-3" d="M294.46,45a3.44,3.44,0,1,0,3.44-3.44A3.45,3.45,0,0,0,294.46,45Z"/><path class="cls-3" d="M267.28,48.43h18.37a3.44,3.44,0,0,0,0-6.88H267.28a3.44,3.44,0,1,0,0,6.88Z"/><path class="cls-3" d="M287,66.05h-24.5a3.44,3.44,0,1,0,0,6.88H287a3.44,3.44,0,0,0,0-6.88Z"/><path class="cls-3" d="M339.47,90.55H293.53a3.44,3.44,0,1,0,0,6.87h45.94a3.44,3.44,0,1,0,0-6.87Z"/><path class="cls-3" d="M328.1,115.05H309.72a3.44,3.44,0,1,0,0,6.87H328.1a3.44,3.44,0,0,0,0-6.87Z"/><path class="cls-3" d="M297.14,115h.67a3.1,3.1,0,0,1,3.1,3.1v.67a3.1,3.1,0,0,1-3.1,3.1h-.67a3.11,3.11,0,0,1-3.11-3.11v-.66A3.11,3.11,0,0,1,297.14,115Z"/><path class="cls-3" d="M308.84,139.55H293.53a3.44,3.44,0,1,0,0,6.87h15.31a3.44,3.44,0,1,0,0-6.87Z"/></g></g></svg>