<svg xmlns="http://www.w3.org/2000/svg" viewBox="0 0 121.68 119.8"><defs><style>.cls-1{fill:#136f84;}.cls-2{fill:#fff;}.cls-3{fill:#27cfd5;}</style></defs><g id="Capa_2" data-name="Capa 2"><g id="Capa_1-2" data-name="Capa 1"><rect class="cls-1" width="121.68" height="119.8" rx="13.14"/><path class="cls-2" d="M23.11,106.41a1.43,1.43,0,0,0,.91-.55l4.47-6.26.51.5a26.4,26.4,0,0,0,37,0l.5-.5,4.48,6.26a1.43,1.43,0,0,0,1.94.32,1.35,1.35,0,0,0,.57-.9,1.41,1.41,0,0,0-.24-1l-4.87-6.8.27-.35a26.4,26.4,0,0,0-1.11-33.16L64.7,61.14a26.4,26.4,0,0,0-34.48,0L27.43,64a26.41,26.41,0,0,0-1.08,33.13l.27.35-4.87,6.8a1.41,1.41,0,0,0-.24,1,1.35,1.35,0,0,0,.57.9h0A1.36,1.36,0,0,0,23.11,106.41Zm.79-23.16,0-.66h2.83a1.4,1.4,0,1,0,0-2.79H23.85l0-.66A23.59,23.59,0,0,1,45.42,57.62l.66,0V60.4a1.4,1.4,0,1,0,2.79,0V57.57l.66,0A23.61,23.61,0,0,1,71.05,79.14l0,.66H68.26a1.4,1.4,0,0,0,0,2.79H71.1l0,.66a23.63,23.63,0,0,1-21.52,21.52l-.66,0V102a1.4,1.4,0,0,0-2.79,0v2.84l-.66,0A23.61,23.61,0,0,1,23.9,83.25Z"/><path class="cls-2" d="M77.83,50.78a10.66,10.66,0,0,0-15.07,0,1.38,1.38,0,0,0-.4,1,1.44,1.44,0,0,0,.4,1l13.1,13.09a1.44,1.44,0,0,0,2,0A10.66,10.66,0,0,0,77.83,50.78Zm-.66,11.34-.39.71-11-11,.7-.39A7.86,7.86,0,0,1,77.17,62.12Z"/><path class="cls-2" d="M17.1,65.84a1.44,1.44,0,0,0,2,0L32.16,52.75a1.41,1.41,0,0,0,.41-1,1.34,1.34,0,0,0-.41-1A10.65,10.65,0,0,0,17.1,65.84Zm7.53-15.39a7.92,7.92,0,0,1,3.82,1l.7.39-11,11-.39-.71a7.89,7.89,0,0,1,1.32-9.37A7.78,7.78,0,0,1,24.63,50.45Z"/><path class="cls-3" d="M74.17,11.89c.64-1.63,1.26-3.28,1.9-4.91q9.78,3.77,19.57,7.53C95,16.22,94.38,18,93.7,19.66c-.1.31-.44.43-.67.61C86.2,24.67,79.35,29,72.55,33.47l14.06,5.41c-.63,1.64-1.24,3.29-1.9,4.92-6.49-2.48-13-5-19.47-7.47.59-1.9,1.25-3.78,1.86-5.67,7-4.47,13.93-9,20.91-13.44C83.4,15.43,78.78,13.68,74.17,11.89Z"/><path class="cls-3" d="M96.84,29.87c4.71,1.77,9.41,3.57,14.1,5.35-.5,1.49-1,3-1.48,4.46-4.5,2.67-9,5.33-13.49,8,2.93,1.16,5.87,2.29,8.79,3.45-.58,1.48-1.17,3-1.73,4.44-4.78-1.84-9.54-3.73-14.31-5.6.5-1.48,1-3,1.47-4.43q6.72-4,13.46-8c-2.83-1.1-5.67-2.15-8.49-3.24Z"/><path class="cls-3" d="M97.62,63c.47-1.27,1-2.52,1.48-3.78,3.33,1.28,6.66,2.59,10,3.89-.28,1.12-.57,2.24-.84,3.37q-4.5,2.67-9,5.36c1.78.75,3.57,1.48,5.35,2.22-.52,1.25-1.05,2.5-1.56,3.75L92.88,73.57l1.41-3.52c2.83-1.67,5.63-3.37,8.46-5C101.06,64.27,99.33,63.67,97.62,63Z"/><path class="cls-2" d="M47.33,83.3a1.39,1.39,0,0,1-1-.46l-10.64-12a1.37,1.37,0,0,1,.11-1.94,1.38,1.38,0,0,1,1.94.11L47.6,80.16,55,75.73a1.37,1.37,0,1,1,1.41,2.36l-8.41,5A1.37,1.37,0,0,1,47.33,83.3Z"/><path class="cls-1" d="M52.19,45.65h0Z"/><path class="cls-2" d="M52.19,43.33H42.74a1.38,1.38,0,0,0,0,2.75h3.31l0,4.69a1.36,1.36,0,0,0,1.36,1.38h0a1.38,1.38,0,0,0,1.38-1.36l0-4.71h3.39a1.38,1.38,0,0,0,0-2.75Z"/><circle class="cls-2" cx="47.3" cy="81.26" r="3.4"/></g></g></svg>