<svg xmlns="http://www.w3.org/2000/svg" viewBox="0 0 121.68 119.8"><defs><style>.cls-1{fill:#136f84;}.cls-2{fill:#27cfd5;}.cls-3{fill:none;}.cls-4{fill:#fff;}</style></defs><g id="Capa_2" data-name="Capa 2"><g id="Capa_1-2" data-name="Capa 1"><rect class="cls-1" width="121.68" height="119.8" rx="13.14"/><path class="cls-2" d="M47.25,54.17a1.5,1.5,0,0,0-1.13,1.25v0l.22.67,0,0a5.31,5.31,0,0,0,.93.61l0,0h.05l1-.32a29.06,29.06,0,0,1,2.91-.79l-1-2.35c-.59.15-1.17.32-1.74.48Z"/><path class="cls-2" d="M48.78,59.65h0l-.05.07c-.27.34-.64.8-.41,1.29a1.07,1.07,0,0,0,.57.72,1.45,1.45,0,0,0,1.17.08c.45-.15.91-.27,1.36-.4.68-.18,1.37-.38,2-.63l-.89-2.17c-.91.18-1.81.45-2.68.71Z"/><path class="cls-2" d="M50.69,65.2l0,0,0,0A1.35,1.35,0,0,0,50.84,67c.42.47,1,.3,1.48.16l.23-.07,1.26-.37c.6-.17,1.23-.34,1.83-.56L54.72,64l-.81.22A25.09,25.09,0,0,0,50.69,65.2Z"/><path class="cls-3" d="M63.39,76.68l-.34-.36C62,75.19,60.81,74.07,59.69,73l-1-1c-.32-.29-.63-.59-.94-.89l0,0-.9-2.2c-.37-.87-.74-1.78-1.09-2.67h0L54.72,64l-1.3-3.16-.89-2.17-1.22-3-1-2.35h0c-.25-.59-.48-1.19-.72-1.79S49,50,48.73,49.22c-.17-.46-.69-.62-1.15-.77l-.2-.06A52.5,52.5,0,0,1,36.62,48a14.9,14.9,0,0,1-5.9-2c-.1-.1-.2-.17-.29-.25a1.39,1.39,0,0,1-.55-.67c-.68-2.69-1.75-6.1-4.07-8.63l-.24-.22a2.47,2.47,0,0,0-1.85-1,4,4,0,0,0-1.78,1.49c-.15.18-.29.36-.45.53-.35.51-.74,1.07-1.1,1.66s-.73,1.19-1.06,1.78c-.17.3-.34.61-.52.9h0c-.13.21-.25.44-.37.66a8.49,8.49,0,0,1-.71,1.19c.89.71,1.85,1.34,2.79,1.95.63.42,1.29.85,1.92,1.3l1.28.86c1,.67,2,1.37,3.07,2A52.44,52.44,0,0,1,38,59.46l.14.18a22.75,22.75,0,0,1,3,4.52,34.87,34.87,0,0,0,6.57,8.43c.68.63,1.39,1.25,2.12,1.86,1,.82,2.12,1.6,3.17,2.35.56.39,1.11.79,1.65,1.19l.32.21a35.73,35.73,0,0,0,4.11,2.42,23.18,23.18,0,0,0,7.44,2.56h.21a5.38,5.38,0,0,1,.69.07l.17,0,.64-.59A36.73,36.73,0,0,0,63.39,76.68Z"/><path class="cls-3" d="M54.78,63.93a22.26,22.26,0,0,0-1.32-3.16l0,0L54.72,64Z"/><path class="cls-3" d="M67.23,77.24A35,35,0,0,1,70,80.85l.15.29a5.05,5.05,0,0,1,.6,1.42c1.9.07,3.83.1,5.7.13,1.57,0,3.2,0,4.8.1l.6,0h1.42a9.43,9.43,0,0,1,1.76.14h0a29.27,29.27,0,0,1-7.2-3A38.86,38.86,0,0,0,67.23,77.24Z"/><path class="cls-3" d="M86,67.12c-.43-.32-.89-.61-1.33-.89s-.91-.57-1.35-.89l0,0,2.69,1.78Z"/><path class="cls-3" d="M90.74,70.32A21.35,21.35,0,0,0,88,68.49l2.78,1.84Z"/><path class="cls-3" d="M52.61,58.61c-.18-.51-.39-1-.6-1.48s-.44-1-.62-1.5l-.08,0,1.22,3Z"/><path class="cls-3" d="M49.17,84.45h-.51c-.28,0-.63,0-1,0,0,.27,0,.55,0,.83a6.53,6.53,0,0,0,.12,2c.91,0,1.83,0,2.72,0,.74,0,1.52,0,2.27,0,.55,0,1.1,0,1.68,0l-.11-.06C52.69,86.51,51,85.56,49.17,84.45Z"/><path class="cls-3" d="M13.34,50.19C15.15,51.42,17,52.71,18.73,54l3.35,2.36c1.11.77,2.23,1.57,3.31,2.34,1.25.9,2.55,1.82,3.84,2.7.65.49,1.31.93,1.81,1.26,1.64,1.21,3.34,2.4,5,3.55,1.29.9,2.62,1.84,3.92,2.77l.46.34.39.28.29.2A11.45,11.45,0,0,1,43,71.21l0,0a29.28,29.28,0,0,1-4.31-6.49,40.37,40.37,0,0,0-8.15-9,48.83,48.83,0,0,0-6-4.43c-1-.66-2-1.33-3-2-.49-.33-1-.66-1.48-1-1-.66-2.07-1.34-3-2.1l-.39-.09-.05.08a3.39,3.39,0,0,1-.93,1.16h0a9.18,9.18,0,0,0-2.81,2.42,1.1,1.1,0,0,0,.3.26Z"/><path class="cls-3" d="M53.94,81.3l-.39-.21c-2-1.19-4.54-2.77-7-4.5-.39-.29-.8-.57-1.19-.84s-1-.66-1.42-1c-.68-.48-1.47-1-2.22-1.65C39.85,71.69,37.9,70.33,36,69l-2.87-2-.41-.31-.41-.31L32,66.16c-.49-.33-1-.67-1.48-1-.86-.57-1.72-1.19-2.55-1.79-.64-.46-1.3-.93-1.95-1.38-.43-.32-.87-.63-1.31-.92s-.9-.61-1.33-.94l-.56-.39c-.41-.28-.83-.57-1.22-.87l-.6-.42c-1.28-.91-2.6-1.85-3.92-2.76-.86-.64-1.72-1.23-2.44-1.72-.43-.33-.88-.64-1.31-.94s-.89-.61-1.31-1l-.85-.52-.48.68a6.69,6.69,0,0,0-1,1.74c.78.47,1.52,1,2.25,1.53s1.23.89,1.86,1.3,1.17.84,1.79,1.26c.42.32.86.62,1.28.92s.9.64,1.34,1c1.16.78,2.32,1.61,3.44,2.4l1.09.77c.92.68,1.87,1.34,2.79,2,.75.53,1.53,1.07,2.29,1.62l3.88,2.74,2.6,1.83c1.91,1.31,3.81,2.7,5.65,4,3.23,2.36,6.56,4.8,10.05,6.89a63.76,63.76,0,0,0,7.44,4c2.21,1,4.76,2.08,7.37,1.83l1.38-2a9.71,9.71,0,0,0-1.05-.13C61.08,85.19,57.45,83.21,53.94,81.3Z"/><path class="cls-3" d="M99.78,85.17l-.44,0c-2.3.11-5.31.24-8.33.2l-1.45,0c-.58,0-1.17,0-1.75,0-.83,0-1.81,0-2.76-.13-2.32-.11-4.69-.14-7-.18-1.17,0-2.35,0-3.52-.06L74,85l-.51,0h-.38c-.59,0-1.21,0-1.82,0l-1.28,0h-.28c-.22.32-.43.65-.64,1-.4.62-.81,1.24-1.23,1.85l2,0,4.46.09,3.48.07c2.31,0,4.67.1,7,.18,4,.14,8.12.29,12.18.07a63.4,63.4,0,0,0,8.43-.82c2.39-.39,5.11-.94,7.12-2.61,0-.81,0-1.63,0-2.44a8.45,8.45,0,0,0-.95.48C107.88,84.39,103.76,84.79,99.78,85.17Z"/><path class="cls-4" d="M114.93,83.13V82.8c0-.73,0-1.45,0-2.18s0-1.78,0-2.66c.09-1.09-.91-1.6-1.72-2l-.3-.15a55.33,55.33,0,0,0-11-2.86l-1.37-.25a8.33,8.33,0,0,0-1-.16A3.84,3.84,0,0,1,97.6,72Q93,68.85,88.29,65.77l-9.42-6.25a3.53,3.53,0,0,0-3.15-.37l-.36-3.21c-.36-3.22-.71-6.43-1.06-9.65a2.09,2.09,0,0,0-.4-1.37l-.05,0a1,1,0,0,0-.78-.23.9.9,0,0,0-.67.39l0,.05a2.15,2.15,0,0,0-.07,1.36c0,.13,0,.24,0,.35l1.14,10.31.33,3-.42.35a8.83,8.83,0,0,1-1.08.83l-.57.39c-.67.45-1.36.92-2.07,1.34a27.39,27.39,0,0,1-7.2,3.31,9.82,9.82,0,0,1-1.63.21A31.57,31.57,0,0,0,57.45,64l-2.18-5.28Q53.13,53.53,51,48.34a3.64,3.64,0,0,0-2.41-2.08L50.1,43.4c1.51-2.86,3-5.72,4.53-8.58a2.12,2.12,0,0,0,.44-1.36l0-.06a1,1,0,0,0-.52-.63.89.89,0,0,0-.77-.06l-.06,0c-.34.12-.59.61-.83,1.09l-.16.3-4.08,7.76L46.45,46l-.55.06a8.75,8.75,0,0,1-1.35.09h-.68c-.81,0-1.66,0-2.48,0a27.06,27.06,0,0,1-7.82-1.29,10.11,10.11,0,0,1-1.47-.74c-.78-2.86-2-6.46-4.52-9.06l1.67-3.16c.07-.13.28-.47.55-.9,1.47-2.37,1.89-3.15,1.84-3.36l0-.07a1.06,1.06,0,0,0-1-.77l-.27,0h0a1.41,1.41,0,0,0-.59.57c-.3.58-1.09,1.89-1.86,3.16S26.37,33,26,33.66A4.07,4.07,0,0,0,24,33a4.64,4.64,0,0,0-3.27,1.79A32.5,32.5,0,0,0,17,40.31l-.39.67c-.33.56-.63,1.13-.91,1.67l-.49.9c-.3.55-.6,1.11-.92,1.66-.3.24-.63.46-1,.67a13.57,13.57,0,0,0-1.23.92,17.78,17.78,0,0,0-2.31,2.53l-.3.37-.33.47c-.41.59-.84,1.2-1.22,1.83l-.33.52a14.45,14.45,0,0,0-1.12,2l0,.09.09.06c.77.49,1.52,1,2.25,1.55.57.41,1.16.83,1.75,1.23l1.48,1,1,.68c.58.42,1.18.85,1.79,1.25.44.33.89.64,1.34,1l1.11.78c.4.3.82.58,1.22.86s1,.65,1.44,1c.84.56,1.65,1.13,2.4,1.69,4.26,3,7.82,5.47,11.42,8,2.1,1.4,4.2,2.92,6.25,4.51.41.31.84.61,1.25.89s.81.56,1.2.86l.59.4,1.86,1.3.35.23.2.13c-.05.44-.09.89-.13,1.33l0,.47v.6c0,.71,0,1.44,0,2.17l0,.61a14.13,14.13,0,0,0,.22,2.33l0,.1h.1c.91,0,1.84,0,2.73,0,.7,0,1.44,0,2.14,0s1.2,0,1.78,0h1.22c.73,0,1.48,0,2.18,0l1.65,0,1.36,0c.55,0,1.12,0,1.66,0h.43a16.38,16.38,0,0,0,3.17.49,9.35,9.35,0,0,0,2.32-.38h0c4,.06,8.25.12,12.53.22,2.51,0,5.11.06,7.7.23.52,0,1,0,1.54,0l1.47,0h.77l2.21,0a98.18,98.18,0,0,0,11-.63c.49-.06,1-.15,1.46-.23s1-.19,1.58-.25l.81-.2.77-.19a16,16,0,0,0,5.08-2,8.9,8.9,0,0,0,1.71-1.61l0,0v0C115,84.66,115,83.88,114.93,83.13ZM59.55,68.65a1.45,1.45,0,0,0,.83.25l.37,0a14.63,14.63,0,0,0,6-1.65,53.43,53.43,0,0,0,9.14-5.7l.19-.06a1.56,1.56,0,0,1,1.38,0c.69.45,1.38.92,2,1.37l.92.62h0l2.8,1.86,0,0c.44.32.9.61,1.35.89s.9.57,1.33.89l0,0,2,1.34a21.35,21.35,0,0,1,2.78,1.83h0l3.72,2.47h0l.71.48,2,1.3,0,0c.43.08.85.14,1.28.2l1.42.26c1.54.27,3.12.54,4.67.87l.48.11a37.15,37.15,0,0,1,7.41,2.22c-.07.28-.14.57-.2.85l-.15.07a3.63,3.63,0,0,0-.78.46,23.39,23.39,0,0,1-7.61,2A34.27,34.27,0,0,1,99,82h-.39l-2-.06c-1.3,0-2.63-.06-4-.17-.94-.09-1.89-.21-2.79-.35a35,35,0,0,1-10.17-3.3,23.13,23.13,0,0,0-5.07-2.05l-.2-.06a53.94,53.94,0,0,0-9.88-1.72c-.68-.69-1.37-1.37-2-2.05l-.92-.91a7.72,7.72,0,0,0-.72-.68,3.68,3.68,0,0,1-1.23-1.52c-.11-.25-.21-.5-.31-.75ZM85.09,83h0a9.43,9.43,0,0,0-1.76-.14H81.87l-.6,0c-1.6-.05-3.23-.07-4.8-.1-1.87,0-3.8-.06-5.7-.13a5.05,5.05,0,0,0-.6-1.42L70,80.85a35,35,0,0,0-2.79-3.61A38.86,38.86,0,0,1,77.89,80,29.27,29.27,0,0,0,85.09,83ZM15.61,47.33h0a3.39,3.39,0,0,0,.93-1.16l.05-.08.39.09c1,.76,2,1.44,3,2.1.5.32,1,.65,1.48,1,1,.7,2,1.37,3,2a48.83,48.83,0,0,1,6,4.43,40.37,40.37,0,0,1,8.15,9A29.28,29.28,0,0,0,43,71.23l0,0a11.45,11.45,0,0,0-1.9-1.44l-.29-.2-.39-.28L39.94,69c-1.3-.93-2.63-1.87-3.92-2.77-1.64-1.15-3.34-2.34-5-3.55-.5-.33-1.16-.77-1.81-1.26-1.29-.88-2.59-1.8-3.84-2.7-1.08-.77-2.2-1.57-3.31-2.34L18.73,54c-1.76-1.26-3.58-2.55-5.39-3.78L13.1,50a1.1,1.1,0,0,1-.3-.26A9.18,9.18,0,0,1,15.61,47.33Zm37.15,40c-.75,0-1.53,0-2.27,0-.89,0-1.81-.06-2.72,0a6.53,6.53,0,0,1-.12-2c0-.28,0-.56,0-.83.36,0,.71,0,1,0h.51c1.83,1.11,3.52,2.06,5.16,2.91l.11.06C53.86,87.41,53.31,87.4,52.76,87.37Zm12,.7c-2.61.25-5.16-.81-7.37-1.83a63.76,63.76,0,0,1-7.44-4c-3.49-2.09-6.82-4.53-10.05-6.89-1.84-1.34-3.74-2.73-5.65-4l-2.6-1.83-3.88-2.74c-.76-.55-1.54-1.09-2.29-1.62-.92-.64-1.87-1.3-2.79-2l-1.09-.77c-1.12-.79-2.28-1.62-3.44-2.4-.44-.33-.9-.66-1.34-1s-.86-.6-1.28-.92c-.62-.42-1.22-.84-1.79-1.26s-1.26-.86-1.86-1.3-1.47-1.06-2.25-1.53a6.69,6.69,0,0,1,1-1.74l.48-.68L12,52c.42.34.88.65,1.31,1s.88.61,1.31.94c.72.49,1.58,1.08,2.44,1.72,1.32.91,2.64,1.85,3.92,2.76l.6.42c.39.3.81.59,1.22.87l.56.39c.43.33.89.64,1.33.94s.88.6,1.31.92c.65.45,1.31.92,1.95,1.38.83.6,1.69,1.22,2.55,1.79.48.37,1,.71,1.48,1l.32.22.41.31.41.31L36,69c1.89,1.32,3.84,2.68,5.7,4.08.75.61,1.54,1.17,2.22,1.65.46.35,1,.69,1.42,1s.8.55,1.19.84c2.47,1.73,5,3.31,7,4.5l.39.21c3.51,1.91,7.14,3.89,11.16,4.63a9.71,9.71,0,0,1,1.05.13Zm2.7-4.83a5.38,5.38,0,0,0-.69-.07h-.21a23.18,23.18,0,0,1-7.44-2.56A35.73,35.73,0,0,1,55,78.2L54.7,78c-.54-.4-1.09-.8-1.65-1.19-1-.75-2.14-1.53-3.17-2.35-.73-.61-1.44-1.23-2.12-1.86a34.87,34.87,0,0,1-6.57-8.43,22.75,22.75,0,0,0-3-4.52L38,59.46A52.44,52.44,0,0,0,26.79,49.6c-1-.66-2.07-1.36-3.07-2l-1.28-.86c-.63-.45-1.29-.88-1.92-1.3-.94-.61-1.9-1.24-2.79-1.95a8.49,8.49,0,0,0,.71-1.19c.12-.22.24-.45.37-.66h0c.18-.29.35-.6.52-.9.33-.59.68-1.2,1.06-1.78s.75-1.15,1.1-1.66c.16-.17.3-.35.45-.53a4,4,0,0,1,1.78-1.49,2.47,2.47,0,0,1,1.85,1l.24.22c2.32,2.53,3.39,5.94,4.07,8.63a1.39,1.39,0,0,0,.55.67c.09.08.19.15.29.25a14.9,14.9,0,0,0,5.9,2,52.5,52.5,0,0,0,10.76.4l.2.06c.46.15,1,.31,1.15.77.31.75.62,1.53.92,2.28s.47,1.2.72,1.79h0l1,2.35.08,0c.18.51.4,1,.62,1.5s.42,1,.6,1.48h-.08l.89,2.17,0,0a22.26,22.26,0,0,1,1.32,3.16l-.06,0,.92,2.24h0c.35.89.72,1.8,1.09,2.67l.9,2.2,0,0c.31.3.62.6.94.89l1,1c1.12,1.07,2.27,2.19,3.36,3.32l.34.36a36.73,36.73,0,0,1,4.89,6l-.64.59Zm45.07,1.47c-2,1.67-4.73,2.22-7.12,2.61a63.4,63.4,0,0,1-8.43.82c-4.06.22-8.19.07-12.18-.07-2.28-.08-4.64-.17-7-.18l-3.48-.07-4.46-.09-2,0c.42-.61.83-1.23,1.23-1.85.21-.32.42-.65.64-1H70l1.28,0c.61,0,1.23,0,1.82,0h.38L74,85l.51,0c1.17,0,2.35,0,3.52.06,2.3,0,4.67.07,7,.18,1,.09,1.93.11,2.76.13.58,0,1.17,0,1.75,0l1.45,0c3,0,6-.09,8.33-.2l.44,0c4-.38,8.1-.78,11.84-2.42a8.45,8.45,0,0,1,.95-.48C112.55,83.08,112.55,83.9,112.54,84.71Z"/><path class="cls-2" d="M88.07,73.66l0,0v0c.08.63.45,1.35,1.17,1.35h0c.6.15,1-.32,1.31-.7l.16-.18c.27-.34.55-.68.83-1,.41-.49.84-1,1.22-1.53l1.71,1.14h0l-3.72-2.47-.59.68A24.52,24.52,0,0,0,88.07,73.66Z"/><path class="cls-2" d="M83.37,70.13l0,0v.09c0,.43-.09,1,.38,1.3a1.08,1.08,0,0,0,.88.27,1.42,1.42,0,0,0,1-.58c.29-.38.61-.74.91-1.1.46-.54.94-1.1,1.36-1.7l.08,0-2-1.34a26.61,26.61,0,0,0-1.86,2.12C83.85,69.56,83.61,69.84,83.37,70.13Z"/><path class="cls-2" d="M79.93,65.39,79,66.45a1.5,1.5,0,0,0-.23,1.67l.56.46h0a5.84,5.84,0,0,0,1.11,0h0l0,0c.23-.27.45-.56.68-.84a28.75,28.75,0,0,1,2-2.31l-2.8-1.86h0l.69.47C80.72,64.44,80.32,64.92,79.93,65.39Z"/></g></g></svg>