<svg xmlns="http://www.w3.org/2000/svg" viewBox="0 0 491.15 165.15"><defs><style>.cls-1{fill:#108498;}.cls-2{fill:#fff;}.cls-3{fill:none;stroke:#2feded;stroke-miterlimit:10;stroke-width:6px;}.cls-4{fill:#2feded;}</style></defs><g id="Capa_2" data-name="Capa 2"><g id="Capa_1-2" data-name="Capa 1"><rect class="cls-1" width="491.15" height="165.15" rx="15.91"/><path class="cls-2" d="M215.86,18.41c2.29-2.92,5-5.89,8.88-6.54,5.61-1.52,10.94,2.09,14,6.55,4.61.16,9.25-.39,13.82.31,1.22,1.91.73,4.27,1,6.41,3.59.35,13.9-.81,17.18,1.05,2,1.25,2.45,3.72,2.38,5.92,0,26.6,0,57.14,0,83.73.36,3.74-3.45,6.48-6.92,6.11-15.3-.47-36.83.36-52.13-.28-7-.11-21.1.58-28.09.16a5.73,5.73,0,0,1-5.29-6c-.06-26.59,0-57.12,0-83.72-.3-2.71,1-5.77,3.75-6.58,3.17-.55,13.54-.28,16.73-.35.55-2.12-.81-5.57,1.79-6.65C207.19,18.25,211.53,18.52,215.86,18.41ZM219,23c-4.32.12-8.65.1-13,.12-.08,2.89-.1,5.78-.08,8.67,14.22.3,28.44.12,42.66.09a44.62,44.62,0,0,0-.18-8.65c-4.23-.34-8.49-.06-12.72-.17-1.72-3.25-4.19-7-8.37-6.8C223.13,16,220.61,19.7,219,23Zm34.58,6.9c-.26,2.53.55,7.22-3.37,6.69-15.64,0-31.29.16-46.91-.09-3.09-.28-1.62-4.38-2.09-6.47-2.9-.12-12.91-.12-15.79-.07-.1,27.75-.15,59.45,0,87.21,23.16,0,59.68,0,82.85,0,.05-27.72.34-59.41-.13-87.11C265.35,29.73,256.32,29.89,253.54,29.88Z"/><path class="cls-2" d="M226.57,20.7c3-1,4.27,3.86,1.32,4.59C225,26.22,223.69,21.51,226.57,20.7Z"/><path class="cls-2" d="M211.8,63.69H193.06V45H211.8Zm-13.74-5h8.74V50h-8.74Z"/><path class="cls-2" d="M211.8,86.56H193.06V67.82H211.8Zm-13.74-5h8.74V72.82h-8.74Z"/><path class="cls-2" d="M211.8,110.21H193.06V91.47H211.8Zm-13.74-5h8.74V96.47h-8.74Z"/><rect class="cls-2" x="220.13" y="54.19" width="39.74" height="5"/><rect class="cls-2" x="220.13" y="74.69" width="13.01" height="5"/><rect class="cls-2" x="220.13" y="96.77" width="13.01" height="5"/><polyline class="cls-3" points="197.35 49.62 205.97 57.66 220.98 43.33"/><line class="cls-1" x1="318.98" y1="144.19" x2="245.99" y2="144.19"/><line class="cls-1" x1="305.08" y1="76.49" x2="318.98" y2="76.49"/><path class="cls-1" d="M261.2,132.56l-.46-.45c-8.65-8.5-14.15-22.75-14.7-38.12L246,92.36h73l0,1.57c.47,13.88,4.77,26.76,12.12,36.14l2,2.54Z"/><path class="cls-1" d="M246,110.91l3,7.11c3.25,7.66,8,13.9,11.09,16.45a1.11,1.11,0,0,0,.7.25H319v9.47H246Z"/><path class="cls-1" d="M319,90.22H246V76.49h13.74v4.26h0a1.08,1.08,0,0,0,2.15,0V76.49h19.57v4.26a1,1,0,0,0,0,.35,1.06,1.06,0,0,0,1.23.88,1.07,1.07,0,0,0,.89-1.23V76.49h19.36v4.26h0a1.08,1.08,0,0,0,2.15,0V76.49H319Z"/><path class="cls-2" d="M337.5,131.77c-7.22-6.16-15-21.45-15-40.47V75.4A2.45,2.45,0,0,0,320.06,73H306.45V70.11a2.45,2.45,0,0,0-4.9,0V73H285V70.11a2.45,2.45,0,0,0-4.9,0V73H263.26V70.11a2.45,2.45,0,1,0-4.9,0V73H244.92a2.45,2.45,0,0,0-2.45,2.45v69.84a2.45,2.45,0,0,0,2.45,2.45h75.14a2.43,2.43,0,0,0,2.44-2.38v-9.2h13.4a2.46,2.46,0,0,0,2-1A2.43,2.43,0,0,0,337.5,131.77Zm-74.24-51V77.87h16.81v2.79a3,3,0,0,0,0,.67,2.45,2.45,0,0,0,4.85-.67V77.87h16.61v2.88a2.45,2.45,0,0,0,4.9,0V77.87h11.16v11H247.37v-11h11v2.88a2.45,2.45,0,1,0,4.9,0Zm-15.54,37.81c3.32,7.86,8.28,14.31,11.48,17a2.44,2.44,0,0,0,1.57.57h56.84v6.71H247.37l0-25.14Zm-.3-24.62v-.21h70.24V94c.47,14.22,4.88,27.34,12.41,36.95l.25.32-68.55-.05-.07-.06C253.3,122.87,248,109,247.42,93.94Z"/><polygon class="cls-2" points="267.78 108.76 259.98 108.76 257.91 100.96 265.71 100.96 267.78 108.76"/><polygon class="cls-2" points="282.25 108.76 274.44 108.76 272.37 100.96 280.17 100.96 282.25 108.76"/><polygon class="cls-4" points="296.71 108.76 288.9 108.76 286.83 100.96 294.63 100.96 296.71 108.76"/><polygon class="cls-2" points="311.17 108.76 303.37 108.76 301.3 100.96 309.1 100.96 311.17 108.76"/><polygon class="cls-2" points="272.36 123.23 264.56 123.23 262.48 115.42 270.29 115.42 272.36 123.23"/><polygon class="cls-2" points="286.82 123.23 279.02 123.23 276.95 115.42 284.75 115.42 286.82 123.23"/><polyline class="cls-2" points="301.29 123.23 293.48 123.23 291.41 115.42 299.21 115.42"/></g></g></svg>