<svg xmlns="http://www.w3.org/2000/svg" viewBox="0 0 121.68 119.8"><defs><style>.cls-1{fill:#136f84;}.cls-2{fill:#fff;}.cls-3{fill:#27cfd5;}</style></defs><g id="Capa_2" data-name="Capa 2"><g id="Capa_1-2" data-name="Capa 1"><rect class="cls-1" width="121.68" height="119.8" rx="13.14"/><path class="cls-2" d="M111.67,47.48a2.77,2.77,0,0,0-2.48-2.69c-.71,0-1.44,0-2.15,0H105.3V41.87c0-1,0-2.12,0-3.18a5.25,5.25,0,0,0-2.06-4.08,5.31,5.31,0,0,0-5.46-.49l-.44.21,0-.49c0-.62,0-1.27,0-1.91a9.23,9.23,0,0,0-.74-4.84,6,6,0,0,0-11.18,2.65c0,2.41,0,4.87,0,7.25v.5c0,2,0,3.94,0,5.92v.2l-.28.14c-1.5.75-3,1.51-4.57,2.29a2.46,2.46,0,0,1-1.23.32H76.09c.07-2.93.11-6.46.09-7.06a4.46,4.46,0,0,0-3.23-4,4.88,4.88,0,0,0-4.58,1l-.12-.12a7.46,7.46,0,0,0-.8-.67,5.11,5.11,0,0,0-2.81-.81,4.85,4.85,0,0,0-3.76,2A5,5,0,0,0,56.71,36a4.65,4.65,0,0,0-3.16,3,4.91,4.91,0,0,0-4.55,0,4.58,4.58,0,0,0-2.41,3.43c0,.81,0,1,0,1.23v.92c0,.64,0,1.28,0,1.88H42.37a2.11,2.11,0,0,1-.9-.26l-.09,0-3.89-2-1-.48V43.4c0-2.81,0-5.63,0-8.44V30.13a6.12,6.12,0,0,0-2.21-4.82,6,6,0,0,0-6.75-.51,5.86,5.86,0,0,0-2.92,4.66c-.06.88-.05,1.8-.05,2.68v0c0,.55,0,1.11,0,1.66v.49l-.45-.2a5.48,5.48,0,0,0-4-.29,5.25,5.25,0,0,0-3.53,4.68c0,1.14,0,2.31,0,3.34v.25c0,.76,0,1.55,0,2.33v.32H14.84c-.71,0-1.45,0-2.17,0a2.79,2.79,0,0,0-2.28,1.66V58.22a2.9,2.9,0,0,0,2.19,1.64c.74,0,1.51,0,2.25,0h1.72v.31c0,.88,0,1.77,0,2.63v.1c0,1,0,2.14,0,3.25a5.16,5.16,0,0,0,2.57,4.19,5.34,5.34,0,0,0,4.94.14l.44-.2,0,.48c0,.64,0,1.33,0,1.89,0,1.86-.07,3.63.9,5.14a6,6,0,0,0,7.17,2.46,6,6,0,0,0,3.63-4,9.65,9.65,0,0,0,.24-2.8V61.05l.18-.09L39,59.82l2.5-1.26a3.21,3.21,0,0,1,1.69-.28c0,.64.08,1.16.13,1.49a2.59,2.59,0,0,0,.13.69,67.12,67.12,0,0,0,1.83,8.45c.29,1,.57,2,.85,3A35.25,35.25,0,0,1,47.86,83v7.91c0,2.16,0,4.32,0,6.48a3.42,3.42,0,0,0,2.29,3.07,4.33,4.33,0,0,0,1.63.23h17.9a3.56,3.56,0,0,0,3.48-3c0-.69,0-1.39,0-2.07,0-.42,0-.86,0-1.3q0-1.61,0-3.21V81.29a15.74,15.74,0,0,1,.2-3.07A13.74,13.74,0,0,1,76.21,73,27.59,27.59,0,0,0,78,70.29a21.84,21.84,0,0,0,2.62-6.91,13.29,13.29,0,0,0,0-3.75c0-.19,0-.33,0-.44a2.42,2.42,0,0,0-.09-.59l.08,0L83.17,60l.08,0,1.92,1,.18.09v.2c0,3.8,0,7.54,0,11.69v1.67a6.08,6.08,0,0,0,2.38,4.86,6,6,0,0,0,6.51.42,5.93,5.93,0,0,0,3-4.63c.06-.91.05-1.83.05-2.72,0-.61,0-1.16,0-1.73v-.48l.45.19a5.59,5.59,0,0,0,3.72.37A5.26,5.26,0,0,0,105,67.57a6.75,6.75,0,0,0,.29-2.13V63.73c0-1.15,0-2.34,0-3.51V59.9h1.77c.7,0,1.43,0,2.14,0a2.78,2.78,0,0,0,2.47-2.79C111.69,54.16,111.7,50.77,111.67,47.48Zm-95.08,6h0v.32c0,1.14,0,2.27,0,3.41v.32h-4v-.31c0-.71,0-1.43,0-2.12V55c0-.39,0-.79,0-1.19V53.5h0V51.13h0v-.3c0-1.14,0-2.26,0-3.4v-.31h.32c.73,0,1.48,0,2.21,0h1.51v.32c0,1.14,0,2.27,0,3.41v.3h0Zm8,12.33h0a2.93,2.93,0,0,1-2.14,2.83,2.67,2.67,0,0,1-2.4-.53,2.82,2.82,0,0,1-1.11-2.31c0-3.29,0-6.6,0-9.91,0-5.58,0-11.34,0-17a2.77,2.77,0,0,1,.82-2.1,2.75,2.75,0,0,1,1.93-.88h.16a2.93,2.93,0,0,1,2.63,2A3.86,3.86,0,0,1,24.57,39V53.92Q24.58,59.88,24.57,65.83ZM32.85,77.5h0a3.46,3.46,0,0,1-2.3.84,3.59,3.59,0,0,1-2.11-.68,3.65,3.65,0,0,1-1.52-3V39.09c0-1.68,0-3.37,0-5.06V29.92a3.65,3.65,0,0,1,2.45-3.42,3.38,3.38,0,0,1,1.14-.2,3.68,3.68,0,0,1,2.12.7,3.51,3.51,0,0,1,1.53,2.94q0,11.55,0,23.12V74.43A3.71,3.71,0,0,1,32.85,77.5Zm7.72-29c0,2.58,0,5.17,0,7.75v.2l-.18.09-1.86.92-2,1v-.53c0-4.17,0-7.81,0-11.14v-.53l2,1,1.86.93.18.09Zm28.88-9.12a1.82,1.82,0,0,1,.65-1.28,2.09,2.09,0,0,1,1.55-.55,2.05,2.05,0,0,1,2,1.83c0,.68,0,1.37,0,2v3c0,1.11,0,2.26,0,3.4-.33-.41-.65-.83-1-1.23-.48-.64-1-1.31-1.54-1.93a5.79,5.79,0,0,0-1.76-1.16V42.15C69.42,41.22,69.41,40.27,69.45,39.33Zm-6.78-.19h0a1.91,1.91,0,0,1,.55-1.36,2.08,2.08,0,0,1,1.45-.64h.17a2.17,2.17,0,0,1,1.39.53,1.83,1.83,0,0,1,.66,1.29c0,.9,0,1.82,0,2.7v1.58a5.53,5.53,0,0,0-3.2,1.63,4.46,4.46,0,0,0-1.06,1.8v0C62.65,44.15,62.65,41.62,62.67,39.14Zm.69,11.73a1.93,1.93,0,0,1-.7-1.53v-.05A7,7,0,0,0,63.36,50.87Zm-7.44-11a1.83,1.83,0,0,1,.81-1.29,2.14,2.14,0,0,1,1.7-.37,2.48,2.48,0,0,1,1.46,1l-.06.05.14.2,0,0c0,.1,0,.2,0,.27a6.49,6.49,0,0,1,.1,1.46v.34c0,1.87,0,3.74,0,5.61v2.82a2.08,2.08,0,0,1-.76,1.76,2.24,2.24,0,0,1-2.59.12,2,2,0,0,1-.91-1.72c0-1,0-2,0-2.94v-4c0-.38,0-.77,0-1.16C55.87,41.27,55.86,40.56,55.92,39.86ZM49.1,47.15c0-1.45,0-2.95,0-4.43h0a1.87,1.87,0,0,1,.65-1.4,2.11,2.11,0,0,1,1.43-.57h.23a2.12,2.12,0,0,1,1.42.71,1.94,1.94,0,0,1,.51,1.4v2.66c0,1.63,0,3.27,0,4.9a2.06,2.06,0,0,1-1.75,2A2.48,2.48,0,0,1,50,52.11a2.68,2.68,0,0,1-.84-2.54C49.11,48.76,49.11,48,49.1,47.15Zm-4.24,8.72c-.52,0-1.06,0-1.51,0h-.1l0,.09H42.9v-.33c0-.92,0-1.83,0-2.75v-.1c0-1.24,0-2.52,0-3.78v-.32h3.64a26.32,26.32,0,0,0,.13,2.9l0,.28.07-.08a4.66,4.66,0,0,0,1.38,2,5.14,5.14,0,0,0,2.7,1,4.94,4.94,0,0,0,3.92-1.57,4.84,4.84,0,0,0,6.94-.59l.5.38a5.17,5.17,0,0,0,3,.69c.42.69.8,1.41,1.18,2.11H59.32c-3.36,0-6.7,0-10,0H45.92Zm32.76,9.21h0a21.55,21.55,0,0,1-3.27,6.21A19.91,19.91,0,0,0,71.06,77a17.76,17.76,0,0,0-.39,3.77c0,4.63,0,8.8,0,12.72,0,1.22,0,2.44,0,3.66a1,1,0,0,1-.67,1,4.53,4.53,0,0,1-.62.07H51.26c-.84-.14-.95-1-.89-1.56q0-3,0-6c0-2.25,0-4.57,0-6.86v-1c0-.73,0-1.49,0-2.23a46.72,46.72,0,0,0-2-9.83L48.15,70c-.13-.45-.25-.9-.38-1.35s-.25-.9-.38-1.34a43.8,43.8,0,0,1-1.66-9h2.16c1.08,0,2.21,0,3.31,0,2.25,0,4.54,0,6.75,0h5.6a11.61,11.61,0,0,0-5.29,4.81l-.15.28a11.07,11.07,0,0,0-1,2.23,1.08,1.08,0,0,0,.38,1.06,1.27,1.27,0,0,0,1.25.27c.57-.17.77-.68.95-1.13q.06-.16.12-.3a9.19,9.19,0,0,1,4.53-4.93A7.51,7.51,0,0,1,66.62,60l.31,0a3.07,3.07,0,0,0,2.52-2.93A3.12,3.12,0,0,0,69,55.44,39.5,39.5,0,0,0,67.1,52c-.43-.69-.91-1.4-1.41-2.08a3,3,0,0,1-.47-3,2.68,2.68,0,0,1,2.07-1.33,2.37,2.37,0,0,1,2.11.73l.57.72c.33.41.67.82,1,1.24,1.44,1.9,2.85,3.87,4.21,5.77l1.2,1.66A12.77,12.77,0,0,1,77.57,58,10.06,10.06,0,0,1,77.62,65.08ZM76.25,51.33l-.32-.46c0-.14.06-.57.11-2.18h2.89V49c0,1.17,0,2.36,0,3.51,0,1,0,2,0,2.94C78,53.92,76.93,52.32,76.25,51.33Zm9.1,3v4.05l-.47-.23-1.3-.65-.49-.24-1.61-.8-.18-.09v-.2c0-1.56,0-3.13,0-4.69V48.26l.18-.1,1.41-.7.36-.18,1.61-.81.47-.25v.53C85.36,49.29,85.36,51.87,85.35,54.37ZM95,38.22c0,5.93,0,17.51,0,21.48,0,5.39,0,10.26,0,15.12A3.65,3.65,0,0,1,93,77.92a3.64,3.64,0,0,1-4.34-.75,3.68,3.68,0,0,1-1-2.77V30.11A3.68,3.68,0,0,1,90,26.54a3.31,3.31,0,0,1,1.25-.24,3.7,3.7,0,0,1,1.95.57,3.49,3.49,0,0,1,1.68,2.74c0,1.69,0,3.37,0,5C94.94,36,94.94,37.15,95,38.22Zm8,27.63a2.87,2.87,0,0,1-2.45,2.86,2.71,2.71,0,0,1-2.21-.7,2.84,2.84,0,0,1-1-2.21c0-3.2,0-6.42,0-9.64V39.33c0-.17,0-.35,0-.55a2.8,2.8,0,0,1,.89-2.08,2.83,2.83,0,0,1,1.92-.8h.15a2.8,2.8,0,0,1,1.94,1,2.84,2.84,0,0,1,.75,2c0,3.35,0,6.71,0,10.08v1.27C103,55.37,103,60.65,102.94,65.85Zm6.41-12.32h0V54.8c0,.9,0,1.64,0,2.42v.31h-4v-4h0V51.15h0V47.09h1.38c.77,0,1.57,0,2.35,0h.32v.32c0,.91,0,1.83,0,2.74v1h0Z"/><rect class="cls-3" x="12.5" y="51.13" width="4.09" height="2.38"/><rect class="cls-3" x="105.26" y="51.15" width="4.09" height="2.38"/></g></g></svg>