<svg xmlns="http://www.w3.org/2000/svg" width="245.8" height="65.3"><g data-name="Group 80"><g data-name="Group 73"><path data-name="Rectangle 7" fill="#3894c1" d="M37 47h37v15H37z"/><path data-name="Path 155" d="M32 47H20a5 5 0 01-5-5V0H0v40c0 17 8 22 22 22h15V42a5 5 0 01-5 5z" fill="#8faf61"/><path data-name="Path 156" d="M38 0h-1v62l1-1c8-1 14-5 14-14V0z" fill="#0c86b6"/><path data-name="Path 157" d="M46 27a2 2 0 00-1-2V10a2 2 0 10-1 0v15a2 2 0 000 4v13a2 2 0 000 4c-1 4-4 7-7 7v1c4-1 7-4 8-8a2 2 0 000-4V29a2 2 0 001-2z" fill="#d2f7ff"/><path data-name="Path 158" d="M36 53h-8a2 2 0 00-4 0h-8c-4 0-7-3-8-7a2 2 0 000-4V29a2 2 0 000-4V10a2 2 0 10-1 0v15a2 2 0 000 4v13a2 2 0 000 5h1c1 3 4 7 8 7h8a2 2 0 004 0h8a7 7 0 001 0v-1a7 7 0 01-1 0z" fill="#f5f9de"/></g><g data-name="Group 75"><g data-name="Group 74" fill="#0c86b6"><path data-name="Path 159" d="M91 61a6 6 0 01-4-1 4 4 0 01-2-2 9 9 0 010-2V46h2v9l1 3a5 5 0 006 0l1-3v-9h2v9a9 9 0 01-1 4q-1 2-5 2z"/><path data-name="Path 160" d="M102 52a4 4 0 013-2q3 0 3 4v7h-2v-7a3 3 0 000-2 2 2 0 00-2 0 4 4 0 00-2 1v8h-2V50h2z"/><path data-name="Path 161" d="M113 48h-2v-2h2zm0 13h-2V50h2z"/><path data-name="Path 162" d="M125 61h-9V46h2v13h7z"/><path data-name="Path 163" d="M134 60a5 5 0 01-4 1 5 5 0 01-1 0 3 3 0 01-1-1 3 3 0 01-1-2q0-4 6-4h1v-1a1 1 0 000-1 2 2 0 00-1 0 3 3 0 00-2-1q-2 0-2 2h-2q0-3 5-3a5 5 0 013 1l1 3v7h-2zm0-2v-2h-1q-4 0-4 2a1 1 0 000 1 3 3 0 002 1 4 4 0 001 0 4 4 0 001-1 3 3 0 001-1z"/><path data-name="Path 164" d="M147 61h-2l-3-6-1 2v4h-2V46h2v9l4-5h2l-4 4z"/><path data-name="Path 165" d="M153 61a6 6 0 01-2 0 5 5 0 01-1-1 5 5 0 01-1-2 7 7 0 01-1-2 7 7 0 011-3 5 5 0 011-2 4 4 0 011-1 5 5 0 012 0 5 5 0 012 0 4 4 0 012 1 5 5 0 011 2 7 7 0 010 3h-8a5 5 0 001 2 3 3 0 000 1 3 3 0 001 0 3 3 0 001 1 4 4 0 001 0 3 3 0 001-1 2 2 0 001 0 2 2 0 000-1h2a4 4 0 010 1 4 4 0 01-1 1 5 5 0 01-2 1 6 6 0 01-2 0zm3-6a4 4 0 00-1-3 3 3 0 00-2-1 3 3 0 00-1 1 3 3 0 00-1 0 3 3 0 000 1 5 5 0 00-1 2z"/><path data-name="Path 166" d="M174 61a9 9 0 01-2 0 6 6 0 01-2-1 4 4 0 01-1-2 5 5 0 01-1-2h2a3 3 0 000 2 3 3 0 001 1 4 4 0 002 0 6 6 0 001 0 6 6 0 002 0 4 4 0 001 0 2 2 0 001-1 2 2 0 000-1 2 2 0 000-1 2 2 0 00-1-1 6 6 0 00-1 0l-3-1a12 12 0 01-2-1 5 5 0 01-1 0 3 3 0 01-1-3 4 4 0 010-2 4 4 0 011-1 5 5 0 012-1 7 7 0 012 0 8 8 0 012 0 5 5 0 012 1 4 4 0 011 1 4 4 0 011 2h-2q-1-2-4-2a4 4 0 00-3 0 2 2 0 000 2 2 2 0 000 1 4 4 0 001 1h2a23 23 0 013 1 6 6 0 011 1 4 4 0 011 0 4 4 0 011 1 4 4 0 010 2 4 4 0 010 2 4 4 0 01-2 1 5 5 0 01-1 1 7 7 0 01-3 0z"/><path data-name="Path 167" d="M183 64l2-3-4-11h2l3 9 3-9h2l-4 11-1 1v1a5 5 0 010 1 4 4 0 01-1 1 3 3 0 01-1 0 2 2 0 01-1 0 3 3 0 01-1 0v-2a3 3 0 001 1z"/><path data-name="Path 168" d="M196 61q-4 0-4-3h2q0 2 2 2a3 3 0 002-1 2 2 0 001-1 1 1 0 000-1 1 1 0 00-1 0 5 5 0 00-1 0l-1-1a9 9 0 01-3-1 2 2 0 01-1-2 3 3 0 010-1 3 3 0 011-1 4 4 0 011-1 5 5 0 012 0q4 0 4 3h-1q-1-2-3-2a4 4 0 00-1 1 1 1 0 00-1 0 1 1 0 000 1 1 1 0 001 1 12 12 0 002 1 13 13 0 012 0 6 6 0 011 1 2 2 0 011 0 3 3 0 010 2 3 3 0 01-1 1 3 3 0 010 1 4 4 0 01-2 1 6 6 0 01-2 0z"/><path data-name="Path 169" d="M207 61a7 7 0 01-1 0 3 3 0 01-2 0 2 2 0 010-1 2 2 0 01-1-1v-7h-1v-2h1v-2h2v2h2v2h-2v6a5 5 0 000 1 1 1 0 001 1 6 6 0 001 0z"/><path data-name="Path 170" d="M213 61a6 6 0 01-2 0 5 5 0 01-2-1 5 5 0 01-1-2 7 7 0 010-2 7 7 0 010-3 5 5 0 011-2 4 4 0 012-1 5 5 0 012 0 5 5 0 012 0 4 4 0 012 1 5 5 0 011 2 7 7 0 010 3h-8a5 5 0 000 2 3 3 0 001 1 3 3 0 001 0 3 3 0 001 1 4 4 0 001 0 3 3 0 001-1 2 2 0 001 0 2 2 0 000-1h2a4 4 0 01-1 1 4 4 0 01-1 1 5 5 0 01-1 1 6 6 0 01-2 0zm3-6a4 4 0 00-1-3 3 3 0 00-2-1 3 3 0 00-1 1 3 3 0 00-1 0 3 3 0 00-1 1 5 5 0 000 2z"/><path data-name="Path 171" d="M235 61h-2v-7a4 4 0 00-1-2 1 1 0 00-1 0 4 4 0 00-3 1v8h-2v-7a4 4 0 000-2 1 1 0 00-1 0 4 4 0 00-3 1v8h-2V50h2v2a4 4 0 013-2 3 3 0 013 2 11 11 0 011-1 3 3 0 011-1 4 4 0 011 0q4 0 4 4z"/><path data-name="Path 172" d="M241 61q-4 0-4-3h1q0 2 3 2a3 3 0 002-1 2 2 0 000-1 1 1 0 000-1 5 5 0 00-1 0l-2-1a9 9 0 01-2-1 2 2 0 01-1-2 3 3 0 010-1 3 3 0 011-1 4 4 0 011-1 5 5 0 012 0q4 0 4 3h-2q0-2-2-2a4 4 0 00-1 1 2 2 0 00-1 0 1 1 0 000 1 1 1 0 000 1 13 13 0 003 1 13 13 0 011 0 6 6 0 011 1 2 2 0 011 0 3 3 0 010 2 3 3 0 010 1 3 3 0 01-1 1 4 4 0 01-1 1 6 6 0 01-2 0z"/></g></g><g data-name="Group 79" fill="#0c86b6"><path data-name="Path 173" d="M170 34v-2a12 12 0 007-7h5q-2 8-12 9zm2-11v-3a145 145 0 0013-6h-1l-11 1v-4a52 52 0 0010-5h-12V3h21a58 58 0 0012-2v4a43 43 0 01-11 1h-2a40 40 0 01-10 5h10l1-1a20 20 0 004-1h6a83 83 0 01-21 11l17-1-1-2-1-2h4l4 9-5 1a12 12 0 000-2h-9v8q0 5-5 5h-4v-4h2l2-2v-7zm33 11q-10-1-12-9h5q2 5 7 7z"/><path data-name="Path 174" d="M209 15v-3a29 29 0 005-11h5a31 31 0 01-6 11 35 35 0 004 0l1-4h5a35 35 0 01-9 14l8-2v4a56 56 0 01-12 1v-3a32 32 0 005-7 39 39 0 01-6 0zm0 18v-4a50 50 0 0013-1v3a39 39 0 01-13 2zm13-26V4h9V1h5v3h9v3h-11a29 29 0 01-7 8h8a41 41 0 005 0 20 20 0 01-1-2l-1-3h4a51 51 0 013 10h-4v-2a3 3 0 01-2 0 7 7 0 01-1 0v12c0 2 1 1 3 1 1 0 1 1 1-1v-1h4v2q0 4-5 4h-2q-5 0-5-4V18a27 27 0 01-3 0v4q1 10-11 14v-3q7-4 7-11v-3h-4v-4a29 29 0 006-8z"/><g data-name="Group 76"><path data-name="Path 175" d="M95 35h5v-6a9 9 0 002-1v-3a3 3 0 00-1 0 5 5 0 01-1 0V5h2V1H86v4h2v22h-2v4a45 45 0 009-1zm-3-17v-3l3-3v4l-3 3zm0-9V5h3v3l-3 2V9zm0 17v-3l3-2v5h-3z"/><path data-name="Path 176" d="M109 16h-8v3h7q0 7-7 13v3q8-3 10-9 3 6 11 9v-3q-7-5-8-13h8v-3h-8V8h7V4h-3a27 27 0 001-4h-5a11 11 0 01-1 4h-4a19 19 0 01-1-4h-5a14 14 0 001 4h-2v4h7z"/></g><g data-name="Group 78"><path data-name="Path 177" d="M146 35q-6 0-6-5V9h-3V6h3V3h4v3h5V0h5v6h9v14q0 5-5 5h-2v-4h1l2-1V9h-5v17h-5V9h-5v21c0 2 1 2 3 2h11c2 0 2 0 2-2v-2h5v3q0 4-6 4z"/><g data-name="Group 77"><path data-name="Path 178" d="M128 35h6a68 68 0 002-15h-4a54 54 0 01-4 15z"/><path data-name="Path 179" d="M131 9h5a23 23 0 00-3-8h-4a28 28 0 012 8z"/><path data-name="Path 180" d="M129 10a28 28 0 012 8h5a27 27 0 00-2-8z"/></g></g></g></g></svg>
